RecursiveMonoVar-StrictExtraBold.ufo
<glyph name="exclam" format="1">
  <advance width="600"/>
  <unicode hex="0021"/>
  <outline>
    <contour>
      <point x="354" y="290" type="line"/>
      <point x="366" y="361"/>
      <point x="378" y="431"/>
      <point x="390" y="502" type="curve"/>
      <point x="390" y="689" type="line" smooth="yes"/>
      <point x="390" y="696"/>
      <point x="385" y="700"/>
      <point x="379" y="700" type="curve" smooth="yes"/>
      <point x="307" y="700"/>
      <point x="251" y="700"/>
      <point x="210" y="700" type="curve"/>
      <point x="210" y="662"/>
      <point x="210" y="627"/>
      <point x="210" y="590" type="curve" smooth="yes"/>
      <point x="210" y="502" type="line"/>
      <point x="243" y="299"/>
      <point x="244" y="297"/>
      <point x="248" y="293" type="curve" smooth="yes"/>
      <point x="250" y="291"/>
      <point x="252" y="290"/>
      <point x="256" y="290" type="curve"/>
    </contour>
    <contour>
      <point x="400" y="-10" type="curve"/>
      <point x="400" y="179" type="line" smooth="yes"/>
      <point x="400" y="185"/>
      <point x="395" y="190"/>
      <point x="389" y="190" type="curve" smooth="yes"/>
      <point x="326" y="190"/>
      <point x="263" y="190"/>
      <point x="200" y="190" type="curve"/>
      <point x="200" y="1" type="line" smooth="yes"/>
      <point x="200" y="-5"/>
      <point x="205" y="-10"/>
      <point x="211" y="-10" type="curve" smooth="yes"/>
      <point x="274" y="-10"/>
      <point x="337" y="-10"/>
    </contour>
  </outline>
</glyph>
<glyph name="quotedbl" format="1">
  <advance width="600"/>
  <unicode hex="0022"/>
  <outline>
    <contour>
      <point x="235" y="450" type="curve"/>
      <point x="258" y="737" type="line" smooth="yes"/>
      <point x="259" y="746"/>
      <point x="254" y="750"/>
      <point x="248" y="750" type="curve" smooth="yes"/>
      <point x="200" y="750"/>
      <point x="147" y="750"/>
      <point x="89" y="750" type="curve"/>
      <point x="92" y="714"/>
      <point x="94" y="683"/>
      <point x="97" y="648" type="curve" smooth="yes"/>
      <point x="112" y="461" type="line" smooth="yes"/>
      <point x="113" y="454"/>
      <point x="118" y="450"/>
      <point x="124" y="450" type="curve" smooth="yes"/>
      <point x="162" y="450"/>
      <point x="197" y="450"/>
    </contour>
    <contour>
      <point x="487" y="450" type="curve"/>
      <point x="510" y="737" type="line" smooth="yes"/>
      <point x="511" y="746"/>
      <point x="506" y="750"/>
      <point x="500" y="750" type="curve" smooth="yes"/>
      <point x="452" y="750"/>
      <point x="399" y="750"/>
      <point x="341" y="750" type="curve"/>
      <point x="364" y="461" type="line"/>
      <point x="365" y="454"/>
      <point x="370" y="450"/>
      <point x="376" y="450" type="curve" smooth="yes"/>
      <point x="414" y="450"/>
      <point x="449" y="450"/>
    </contour>
  </outline>
</glyph>
<glyph name="percent" format="1">
  <advance width="600"/>
  <unicode hex="0025"/>
  <outline>
    <contour>
      <point x="169" y="618" type="curve"/>
      <point x="205" y="618"/>
      <point x="225" y="596"/>
      <point x="225" y="558" type="curve" smooth="yes"/>
      <point x="225" y="520" type="line" smooth="yes"/>
      <point x="225" y="476"/>
      <point x="207" y="452"/>
      <point x="169" y="452" type="curve" smooth="yes"/>
      <point x="137" y="452"/>
      <point x="128" y="452"/>
      <point x="101" y="452" type="curve"/>
      <point x="101" y="394"/>
      <point x="126" y="360"/>
      <point x="169" y="360" type="curve" smooth="yes"/>
      <point x="262" y="360"/>
      <point x="326" y="422"/>
      <point x="326" y="514" type="curve" smooth="yes"/>
      <point x="326" y="560" type="line" smooth="yes"/>
      <point x="326" y="654"/>
      <point x="263" y="710"/>
      <point x="169" y="710" type="curve" smooth="yes"/>
      <point x="150" y="710"/>
      <point x="147" y="695"/>
    </contour>
    <contour>
      <point x="169" y="452" type="curve"/>
      <point x="133" y="452"/>
      <point x="113" y="475"/>
      <point x="113" y="513" type="curve" smooth="yes"/>
      <point x="113" y="550" type="line" smooth="yes"/>
      <point x="113" y="594"/>
      <point x="131" y="618"/>
      <point x="169" y="618" type="curve" smooth="yes"/>
      <point x="201" y="618"/>
      <point x="210" y="618"/>
      <point x="237" y="618" type="curve"/>
      <point x="237" y="676"/>
      <point x="212" y="710"/>
      <point x="169" y="710" type="curve" smooth="yes"/>
      <point x="76" y="710"/>
      <point x="12" y="648"/>
      <point x="12" y="556" type="curve" smooth="yes"/>
      <point x="12" y="510" type="line" smooth="yes"/>
      <point x="12" y="416"/>
      <point x="75" y="360"/>
      <point x="169" y="360" type="curve" smooth="yes"/>
      <point x="188" y="360"/>
      <point x="191" y="375"/>
    </contour>
    <contour>
      <point x="431" y="248" type="curve"/>
      <point x="467" y="248"/>
      <point x="487" y="226"/>
      <point x="487" y="188" type="curve" smooth="yes"/>
      <point x="487" y="150" type="line" smooth="yes"/>
      <point x="487" y="106"/>
      <point x="469" y="82"/>
      <point x="431" y="82" type="curve" smooth="yes"/>
      <point x="399" y="82"/>
      <point x="390" y="82"/>
      <point x="363" y="82" type="curve"/>
      <point x="363" y="24"/>
      <point x="388" y="-10"/>
      <point x="431" y="-10" type="curve" smooth="yes"/>
      <point x="524" y="-10"/>
      <point x="588" y="52"/>
      <point x="588" y="144" type="curve" smooth="yes"/>
      <point x="588" y="190" type="line" smooth="yes"/>
      <point x="588" y="284"/>
      <point x="525" y="340"/>
      <point x="431" y="340" type="curve" smooth="yes"/>
      <point x="412" y="340"/>
      <point x="409" y="325"/>
    </contour>
    <contour>
      <point x="431" y="82" type="curve"/>
      <point x="395" y="82"/>
      <point x="375" y="105"/>
      <point x="375" y="143" type="curve" smooth="yes"/>
      <point x="375" y="180" type="line" smooth="yes"/>
      <point x="375" y="224"/>
      <point x="393" y="248"/>
      <point x="431" y="248" type="curve" smooth="yes"/>
      <point x="463" y="248"/>
      <point x="472" y="248"/>
      <point x="499" y="248" type="curve"/>
      <point x="499" y="306"/>
      <point x="474" y="340"/>
      <point x="431" y="340" type="curve" smooth="yes"/>
      <point x="338" y="340"/>
      <point x="274" y="278"/>
      <point x="274" y="186" type="curve" smooth="yes"/>
      <point x="274" y="140" type="line" smooth="yes"/>
      <point x="274" y="46"/>
      <point x="337" y="-10"/>
      <point x="431" y="-10" type="curve" smooth="yes"/>
      <point x="450" y="-10"/>
      <point x="453" y="5"/>
    </contour>
    <contour>
      <point x="357" y="405" type="curve"/>
      <point x="379" y="405"/>
      <point x="404" y="405"/>
      <point x="441" y="405" type="curve" smooth="yes"/>
      <point x="446" y="405"/>
      <point x="448" y="406"/>
      <point x="451" y="412" type="curve" smooth="yes"/>
      <point x="495" y="507"/>
      <point x="539" y="602"/>
      <point x="583" y="697" type="curve" smooth="yes"/>
      <point x="587" y="705"/>
      <point x="583" y="710"/>
      <point x="575" y="710" type="curve" smooth="yes"/>
      <point x="526" y="710"/>
      <point x="497" y="710"/>
      <point x="439" y="710" type="curve"/>
      <point x="412" y="608"/>
      <point x="384" y="507"/>
    </contour>
    <contour>
      <point x="243" y="296" type="curve"/>
      <point x="221" y="296"/>
      <point x="196" y="296"/>
      <point x="159" y="296" type="curve" smooth="yes"/>
      <point x="154" y="296"/>
      <point x="152" y="295"/>
      <point x="149" y="289" type="curve" smooth="yes"/>
      <point x="105" y="194"/>
      <point x="61" y="99"/>
      <point x="17" y="4" type="curve" smooth="yes"/>
      <point x="13" y="-4"/>
      <point x="17" y="-9"/>
      <point x="25" y="-9" type="curve" smooth="yes"/>
      <point x="74" y="-9"/>
      <point x="103" y="-9"/>
      <point x="161" y="-9" type="curve"/>
      <point x="188" y="93"/>
      <point x="216" y="194"/>
    </contour>
  </outline>
</glyph>
<glyph name="parenleft" format="1">
  <advance width="600"/>
  <unicode hex="0028"/>
  <outline>
    <contour>
      <point x="339" y="742" type="curve" smooth="yes"/>
      <point x="222" y="625"/>
      <point x="165" y="480"/>
      <point x="165" y="320" type="curve" smooth="yes"/>
      <point x="165" y="311" type="line" smooth="yes"/>
      <point x="165" y="153"/>
      <point x="222" y="12"/>
      <point x="339" y="-105" type="curve" smooth="yes"/>
      <point x="347" y="-113"/>
      <point x="352" y="-113"/>
      <point x="359" y="-113" type="curve" smooth="yes"/>
      <point x="418" y="-113"/>
      <point x="461" y="-113"/>
      <point x="525" y="-113" type="curve"/>
      <point x="525" y="-93" type="line"/>
      <point x="393" y="32"/>
      <point x="325" y="155"/>
      <point x="325" y="311" type="curve" smooth="yes"/>
      <point x="325" y="320" type="line" smooth="yes"/>
      <point x="325" y="478"/>
      <point x="390" y="612"/>
      <point x="520" y="730" type="curve"/>
      <point x="520" y="750" type="line"/>
      <point x="458" y="750"/>
      <point x="416" y="750"/>
      <point x="359" y="750" type="curve" smooth="yes"/>
      <point x="352" y="750"/>
      <point x="347" y="750"/>
    </contour>
  </outline>
</glyph>
<glyph name="parenright" format="1">
  <advance width="600"/>
  <unicode hex="0029"/>
  <outline>
    <contour>
      <point x="261" y="-105" type="curve" smooth="yes"/>
      <point x="378" y="12"/>
      <point x="435" y="157"/>
      <point x="435" y="317" type="curve" smooth="yes"/>
      <point x="435" y="326" type="line" smooth="yes"/>
      <point x="435" y="484"/>
      <point x="378" y="625"/>
      <point x="261" y="742" type="curve" smooth="yes"/>
      <point x="253" y="750"/>
      <point x="248" y="750"/>
      <point x="241" y="750" type="curve" smooth="yes"/>
      <point x="182" y="750"/>
      <point x="139" y="750"/>
      <point x="75" y="750" type="curve"/>
      <point x="75" y="730" type="line"/>
      <point x="207" y="605"/>
      <point x="275" y="482"/>
      <point x="275" y="326" type="curve" smooth="yes"/>
      <point x="275" y="317" type="line" smooth="yes"/>
      <point x="275" y="159"/>
      <point x="210" y="25"/>
      <point x="80" y="-93" type="curve"/>
      <point x="80" y="-113" type="line"/>
      <point x="142" y="-113"/>
      <point x="184" y="-113"/>
      <point x="241" y="-113" type="curve" smooth="yes"/>
      <point x="248" y="-113"/>
      <point x="253" y="-113"/>
    </contour>
  </outline>
</glyph>
<glyph name="asterisk" format="1">
  <advance width="600"/>
  <unicode hex="002A"/>
  <outline>
    <contour>
      <point x="230" y="568" type="curve"/>
      <point x="238" y="529"/>
      <point x="246" y="490"/>
      <point x="254" y="451" type="curve" smooth="yes"/>
      <point x="283" y="309" type="line"/>
      <point x="231" y="60" type="line" smooth="yes"/>
      <point x="230" y="54"/>
      <point x="233" y="50"/>
      <point x="239" y="50" type="curve"/>
      <point x="282" y="50"/>
      <point x="326" y="50"/>
      <point x="369" y="50" type="curve"/>
      <point x="361" y="89"/>
      <point x="353" y="128"/>
      <point x="345" y="167" type="curve" smooth="yes"/>
      <point x="316" y="309" type="line"/>
      <point x="368" y="558" type="line" smooth="yes"/>
      <point x="369" y="564"/>
      <point x="366" y="568"/>
      <point x="360" y="568" type="curve" smooth="yes"/>
      <point x="317" y="568"/>
      <point x="273" y="568"/>
    </contour>
    <contour>
      <point x="489" y="499" type="curve"/>
      <point x="292" y="324" type="line"/>
      <point x="50" y="245" type="line" smooth="yes"/>
      <point x="44" y="243"/>
      <point x="42" y="238"/>
      <point x="46" y="230" type="curve"/>
      <point x="67" y="193"/>
      <point x="89" y="157"/>
      <point x="110" y="120" type="curve"/>
      <point x="308" y="295" type="line"/>
      <point x="548" y="374" type="line" smooth="yes"/>
      <point x="555" y="376"/>
      <point x="557" y="382"/>
      <point x="553" y="389" type="curve" smooth="yes"/>
      <point x="532" y="426"/>
      <point x="510" y="462"/>
    </contour>
    <contour>
      <point x="558" y="241" type="curve"/>
      <point x="308" y="324" type="line"/>
      <point x="119" y="494" type="line" smooth="yes"/>
      <point x="114" y="498"/>
      <point x="109" y="497"/>
      <point x="104" y="490" type="curve"/>
      <point x="83" y="453"/>
      <point x="61" y="417"/>
      <point x="40" y="380" type="curve"/>
      <point x="291" y="296" type="line"/>
      <point x="479" y="127" type="line" smooth="yes"/>
      <point x="485" y="122"/>
      <point x="491" y="123"/>
      <point x="495" y="130" type="curve"/>
      <point x="516" y="167"/>
      <point x="537" y="204"/>
    </contour>
  </outline>
</glyph>
<glyph name="comma" format="1">
  <advance width="600"/>
  <unicode hex="002C"/>
  <outline>
    <contour>
      <point x="318" y="-190" type="curve" smooth="yes"/>
      <point x="323" y="-190"/>
      <point x="326" y="-189"/>
      <point x="328" y="-183" type="curve"/>
      <point x="369" y="-74"/>
      <point x="417" y="54"/>
      <point x="450" y="140" type="curve"/>
      <point x="453" y="148"/>
      <point x="450" y="153"/>
      <point x="442" y="153" type="curve" smooth="yes"/>
      <point x="371" y="153"/>
      <point x="329" y="153"/>
      <point x="246" y="153" type="curve"/>
      <point x="222" y="39"/>
      <point x="198" y="-76"/>
      <point x="174" y="-190" type="curve"/>
      <point x="212" y="-190"/>
      <point x="255" y="-190"/>
    </contour>
  </outline>
</glyph>
<glyph name="period" format="1">
  <advance width="600"/>
  <unicode hex="002E"/>
  <outline>
    <contour>
      <point x="400" y="-10" type="curve"/>
      <point x="400" y="179" type="line" smooth="yes"/>
      <point x="400" y="185"/>
      <point x="395" y="190"/>
      <point x="389" y="190" type="curve" smooth="yes"/>
      <point x="326" y="190"/>
      <point x="263" y="190"/>
      <point x="200" y="190" type="curve"/>
      <point x="200" y="1" type="line" smooth="yes"/>
      <point x="200" y="-5"/>
      <point x="205" y="-10"/>
      <point x="211" y="-10" type="curve" smooth="yes"/>
      <point x="274" y="-10"/>
      <point x="337" y="-10"/>
    </contour>
  </outline>
</glyph>
<glyph name="three" format="1">
  <advance width="600"/>
  <unicode hex="0033"/>
  <outline>
    <contour>
      <point x="275" y="570" type="curve" smooth="yes"/>
      <point x="369" y="570"/>
      <point x="390" y="540"/>
      <point x="390" y="505" type="curve" smooth="yes"/>
      <point x="390" y="480"/>
      <point x="390" y="469"/>
      <point x="390" y="450" type="curve"/>
      <point x="468" y="450"/>
      <point x="540" y="468"/>
      <point x="540" y="527" type="curve" smooth="yes"/>
      <point x="540" y="554" type="line" smooth="yes"/>
      <point x="540" y="656"/>
      <point x="434" y="720"/>
      <point x="281" y="720" type="curve" smooth="yes"/>
      <point x="182" y="720"/>
      <point x="86" y="698"/>
      <point x="75" y="687" type="curve" smooth="yes"/>
      <point x="73" y="685"/>
      <point x="73" y="683"/>
      <point x="73" y="680" type="curve" smooth="yes"/>
      <point x="73" y="627"/>
      <point x="73" y="580"/>
      <point x="73" y="545" type="curve"/>
      <point x="93" y="545" type="line"/>
      <point x="151" y="562"/>
      <point x="194" y="570"/>
    </contour>
    <contour>
      <point x="161" y="338" type="curve" smooth="yes"/>
      <point x="383" y="338"/>
      <point x="540" y="375"/>
      <point x="540" y="527" type="curve" smooth="yes"/>
      <point x="540" y="553"/>
      <point x="459" y="580"/>
      <point x="390" y="580" type="curve"/>
      <point x="390" y="555"/>
      <point x="390" y="530"/>
      <point x="390" y="505" type="curve" smooth="yes"/>
      <point x="390" y="459"/>
      <point x="369" y="428"/>
      <point x="150" y="428" type="curve"/>
      <point x="150" y="406"/>
      <point x="150" y="371"/>
      <point x="150" y="349" type="curve" smooth="yes"/>
      <point x="150" y="343"/>
      <point x="155" y="338"/>
    </contour>
    <contour>
      <point x="161" y="288" type="curve" smooth="yes"/>
      <point x="360" y="288"/>
      <point x="400" y="258"/>
      <point x="400" y="205" type="curve" smooth="yes"/>
      <point x="400" y="180"/>
      <point x="400" y="171"/>
      <point x="400" y="135" type="curve"/>
      <point x="494" y="135"/>
      <point x="550" y="154"/>
      <point x="550" y="209" type="curve" smooth="yes"/>
      <point x="550" y="343"/>
      <point x="385" y="381"/>
      <point x="150" y="381" type="curve"/>
      <point x="150" y="354"/>
      <point x="150" y="323"/>
      <point x="150" y="299" type="curve" smooth="yes"/>
      <point x="150" y="291"/>
      <point x="154" y="288"/>
    </contour>
    <contour>
      <point x="275" y="130" type="curve" smooth="yes"/>
      <point x="185" y="130"/>
      <point x="137" y="136"/>
      <point x="73" y="160" type="curve"/>
      <point x="53" y="160" type="line"/>
      <point x="53" y="120"/>
      <point x="53" y="73"/>
      <point x="53" y="20" type="curve" smooth="yes"/>
      <point x="53" y="17"/>
      <point x="53" y="15"/>
      <point x="55" y="13" type="curve" smooth="yes"/>
      <point x="67" y="1"/>
      <point x="172" y="-20"/>
      <point x="281" y="-20" type="curve" smooth="yes"/>
      <point x="444" y="-20"/>
      <point x="550" y="45"/>
      <point x="550" y="176" type="curve" smooth="yes"/>
      <point x="550" y="209" type="line" smooth="yes"/>
      <point x="550" y="256"/>
      <point x="480" y="272"/>
      <point x="400" y="271" type="curve"/>
      <point x="400" y="246"/>
      <point x="400" y="232"/>
      <point x="400" y="205" type="curve" smooth="yes"/>
      <point x="400" y="165"/>
      <point x="377" y="130"/>
    </contour>
  </outline>
</glyph>
<glyph name="five" format="1">
  <advance width="600"/>
  <unicode hex="0035"/>
  <outline>
    <contour>
      <point x="155" y="700" type="line"/>
      <point x="155" y="654"/>
      <point x="155" y="615"/>
      <point x="155" y="569" type="curve" smooth="yes"/>
      <point x="155" y="566"/>
      <point x="156" y="563"/>
      <point x="158" y="561" type="curve" smooth="yes"/>
      <point x="160" y="559"/>
      <point x="163" y="558"/>
      <point x="166" y="558" type="curve" smooth="yes"/>
      <point x="520" y="558" type="line"/>
      <point x="520" y="588"/>
      <point x="520" y="635"/>
      <point x="520" y="689" type="curve" smooth="yes"/>
      <point x="520" y="695"/>
      <point x="515" y="700"/>
      <point x="509" y="700" type="curve" smooth="yes"/>
    </contour>
    <contour>
      <point x="225" y="293" type="line"/>
      <point x="267" y="676" type="line" smooth="yes"/>
      <point x="269" y="691"/>
      <point x="246" y="700"/>
      <point x="169" y="700" type="curve" smooth="yes"/>
      <point x="119" y="700" type="line"/>
      <point x="81" y="313" type="line" smooth="yes"/>
      <point x="80" y="301"/>
      <point x="81" y="293"/>
      <point x="93" y="293" type="curve" smooth="yes"/>
    </contour>
    <contour>
      <point x="199" y="369" type="curve"/>
      <point x="169" y="336"/>
      <point x="186" y="293"/>
      <point x="225" y="293" type="curve"/>
      <point x="248" y="305"/>
      <point x="275" y="311"/>
      <point x="309" y="311" type="curve" smooth="yes"/>
      <point x="377" y="311"/>
      <point x="400" y="280"/>
      <point x="400" y="238" type="curve" smooth="yes"/>
      <point x="400" y="223"/>
      <point x="400" y="208"/>
      <point x="400" y="190" type="curve"/>
      <point x="447" y="190"/>
      <point x="550" y="199"/>
      <point x="550" y="241" type="curve" smooth="yes"/>
      <point x="550" y="369"/>
      <point x="466" y="438"/>
      <point x="364" y="438" type="curve" smooth="yes"/>
      <point x="281" y="438"/>
      <point x="234" y="410"/>
    </contour>
    <contour>
      <point x="276" y="-20" type="curve" smooth="yes"/>
      <point x="449" y="-20"/>
      <point x="550" y="72"/>
      <point x="550" y="201" type="curve" smooth="yes"/>
      <point x="550" y="241" type="line" smooth="yes"/>
      <point x="550" y="290"/>
      <point x="467" y="334"/>
      <point x="400" y="313" type="curve"/>
      <point x="400" y="283"/>
      <point x="400" y="261"/>
      <point x="400" y="233" type="curve" smooth="yes"/>
      <point x="400" y="210" type="line" smooth="yes"/>
      <point x="400" y="162"/>
      <point x="365" y="130"/>
      <point x="272" y="130" type="curve" smooth="yes"/>
      <point x="192" y="130"/>
      <point x="150" y="138"/>
      <point x="93" y="160" type="curve"/>
      <point x="73" y="160" type="line"/>
      <point x="73" y="120"/>
      <point x="73" y="73"/>
      <point x="73" y="20" type="curve" smooth="yes"/>
      <point x="73" y="17"/>
      <point x="73" y="15"/>
      <point x="75" y="13" type="curve" smooth="yes"/>
      <point x="86" y="2"/>
      <point x="175" y="-20"/>
    </contour>
  </outline>
</glyph>
<glyph name="six" format="1">
  <advance width="600"/>
  <unicode hex="0036"/>
  <outline>
    <contour>
      <point x="186" y="121" type="curve"/>
      <point x="186" y="12"/>
      <point x="249" y="-21"/>
      <point x="308" y="-21" type="curve"/>
      <point x="452" y="-21"/>
      <point x="554" y="74"/>
      <point x="554" y="195" type="curve" smooth="yes"/>
      <point x="554" y="255" type="line" smooth="yes"/>
      <point x="554" y="299"/>
      <point x="483" y="329"/>
      <point x="408" y="329" type="curve"/>
      <point x="408" y="293"/>
      <point x="408" y="273"/>
      <point x="408" y="237" type="curve" smooth="yes"/>
      <point x="408" y="213" type="line" smooth="yes"/>
      <point x="408" y="160"/>
      <point x="373" y="121"/>
      <point x="302" y="121" type="curve" smooth="yes"/>
      <point x="253" y="121"/>
      <point x="215" y="121"/>
    </contour>
    <contour>
      <point x="230" y="570" type="curve"/>
      <point x="267" y="570"/>
      <point x="286" y="570"/>
      <point x="335" y="570" type="curve" smooth="yes"/>
      <point x="408" y="570"/>
      <point x="444" y="560"/>
      <point x="497" y="540" type="curve"/>
      <point x="517" y="540" type="line"/>
      <point x="517" y="580"/>
      <point x="517" y="627"/>
      <point x="517" y="680" type="curve" smooth="yes"/>
      <point x="517" y="683"/>
      <point x="517" y="685"/>
      <point x="515" y="687" type="curve" smooth="yes"/>
      <point x="505" y="697"/>
      <point x="433" y="720"/>
      <point x="357" y="720" type="curve" smooth="yes"/>
      <point x="240" y="720"/>
      <point x="230" y="642"/>
    </contour>
    <contour>
      <point x="50" y="401" type="curve" smooth="yes"/>
      <point x="50" y="258" type="line" smooth="yes"/>
      <point x="50" y="79"/>
      <point x="148" y="-21"/>
      <point x="308" y="-21" type="curve" smooth="yes"/>
      <point x="322" y="-21"/>
      <point x="335" y="1"/>
      <point x="302" y="121" type="curve"/>
      <point x="233" y="121"/>
      <point x="204" y="160"/>
      <point x="204" y="253" type="curve" smooth="yes"/>
      <point x="204" y="407" type="line" smooth="yes"/>
      <point x="204" y="528"/>
      <point x="243" y="570"/>
      <point x="335" y="570" type="curve"/>
      <point x="386" y="699"/>
      <point x="380" y="720"/>
      <point x="357" y="720" type="curve" smooth="yes"/>
      <point x="229" y="720"/>
      <point x="50" y="670"/>
    </contour>
    <contour>
      <point x="362" y="448" type="curve" smooth="yes"/>
      <point x="295" y="448"/>
      <point x="238" y="422"/>
      <point x="204" y="388" type="curve" smooth="yes"/>
      <point x="191" y="375"/>
      <point x="187" y="358"/>
      <point x="187" y="269" type="curve"/>
      <point x="225" y="300"/>
      <point x="267" y="314"/>
      <point x="314" y="314" type="curve" smooth="yes"/>
      <point x="380" y="314"/>
      <point x="408" y="291"/>
      <point x="408" y="237" type="curve" smooth="yes"/>
      <point x="408" y="220"/>
      <point x="408" y="204"/>
      <point x="408" y="194" type="curve"/>
      <point x="532" y="194"/>
      <point x="554" y="236"/>
      <point x="554" y="255" type="curve" smooth="yes"/>
      <point x="554" y="374"/>
      <point x="476" y="448"/>
    </contour>
  </outline>
</glyph>
<glyph name="colon" format="1">
  <advance width="600"/>
  <unicode hex="003A"/>
  <outline>
    <contour>
      <point x="400" y="350" type="curve"/>
      <point x="400" y="539" type="line" smooth="yes"/>
      <point x="400" y="545"/>
      <point x="395" y="550"/>
      <point x="389" y="550" type="curve" smooth="yes"/>
      <point x="326" y="550"/>
      <point x="263" y="550"/>
      <point x="200" y="550" type="curve"/>
      <point x="200" y="361" type="line" smooth="yes"/>
      <point x="200" y="355"/>
      <point x="205" y="350"/>
      <point x="211" y="350" type="curve" smooth="yes"/>
      <point x="274" y="350"/>
      <point x="337" y="350"/>
    </contour>
    <contour>
      <point x="400" y="-10" type="curve"/>
      <point x="400" y="179" type="line" smooth="yes"/>
      <point x="400" y="185"/>
      <point x="395" y="190"/>
      <point x="389" y="190" type="curve" smooth="yes"/>
      <point x="326" y="190"/>
      <point x="263" y="190"/>
      <point x="200" y="190" type="curve"/>
      <point x="200" y="1" type="line" smooth="yes"/>
      <point x="200" y="-5"/>
      <point x="205" y="-10"/>
      <point x="211" y="-10" type="curve" smooth="yes"/>
      <point x="274" y="-10"/>
      <point x="337" y="-10"/>
    </contour>
  </outline>
</glyph>
<glyph name="semicolon" format="1">
  <advance width="600"/>
  <unicode hex="003B"/>
  <outline>
    <contour>
      <point x="400" y="350" type="curve"/>
      <point x="400" y="539" type="line" smooth="yes"/>
      <point x="400" y="545"/>
      <point x="395" y="550"/>
      <point x="389" y="550" type="curve" smooth="yes"/>
      <point x="326" y="550"/>
      <point x="263" y="550"/>
      <point x="200" y="550" type="curve"/>
      <point x="200" y="361" type="line" smooth="yes"/>
      <point x="200" y="355"/>
      <point x="205" y="350"/>
      <point x="211" y="350" type="curve" smooth="yes"/>
      <point x="274" y="350"/>
      <point x="337" y="350"/>
    </contour>
    <contour>
      <point x="308" y="-240" type="curve" smooth="yes"/>
      <point x="313" y="-240"/>
      <point x="316" y="-239"/>
      <point x="318" y="-233" type="curve"/>
      <point x="359" y="-124"/>
      <point x="407" y="4"/>
      <point x="440" y="90" type="curve"/>
      <point x="443" y="98"/>
      <point x="440" y="103"/>
      <point x="432" y="103" type="curve" smooth="yes"/>
      <point x="361" y="103"/>
      <point x="319" y="103"/>
      <point x="236" y="103" type="curve"/>
      <point x="212" y="-11"/>
      <point x="188" y="-126"/>
      <point x="164" y="-240" type="curve"/>
      <point x="202" y="-240"/>
      <point x="245" y="-240"/>
    </contour>
  </outline>
</glyph>
<glyph name="greater" format="1">
  <advance width="600"/>
  <unicode hex="003E"/>
  <outline>
    <contour>
      <point x="80" y="158" type="curve"/>
      <point x="80" y="20" type="line"/>
      <point x="80" y="14"/>
      <point x="83" y="10"/>
      <point x="89" y="10" type="curve" smooth="yes"/>
      <point x="93" y="10"/>
      <point x="97" y="11"/>
      <point x="112" y="17" type="curve" smooth="yes"/>
      <point x="157" y="37"/>
      <point x="380" y="134"/>
      <point x="521" y="195" type="curve"/>
      <point x="521" y="374" type="line"/>
      <point x="504" y="348"/>
      <point x="483" y="329"/>
      <point x="420" y="302" type="curve"/>
      <point x="307" y="254"/>
      <point x="193" y="206"/>
    </contour>
    <contour>
      <point x="81" y="594" type="curve"/>
      <point x="81" y="546"/>
      <point x="81" y="503"/>
      <point x="81" y="455" type="curve" smooth="yes"/>
      <point x="81" y="445"/>
      <point x="82" y="442"/>
      <point x="93" y="437" type="curve" smooth="yes"/>
      <point x="181" y="400"/>
      <point x="274" y="360"/>
      <point x="362" y="323" type="curve" smooth="yes"/>
      <point x="372" y="319"/>
      <point x="375" y="314"/>
      <point x="375" y="304" type="curve" smooth="yes"/>
      <point x="375" y="283"/>
      <point x="375" y="257"/>
      <point x="375" y="219" type="curve"/>
      <point x="481" y="219"/>
      <point x="521" y="299"/>
      <point x="521" y="363" type="curve" smooth="yes"/>
      <point x="521" y="393" type="line" smooth="yes"/>
      <point x="521" y="403"/>
      <point x="516" y="411"/>
      <point x="506" y="414" type="curve" smooth="yes"/>
      <point x="364" y="474"/>
      <point x="223" y="534"/>
    </contour>
  </outline>
</glyph>
<glyph name="A" format="1">
  <advance width="600"/>
  <unicode hex="0041"/>
  <outline>
    <contour>
      <point x="186" y="0" type="curve"/>
      <point x="266" y="433"/>
      <point x="280" y="511"/>
      <point x="302" y="628" type="curve"/>
      <point x="308" y="660"/>
      <point x="329" y="681"/>
      <point x="421" y="700" type="curve"/>
      <point x="169" y="700" type="line"/>
      <point x="149" y="596"/>
      <point x="103" y="355"/>
      <point x="37" y="13" type="curve"/>
      <point x="35" y="3"/>
      <point x="41" y="0"/>
      <point x="45" y="0" type="curve" smooth="yes"/>
      <point x="92" y="0"/>
      <point x="139" y="0"/>
    </contour>
    <contour>
      <point x="566" y="0" type="curve"/>
      <point x="512" y="277"/>
      <point x="467" y="515"/>
      <point x="433" y="689" type="curve"/>
      <point x="432" y="694"/>
      <point x="431" y="695"/>
      <point x="429" y="697" type="curve" smooth="yes"/>
      <point x="426" y="700"/>
      <point x="425" y="700"/>
      <point x="421" y="700" type="curve"/>
      <point x="277" y="700"/>
      <point x="257" y="689"/>
      <point x="257" y="556" type="curve"/>
      <point x="273" y="556"/>
      <point x="294" y="556"/>
      <point x="306" y="556" type="curve" smooth="yes"/>
      <point x="310" y="556"/>
      <point x="313" y="555"/>
      <point x="314" y="550" type="curve"/>
      <point x="335" y="432"/>
      <point x="359" y="304"/>
      <point x="412" y="11" type="curve"/>
      <point x="413" y="6"/>
      <point x="414" y="4"/>
      <point x="415" y="3" type="curve" smooth="yes"/>
      <point x="417" y="1"/>
      <point x="419" y="0"/>
      <point x="423" y="0" type="curve" smooth="yes"/>
      <point x="471" y="0"/>
      <point x="518" y="0"/>
    </contour>
    <contour>
      <point x="147" y="292" type="line"/>
      <point x="147" y="161" type="line" smooth="yes"/>
      <point x="147" y="158"/>
      <point x="148" y="155"/>
      <point x="150" y="153" type="curve" smooth="yes"/>
      <point x="152" y="151"/>
      <point x="155" y="150"/>
      <point x="158" y="150" type="curve"/>
      <point x="467" y="150" type="line"/>
      <point x="467" y="288"/>
      <point x="462" y="292"/>
      <point x="456" y="292" type="curve" smooth="yes"/>
    </contour>
    <contour>
      <point x="300" y="711" type="move" name="top"/>
    </contour>
    <contour>
      <point x="567" y="0" type="move" name="ogonek"/>
    </contour>
    <contour>
      <point x="300" y="700" type="move" name="ring"/>
    </contour>
    <contour>
      <point x="300" y="-1" type="move" name="bottom"/>
    </contour>
  </outline>
</glyph>
<glyph name="E" format="1">
  <advance width="600"/>
  <unicode hex="0045"/>
  <outline>
    <contour>
      <point x="30" y="700" type="line"/>
      <point x="30" y="654"/>
      <point x="30" y="615"/>
      <point x="30" y="569" type="curve" smooth="yes"/>
      <point x="30" y="566"/>
      <point x="31" y="563"/>
      <point x="33" y="561" type="curve" smooth="yes"/>
      <point x="35" y="559"/>
      <point x="38" y="558"/>
      <point x="41" y="558" type="curve" smooth="yes"/>
      <point x="540" y="558" type="line"/>
      <point x="540" y="604"/>
      <point x="540" y="643"/>
      <point x="540" y="689" type="curve" smooth="yes"/>
      <point x="540" y="692"/>
      <point x="539" y="695"/>
      <point x="537" y="697" type="curve" smooth="yes"/>
      <point x="535" y="699"/>
      <point x="532" y="700"/>
      <point x="529" y="700" type="curve" smooth="yes"/>
    </contour>
    <contour>
      <point x="235" y="100" type="curve"/>
      <point x="235" y="639" type="line" smooth="yes"/>
      <point x="235" y="645"/>
      <point x="230" y="650"/>
      <point x="75" y="650" type="curve"/>
      <point x="75" y="142" type="line"/>
      <point x="75" y="121"/>
      <point x="105" y="100"/>
    </contour>
    <contour>
      <point x="75" y="142" type="line"/>
      <point x="75" y="11" type="line" smooth="yes"/>
      <point x="75" y="5"/>
      <point x="80" y="0"/>
      <point x="86" y="0" type="curve" smooth="yes"/>
      <point x="540" y="0" type="line"/>
      <point x="540" y="46"/>
      <point x="540" y="85"/>
      <point x="540" y="131" type="curve" smooth="yes"/>
      <point x="540" y="137"/>
      <point x="535" y="142"/>
      <point x="529" y="142" type="curve" smooth="yes"/>
    </contour>
    <contour>
      <point x="145" y="420" type="line"/>
      <point x="145" y="289"/>
      <point x="150" y="283"/>
      <point x="156" y="283" type="curve" smooth="yes"/>
      <point x="480" y="283" type="line"/>
      <point x="480" y="322"/>
      <point x="480" y="362"/>
      <point x="480" y="409" type="curve" smooth="yes"/>
      <point x="480" y="412"/>
      <point x="479" y="415"/>
      <point x="477" y="417" type="curve" smooth="yes"/>
      <point x="475" y="419"/>
      <point x="472" y="420"/>
      <point x="469" y="420" type="curve" smooth="yes"/>
    </contour>
    <contour>
      <point x="300" y="711" type="move" name="top"/>
    </contour>
    <contour>
      <point x="541" y="0" type="move" name="ogonek"/>
    </contour>
    <contour>
      <point x="320" y="-1" type="move" name="bottom"/>
    </contour>
  </outline>
</glyph>
<glyph name="F" format="1">
  <advance width="600"/>
  <unicode hex="0046"/>
  <outline>
    <contour>
      <point x="255" y="0" type="curve"/>
      <point x="255" y="28"/>
      <point x="255" y="62"/>
      <point x="255" y="98" type="curve" smooth="yes"/>
      <point x="255" y="632" type="line"/>
      <point x="255" y="643"/>
      <point x="242" y="649"/>
      <point x="95" y="649" type="curve"/>
      <point x="95" y="11" type="line" smooth="yes"/>
      <point x="95" y="5"/>
      <point x="100" y="0"/>
      <point x="106" y="0" type="curve" smooth="yes"/>
      <point x="156" y="0"/>
      <point x="205" y="0"/>
    </contour>
    <contour>
      <point x="50" y="700" type="line"/>
      <point x="50" y="654"/>
      <point x="50" y="615"/>
      <point x="50" y="569" type="curve" smooth="yes"/>
      <point x="50" y="566"/>
      <point x="51" y="563"/>
      <point x="53" y="561" type="curve" smooth="yes"/>
      <point x="55" y="559"/>
      <point x="58" y="558"/>
      <point x="61" y="558" type="curve"/>
      <point x="540" y="558" type="line"/>
      <point x="540" y="604"/>
      <point x="540" y="643"/>
      <point x="540" y="689" type="curve" smooth="yes"/>
      <point x="540" y="692"/>
      <point x="539" y="695"/>
      <point x="537" y="697" type="curve" smooth="yes"/>
      <point x="535" y="699"/>
      <point x="532" y="700"/>
      <point x="529" y="700" type="curve"/>
    </contour>
    <contour>
      <point x="165" y="390" type="line"/>
      <point x="165" y="266"/>
      <point x="167" y="250"/>
      <point x="176" y="250" type="curve"/>
      <point x="500" y="250" type="line"/>
      <point x="500" y="296"/>
      <point x="500" y="333"/>
      <point x="500" y="379" type="curve"/>
      <point x="500" y="382"/>
      <point x="499" y="385"/>
      <point x="497" y="387" type="curve" smooth="yes"/>
      <point x="495" y="389"/>
      <point x="492" y="390"/>
      <point x="489" y="390" type="curve"/>
    </contour>
  </outline>
</glyph>
<glyph name="G" format="1">
  <advance width="574"/>
  <unicode hex="0047"/>
  <outline>
    <contour>
      <point x="312" y="581" type="curve" smooth="yes"/>
      <point x="375" y="581"/>
      <point x="402" y="566"/>
      <point x="440" y="537" type="curve"/>
      <point x="516" y="615"/>
      <point x="521" y="628"/>
      <point x="521" y="639" type="curve" smooth="yes"/>
      <point x="521" y="650"/>
      <point x="520" y="653"/>
      <point x="515" y="658" type="curve" smooth="yes"/>
      <point x="483" y="690"/>
      <point x="418" y="720"/>
      <point x="318" y="720" type="curve" smooth="yes"/>
      <point x="151" y="720"/>
      <point x="50" y="630"/>
      <point x="50" y="462" type="curve" smooth="yes"/>
      <point x="50" y="245" type="line" smooth="yes"/>
      <point x="50" y="189"/>
      <point x="113" y="133"/>
      <point x="200" y="134" type="curve"/>
      <point x="200" y="169"/>
      <point x="200" y="194"/>
      <point x="200" y="243" type="curve" smooth="yes"/>
      <point x="200" y="463" type="line" smooth="yes"/>
      <point x="200" y="540"/>
      <point x="234" y="581"/>
    </contour>
    <contour>
      <point x="307" y="120" type="curve" smooth="yes"/>
      <point x="235" y="120"/>
      <point x="200" y="157"/>
      <point x="200" y="243" type="curve"/>
      <point x="76" y="268"/>
      <point x="50" y="255"/>
      <point x="50" y="245" type="curve" smooth="yes"/>
      <point x="50" y="79"/>
      <point x="136" y="-20"/>
      <point x="300" y="-20" type="curve" smooth="yes"/>
      <point x="454" y="-20"/>
      <point x="525" y="56"/>
      <point x="525" y="70" type="curve" smooth="yes"/>
      <point x="525" y="278" type="line" smooth="yes"/>
      <point x="525" y="298"/>
      <point x="425" y="306"/>
      <point x="385" y="306" type="curve"/>
      <point x="385" y="254"/>
      <point x="385" y="194"/>
      <point x="385" y="142" type="curve" smooth="yes"/>
      <point x="385" y="134"/>
      <point x="359" y="120"/>
    </contour>
    <contour>
      <point x="295" y="390" type="line"/>
      <point x="295" y="350"/>
      <point x="295" y="311"/>
      <point x="295" y="271" type="curve" smooth="yes"/>
      <point x="295" y="268"/>
      <point x="296" y="265"/>
      <point x="298" y="263" type="curve" smooth="yes"/>
      <point x="300" y="261"/>
      <point x="303" y="260"/>
      <point x="306" y="260" type="curve"/>
      <point x="560" y="260" type="line"/>
      <point x="560" y="379" type="line" smooth="yes"/>
      <point x="560" y="385"/>
      <point x="555" y="390"/>
      <point x="549" y="390" type="curve" smooth="yes"/>
    </contour>
    <contour>
      <point x="521" y="495" type="curve"/>
      <point x="521" y="639" type="line" smooth="yes"/>
      <point x="521" y="657"/>
      <point x="513" y="663"/>
      <point x="381" y="663" type="curve"/>
      <point x="381" y="646"/>
      <point x="381" y="619"/>
      <point x="381" y="603" type="curve" smooth="yes"/>
      <point x="381" y="506" type="line" smooth="yes"/>
      <point x="381" y="499"/>
      <point x="385" y="495"/>
      <point x="392" y="495" type="curve" smooth="yes"/>
      <point x="435" y="495"/>
      <point x="478" y="495"/>
    </contour>
    <contour>
      <point x="305" y="711" type="move" name="top"/>
    </contour>
    <contour>
      <point x="305" y="-1" type="move" name="bottom"/>
    </contour>
  </outline>
</glyph>
<glyph name="L" format="1">
  <advance width="600"/>
  <unicode hex="004C"/>
  <outline>
    <contour>
      <point x="230" y="100" type="curve"/>
      <point x="230" y="689" type="line" smooth="yes"/>
      <point x="230" y="692"/>
      <point x="229" y="695"/>
      <point x="227" y="697" type="curve" smooth="yes"/>
      <point x="225" y="699"/>
      <point x="222" y="700"/>
      <point x="219" y="700" type="curve" smooth="yes"/>
      <point x="169" y="700"/>
      <point x="120" y="700"/>
      <point x="70" y="700" type="curve"/>
      <point x="70" y="667"/>
      <point x="70" y="633"/>
      <point x="70" y="600" type="curve" smooth="yes"/>
      <point x="70" y="142" type="line" smooth="yes"/>
      <point x="70" y="136"/>
      <point x="75" y="100"/>
    </contour>
    <contour>
      <point x="70" y="142" type="line"/>
      <point x="70" y="11" type="line" smooth="yes"/>
      <point x="70" y="5"/>
      <point x="75" y="0"/>
      <point x="81" y="0" type="curve" smooth="yes"/>
      <point x="540" y="0" type="line"/>
      <point x="540" y="46"/>
      <point x="540" y="85"/>
      <point x="540" y="131" type="curve" smooth="yes"/>
      <point x="540" y="137"/>
      <point x="535" y="142"/>
      <point x="529" y="142" type="curve" smooth="yes"/>
    </contour>
    <contour>
      <point x="445" y="550" type="move" name="caronslovak"/>
    </contour>
    <contour>
      <point x="150" y="711" type="move" name="top"/>
    </contour>
    <contour>
      <point x="420" y="400" type="move" name="dot"/>
    </contour>
    <contour>
      <point x="305" y="-1" type="move" name="bottom"/>
    </contour>
  </outline>
</glyph>
<glyph name="M" format="1">
  <advance width="600"/>
  <unicode hex="004D"/>
  <outline>
    <contour>
      <point x="200" y="0" type="curve"/>
      <point x="200" y="54"/>
      <point x="200" y="109"/>
      <point x="200" y="163" type="curve" smooth="yes"/>
      <point x="200" y="201"/>
      <point x="160" y="566"/>
      <point x="160" y="690" type="curve" smooth="yes"/>
      <point x="160" y="693"/>
      <point x="159" y="695"/>
      <point x="157" y="697" type="curve" smooth="yes"/>
      <point x="155" y="699"/>
      <point x="152" y="700"/>
      <point x="149" y="700" type="curve" smooth="yes"/>
      <point x="116" y="700"/>
      <point x="72" y="700"/>
      <point x="50" y="700" type="curve"/>
      <point x="50" y="667"/>
      <point x="50" y="633"/>
      <point x="50" y="600" type="curve" smooth="yes"/>
      <point x="50" y="11" type="line" smooth="yes"/>
      <point x="50" y="8"/>
      <point x="51" y="5"/>
      <point x="53" y="3" type="curve" smooth="yes"/>
      <point x="55" y="1"/>
      <point x="58" y="0"/>
      <point x="61" y="0" type="curve" smooth="yes"/>
      <point x="107" y="0"/>
      <point x="154" y="0"/>
    </contour>
    <contour>
      <point x="550" y="0" type="curve"/>
      <point x="550" y="33"/>
      <point x="550" y="67"/>
      <point x="550" y="100" type="curve" smooth="yes"/>
      <point x="550" y="689" type="line" smooth="yes"/>
      <point x="550" y="692"/>
      <point x="549" y="695"/>
      <point x="547" y="697" type="curve" smooth="yes"/>
      <point x="545" y="699"/>
      <point x="542" y="700"/>
      <point x="539" y="700" type="curve" smooth="yes"/>
      <point x="440" y="700" type="line"/>
      <point x="440" y="696"/>
      <point x="440" y="693"/>
      <point x="440" y="689" type="curve" smooth="yes"/>
      <point x="440" y="552"/>
      <point x="400" y="200"/>
      <point x="400" y="163" type="curve" smooth="yes"/>
      <point x="400" y="112"/>
      <point x="400" y="62"/>
      <point x="400" y="11" type="curve" smooth="yes"/>
      <point x="400" y="8"/>
      <point x="401" y="5"/>
      <point x="403" y="3" type="curve" smooth="yes"/>
      <point x="405" y="1"/>
      <point x="408" y="0"/>
      <point x="411" y="0" type="curve"/>
      <point x="457" y="0"/>
      <point x="504" y="0"/>
    </contour>
    <contour>
      <point x="82" y="700" type="line"/>
      <point x="149" y="524"/>
      <point x="217" y="346"/>
      <point x="283" y="173" type="curve"/>
      <point x="286" y="166"/>
      <point x="291" y="165"/>
      <point x="295" y="165" type="curve"/>
      <point x="312" y="165"/>
      <point x="325" y="253"/>
      <point x="325" y="322" type="curve"/>
      <point x="281" y="447"/>
      <point x="239" y="568"/>
      <point x="196" y="691" type="curve"/>
      <point x="194" y="696"/>
      <point x="189" y="700"/>
      <point x="182" y="700" type="curve"/>
    </contour>
    <contour>
      <point x="440" y="700" type="curve" smooth="yes"/>
      <point x="430" y="700"/>
      <point x="419" y="700"/>
      <point x="409" y="700" type="curve"/>
      <point x="364" y="573"/>
      <point x="320" y="447"/>
      <point x="275" y="321" type="curve"/>
      <point x="261" y="280"/>
      <point x="274" y="165"/>
      <point x="295" y="165" type="curve"/>
      <point x="306" y="165" type="line"/>
      <point x="372" y="326"/>
      <point x="437" y="486"/>
      <point x="503" y="647" type="curve"/>
      <point x="515" y="677"/>
      <point x="491" y="700"/>
    </contour>
  </outline>
</glyph>
<glyph name="N" format="1">
  <advance width="600"/>
  <unicode hex="004E"/>
  <outline>
    <contour>
      <point x="210" y="0" type="curve"/>
      <point x="210" y="163" type="line"/>
      <point x="210" y="202"/>
      <point x="172" y="692"/>
      <point x="167" y="697" type="curve" smooth="yes"/>
      <point x="165" y="699"/>
      <point x="162" y="700"/>
      <point x="159" y="700" type="curve"/>
      <point x="126" y="700"/>
      <point x="65" y="700"/>
      <point x="60" y="700" type="curve"/>
      <point x="60" y="653"/>
      <point x="60" y="607"/>
      <point x="60" y="560" type="curve" smooth="yes"/>
      <point x="60" y="11" type="line"/>
      <point x="60" y="5"/>
      <point x="65" y="0"/>
      <point x="71" y="0" type="curve"/>
      <point x="117" y="0"/>
      <point x="164" y="0"/>
    </contour>
    <contour>
      <point x="540" y="0" type="line"/>
      <point x="540" y="689" type="line"/>
      <point x="540" y="695"/>
      <point x="535" y="700"/>
      <point x="529" y="700" type="curve"/>
      <point x="390" y="700" type="line"/>
      <point x="390" y="494" type="line"/>
      <point x="390" y="466"/>
      <point x="431" y="5"/>
      <point x="433" y="3" type="curve" smooth="yes"/>
      <point x="435" y="1"/>
      <point x="438" y="0"/>
      <point x="441" y="0" type="curve"/>
    </contour>
    <contour>
      <point x="159" y="700" type="line"/>
      <point x="69" y="700"/>
      <point x="78" y="689"/>
      <point x="84" y="676" type="curve" smooth="yes"/>
      <point x="189" y="454"/>
      <point x="294" y="230"/>
      <point x="399" y="8" type="curve"/>
      <point x="402" y="1"/>
      <point x="407" y="0"/>
      <point x="411" y="0" type="curve" smooth="yes"/>
      <point x="415" y="0"/>
      <point x="447" y="0"/>
      <point x="450" y="0" type="curve"/>
      <point x="465" y="0"/>
      <point x="461" y="102"/>
      <point x="461" y="157" type="curve"/>
      <point x="379" y="336"/>
      <point x="296" y="517"/>
      <point x="217" y="690" type="curve"/>
      <point x="213" y="699"/>
      <point x="211" y="700"/>
      <point x="199" y="700" type="curve"/>
    </contour>
    <contour>
      <point x="300" y="710" type="move" name="top"/>
    </contour>
    <contour>
      <point x="300" y="-1" type="move" name="bottom"/>
    </contour>
  </outline>
</glyph>
<glyph name="O" format="1">
  <advance width="600"/>
  <unicode hex="004F"/>
  <outline>
    <contour>
      <point x="295" y="720" type="curve" smooth="yes"/>
      <point x="156" y="720"/>
      <point x="55" y="625"/>
      <point x="55" y="458" type="curve" smooth="yes"/>
      <point x="55" y="236" type="line" smooth="yes"/>
      <point x="55" y="71"/>
      <point x="144" y="-20"/>
      <point x="304" y="-20" type="curve" smooth="yes"/>
      <point x="322" y="-20"/>
      <point x="339" y="0"/>
      <point x="300" y="122" type="curve"/>
      <point x="230" y="122"/>
      <point x="205" y="156"/>
      <point x="205" y="235" type="curve" smooth="yes"/>
      <point x="205" y="455" type="line" smooth="yes"/>
      <point x="205" y="544"/>
      <point x="244" y="578"/>
      <point x="299" y="578" type="curve" smooth="yes"/>
      <point x="359" y="578"/>
      <point x="388" y="578"/>
      <point x="408" y="578" type="curve"/>
      <point x="408" y="646"/>
      <point x="399" y="720"/>
    </contour>
    <contour>
      <point x="304" y="-20" type="curve" smooth="yes"/>
      <point x="443" y="-20"/>
      <point x="544" y="75"/>
      <point x="544" y="242" type="curve" smooth="yes"/>
      <point x="544" y="465" type="line" smooth="yes"/>
      <point x="544" y="630"/>
      <point x="455" y="720"/>
      <point x="295" y="720" type="curve" smooth="yes"/>
      <point x="277" y="720"/>
      <point x="260" y="700"/>
      <point x="299" y="578" type="curve"/>
      <point x="369" y="578"/>
      <point x="394" y="544"/>
      <point x="394" y="465" type="curve" smooth="yes"/>
      <point x="394" y="245" type="line" smooth="yes"/>
      <point x="394" y="156"/>
      <point x="355" y="122"/>
      <point x="300" y="122" type="curve" smooth="yes"/>
      <point x="240" y="122"/>
      <point x="211" y="122"/>
      <point x="191" y="122" type="curve"/>
      <point x="191" y="54"/>
      <point x="200" y="-20"/>
    </contour>
    <contour>
      <point x="300" y="711" type="move" name="top"/>
    </contour>
    <contour>
      <point x="414" y="10" type="move" name="ogonek"/>
    </contour>
    <contour>
      <point x="300" y="-1" type="move" name="bottom"/>
    </contour>
  </outline>
</glyph>
<glyph name="P" format="1">
  <advance width="600"/>
  <unicode hex="0050"/>
  <outline>
    <contour>
      <point x="230" y="0" type="curve"/>
      <point x="230" y="33"/>
      <point x="230" y="67"/>
      <point x="230" y="100" type="curve" smooth="yes"/>
      <point x="230" y="639" type="line" smooth="yes"/>
      <point x="230" y="645"/>
      <point x="225" y="650"/>
      <point x="75" y="650" type="curve"/>
      <point x="75" y="11" type="line" smooth="yes"/>
      <point x="75" y="8"/>
      <point x="76" y="5"/>
      <point x="78" y="3" type="curve" smooth="yes"/>
      <point x="80" y="1"/>
      <point x="83" y="0"/>
      <point x="86" y="0" type="curve" smooth="yes"/>
      <point x="134" y="0"/>
      <point x="182" y="0"/>
    </contour>
    <contour>
      <point x="40" y="700" type="curve"/>
      <point x="40" y="654"/>
      <point x="40" y="615"/>
      <point x="40" y="569" type="curve"/>
      <point x="40" y="566"/>
      <point x="41" y="563"/>
      <point x="43" y="561" type="curve" smooth="yes"/>
      <point x="45" y="559"/>
      <point x="48" y="558"/>
      <point x="51" y="558" type="curve" smooth="yes"/>
      <point x="71" y="558"/>
      <point x="93" y="558"/>
      <point x="115" y="558" type="curve" smooth="yes"/>
      <point x="181" y="558"/>
      <point x="254" y="558"/>
      <point x="310" y="558" type="curve" smooth="yes"/>
      <point x="360" y="558"/>
      <point x="385" y="558"/>
      <point x="412" y="558" type="curve"/>
      <point x="412" y="642"/>
      <point x="371" y="700"/>
      <point x="304" y="700" type="curve" smooth="yes"/>
      <point x="232" y="700"/>
      <point x="113" y="700"/>
    </contour>
    <contour>
      <point x="545" y="416" type="curve" smooth="yes"/>
      <point x="545" y="483" type="line" smooth="yes"/>
      <point x="545" y="615"/>
      <point x="480" y="700"/>
      <point x="304" y="700" type="curve"/>
      <point x="298" y="700"/>
      <point x="284" y="684"/>
      <point x="310" y="558" type="curve"/>
      <point x="366" y="558"/>
      <point x="385" y="540"/>
      <point x="385" y="482" type="curve" smooth="yes"/>
      <point x="385" y="416" type="line" smooth="yes"/>
      <point x="385" y="376"/>
      <point x="361" y="347"/>
      <point x="325" y="347" type="curve" smooth="yes"/>
      <point x="306" y="347"/>
      <point x="223" y="347"/>
      <point x="185" y="347" type="curve"/>
      <point x="185" y="300"/>
      <point x="185" y="272"/>
      <point x="185" y="216" type="curve" smooth="yes"/>
      <point x="185" y="210"/>
      <point x="190" y="205"/>
      <point x="196" y="205" type="curve" smooth="yes"/>
      <point x="334" y="205" type="line" smooth="yes"/>
      <point x="465" y="205"/>
      <point x="545" y="284"/>
    </contour>
  </outline>
</glyph>
<glyph name="Q" format="1">
  <advance width="600"/>
  <unicode hex="0051"/>
  <outline>
    <contour>
      <point x="295" y="720" type="curve" smooth="yes"/>
      <point x="156" y="720"/>
      <point x="55" y="625"/>
      <point x="55" y="458" type="curve" smooth="yes"/>
      <point x="55" y="236" type="line" smooth="yes"/>
      <point x="55" y="71"/>
      <point x="144" y="-20"/>
      <point x="304" y="-20" type="curve" smooth="yes"/>
      <point x="322" y="-20"/>
      <point x="339" y="0"/>
      <point x="300" y="122" type="curve"/>
      <point x="230" y="122"/>
      <point x="205" y="156"/>
      <point x="205" y="235" type="curve" smooth="yes"/>
      <point x="205" y="455" type="line" smooth="yes"/>
      <point x="205" y="544"/>
      <point x="244" y="578"/>
      <point x="299" y="578" type="curve" smooth="yes"/>
      <point x="359" y="578"/>
      <point x="388" y="578"/>
      <point x="408" y="578" type="curve"/>
      <point x="408" y="646"/>
      <point x="399" y="720"/>
    </contour>
    <contour>
      <point x="304" y="-20" type="curve" smooth="yes"/>
      <point x="443" y="-20"/>
      <point x="544" y="75"/>
      <point x="544" y="242" type="curve" smooth="yes"/>
      <point x="544" y="465" type="line" smooth="yes"/>
      <point x="544" y="630"/>
      <point x="455" y="720"/>
      <point x="295" y="720" type="curve" smooth="yes"/>
      <point x="277" y="720"/>
      <point x="260" y="700"/>
      <point x="299" y="578" type="curve"/>
      <point x="369" y="578"/>
      <point x="394" y="544"/>
      <point x="394" y="465" type="curve" smooth="yes"/>
      <point x="394" y="245" type="line" smooth="yes"/>
      <point x="394" y="156"/>
      <point x="355" y="122"/>
      <point x="300" y="122" type="curve" smooth="yes"/>
      <point x="240" y="122"/>
      <point x="211" y="122"/>
      <point x="191" y="122" type="curve"/>
      <point x="191" y="54"/>
      <point x="200" y="-20"/>
    </contour>
    <contour>
      <point x="441" y="127" type="line"/>
      <point x="314" y="78"/>
      <point x="299" y="69"/>
      <point x="313" y="46" type="curve" smooth="yes"/>
      <point x="388" y="-77" type="line" smooth="yes"/>
      <point x="424" y="-137"/>
      <point x="453" y="-160"/>
      <point x="528" y="-160" type="curve" smooth="yes"/>
      <point x="559" y="-160" type="line" smooth="yes"/>
      <point x="566" y="-160"/>
      <point x="570" y="-156"/>
      <point x="570" y="-149" type="curve" smooth="yes"/>
      <point x="570" y="-100"/>
      <point x="570" y="-50"/>
      <point x="570" y="0" type="curve"/>
      <point x="565" y="0" type="line"/>
      <point x="559" y="0"/>
      <point x="556" y="0"/>
      <point x="550" y="0" type="curve" smooth="yes"/>
      <point x="520" y="0"/>
      <point x="510" y="3"/>
      <point x="497" y="27" type="curve" smooth="yes"/>
    </contour>
  </outline>
</glyph>
<glyph name="S" format="1">
  <advance width="600"/>
  <unicode hex="0053"/>
  <outline>
    <contour>
      <point x="319" y="720" type="curve" smooth="yes"/>
      <point x="171" y="720"/>
      <point x="67" y="632"/>
      <point x="67" y="523" type="curve" smooth="yes"/>
      <point x="67" y="477" type="line" smooth="yes"/>
      <point x="67" y="450"/>
      <point x="137" y="416"/>
      <point x="214" y="416" type="curve"/>
      <point x="214" y="445"/>
      <point x="214" y="488"/>
      <point x="214" y="516" type="curve" smooth="yes"/>
      <point x="214" y="564"/>
      <point x="250" y="582"/>
      <point x="322" y="582" type="curve" smooth="yes"/>
      <point x="364" y="582"/>
      <point x="431" y="569"/>
      <point x="473" y="551" type="curve"/>
      <point x="519" y="641"/>
      <point x="521" y="647"/>
      <point x="521" y="657" type="curve" smooth="yes"/>
      <point x="521" y="668"/>
      <point x="520" y="671"/>
      <point x="515" y="676" type="curve" smooth="yes"/>
      <point x="495" y="696"/>
      <point x="423" y="720"/>
    </contour>
    <contour>
      <point x="386" y="399" type="curve" smooth="yes"/>
      <point x="291" y="428" type="line" smooth="yes"/>
      <point x="225" y="448"/>
      <point x="214" y="462"/>
      <point x="214" y="498" type="curve" smooth="yes"/>
      <point x="214" y="520"/>
      <point x="214" y="533"/>
      <point x="214" y="567" type="curve"/>
      <point x="136" y="566"/>
      <point x="67" y="562"/>
      <point x="67" y="477" type="curve" smooth="yes"/>
      <point x="67" y="419"/>
      <point x="96" y="342"/>
      <point x="230" y="301" type="curve" smooth="yes"/>
      <point x="324" y="272" type="line" smooth="yes"/>
      <point x="393" y="251"/>
      <point x="399" y="236"/>
      <point x="399" y="209" type="curve" smooth="yes"/>
      <point x="399" y="183"/>
      <point x="399" y="134"/>
      <point x="399" y="96" type="curve"/>
      <point x="465" y="96"/>
      <point x="546" y="160"/>
      <point x="546" y="220" type="curve"/>
      <point x="546" y="299"/>
      <point x="511" y="361"/>
    </contour>
    <contour>
      <point x="279" y="-20" type="curve" smooth="yes"/>
      <point x="446" y="-20"/>
      <point x="546" y="62"/>
      <point x="546" y="177" type="curve" smooth="yes"/>
      <point x="546" y="220" type="line" smooth="yes"/>
      <point x="546" y="238"/>
      <point x="484" y="258"/>
      <point x="399" y="258" type="curve"/>
      <point x="399" y="226"/>
      <point x="399" y="206"/>
      <point x="399" y="181" type="curve" smooth="yes"/>
      <point x="399" y="153"/>
      <point x="369" y="125"/>
      <point x="290" y="125" type="curve" smooth="yes"/>
      <point x="200" y="125"/>
      <point x="140" y="144"/>
      <point x="80" y="183" type="curve"/>
      <point x="60" y="183" type="line"/>
      <point x="60" y="154"/>
      <point x="60" y="99"/>
      <point x="60" y="42" type="curve" smooth="yes"/>
      <point x="60" y="40"/>
      <point x="61" y="36"/>
      <point x="63" y="34" type="curve" smooth="yes"/>
      <point x="97" y="0"/>
      <point x="182" y="-20"/>
    </contour>
    <contour>
      <point x="521" y="505" type="curve"/>
      <point x="521" y="657" type="line" smooth="yes"/>
      <point x="521" y="670"/>
      <point x="508" y="672"/>
      <point x="376" y="672" type="curve"/>
      <point x="376" y="658"/>
      <point x="376" y="638"/>
      <point x="376" y="617" type="curve" smooth="yes"/>
      <point x="376" y="516" type="line" smooth="yes"/>
      <point x="376" y="509"/>
      <point x="378" y="508"/>
      <point x="379" y="507" type="curve" smooth="yes"/>
      <point x="380" y="506"/>
      <point x="382" y="505"/>
      <point x="386" y="505" type="curve" smooth="yes"/>
      <point x="431" y="505"/>
      <point x="476" y="505"/>
    </contour>
    <contour>
      <point x="319" y="711" type="move" name="top"/>
    </contour>
    <contour>
      <point x="303" y="-1" type="move" name="bottom"/>
    </contour>
  </outline>
</glyph>
<glyph name="T" format="1">
  <advance width="600"/>
  <unicode hex="0054"/>
  <outline>
    <contour>
      <point x="50" y="700" type="line"/>
      <point x="50" y="657"/>
      <point x="50" y="612"/>
      <point x="50" y="569" type="curve" smooth="yes"/>
      <point x="50" y="566"/>
      <point x="51" y="563"/>
      <point x="53" y="561" type="curve" smooth="yes"/>
      <point x="55" y="559"/>
      <point x="58" y="558"/>
      <point x="61" y="558" type="curve" smooth="yes"/>
      <point x="550" y="558" type="line"/>
      <point x="550" y="601"/>
      <point x="550" y="646"/>
      <point x="550" y="689" type="curve" smooth="yes"/>
      <point x="550" y="695"/>
      <point x="545" y="700"/>
      <point x="539" y="700" type="curve" smooth="yes"/>
    </contour>
    <contour>
      <point x="380" y="0" type="curve"/>
      <point x="380" y="33"/>
      <point x="380" y="67"/>
      <point x="380" y="100" type="curve" smooth="yes"/>
      <point x="380" y="639" type="line" smooth="yes"/>
      <point x="380" y="645"/>
      <point x="375" y="650"/>
      <point x="220" y="650" type="curve"/>
      <point x="220" y="11" type="line" smooth="yes"/>
      <point x="220" y="8"/>
      <point x="221" y="5"/>
      <point x="223" y="3" type="curve" smooth="yes"/>
      <point x="225" y="1"/>
      <point x="228" y="0"/>
      <point x="231" y="0" type="curve" smooth="yes"/>
      <point x="281" y="0"/>
      <point x="330" y="0"/>
    </contour>
    <contour>
      <point x="300" y="711" type="move" name="top"/>
    </contour>
    <contour>
      <point x="300" y="-1" type="move" name="bottom"/>
    </contour>
  </outline>
</glyph>
<glyph name="V" format="1">
  <advance width="600"/>
  <unicode hex="0056"/>
  <outline>
    <contour>
      <point x="176" y="700" type="curve"/>
      <point x="35" y="700" type="line"/>
      <point x="82" y="472"/>
      <point x="130" y="243"/>
      <point x="177" y="15" type="curve" smooth="yes"/>
      <point x="179" y="5"/>
      <point x="188" y="0"/>
      <point x="198" y="0" type="curve" smooth="yes"/>
      <point x="237" y="0" type="line" smooth="yes"/>
      <point x="286" y="0"/>
      <point x="367" y="40"/>
      <point x="367" y="136" type="curve"/>
      <point x="340" y="136"/>
      <point x="326" y="136"/>
      <point x="303" y="136" type="curve" smooth="yes"/>
      <point x="297" y="136"/>
      <point x="295" y="138"/>
      <point x="294" y="145" type="curve"/>
      <point x="260" y="324"/>
      <point x="227" y="504"/>
      <point x="193" y="683" type="curve"/>
      <point x="191" y="694"/>
      <point x="185" y="700"/>
    </contour>
    <contour>
      <point x="547" y="700" type="curve"/>
      <point x="410" y="700" type="line"/>
      <point x="372" y="494"/>
      <point x="334" y="287"/>
      <point x="299" y="98" type="curve"/>
      <point x="287" y="32"/>
      <point x="250" y="11"/>
      <point x="219" y="0" type="curve"/>
      <point x="421" y="0" type="line"/>
      <point x="467" y="227"/>
      <point x="514" y="454"/>
      <point x="560" y="681" type="curve"/>
      <point x="562" y="691"/>
      <point x="558" y="700"/>
    </contour>
  </outline>
</glyph>
<glyph name="Z" format="1">
  <advance width="600"/>
  <unicode hex="005A"/>
  <outline>
    <contour>
      <point x="100" y="700" type="line"/>
      <point x="100" y="654"/>
      <point x="100" y="615"/>
      <point x="100" y="569" type="curve" smooth="yes"/>
      <point x="100" y="566"/>
      <point x="101" y="563"/>
      <point x="103" y="561" type="curve" smooth="yes"/>
      <point x="105" y="559"/>
      <point x="108" y="558"/>
      <point x="111" y="558" type="curve" smooth="yes"/>
      <point x="365" y="558" type="line" smooth="yes"/>
      <point x="416" y="558"/>
      <point x="485" y="561"/>
      <point x="536" y="571" type="curve" smooth="yes"/>
      <point x="541" y="572"/>
      <point x="546" y="573"/>
      <point x="550" y="574" type="curve"/>
      <point x="550" y="689" type="line" smooth="yes"/>
      <point x="550" y="695"/>
      <point x="545" y="700"/>
      <point x="539" y="700" type="curve" smooth="yes"/>
    </contour>
    <contour>
      <point x="390" y="606" type="curve"/>
      <point x="277" y="447"/>
      <point x="163" y="285"/>
      <point x="50" y="126" type="curve"/>
      <point x="189" y="81"/>
      <point x="201" y="86"/>
      <point x="209" y="97" type="curve" smooth="yes"/>
      <point x="417" y="384"/>
      <point x="550" y="572"/>
      <point x="550" y="574" type="curve"/>
      <point x="415" y="619"/>
      <point x="399" y="619"/>
    </contour>
    <contour>
      <point x="555" y="0" type="line"/>
      <point x="555" y="46"/>
      <point x="555" y="85"/>
      <point x="555" y="131" type="curve" smooth="yes"/>
      <point x="555" y="134"/>
      <point x="554" y="137"/>
      <point x="552" y="139" type="curve" smooth="yes"/>
      <point x="550" y="141"/>
      <point x="547" y="142"/>
      <point x="544" y="142" type="curve" smooth="yes"/>
      <point x="239" y="142" type="line" smooth="yes"/>
      <point x="183" y="142"/>
      <point x="105" y="141"/>
      <point x="50" y="126" type="curve"/>
      <point x="50" y="11" type="line" smooth="yes"/>
      <point x="50" y="5"/>
      <point x="55" y="0"/>
      <point x="61" y="0" type="curve" smooth="yes"/>
    </contour>
    <contour>
      <point x="200" y="500" type="curve"/>
      <point x="200" y="563"/>
      <point x="200" y="625"/>
      <point x="200" y="689" type="curve"/>
      <point x="200" y="697"/>
      <point x="197" y="700"/>
      <point x="189" y="700" type="curve" smooth="yes"/>
      <point x="50" y="700" type="line"/>
      <point x="50" y="636"/>
      <point x="50" y="574"/>
      <point x="50" y="511" type="curve"/>
      <point x="50" y="505"/>
      <point x="55" y="500"/>
      <point x="61" y="500" type="curve" smooth="yes"/>
      <point x="107" y="500"/>
      <point x="154" y="500"/>
    </contour>
    <contour>
      <point x="300" y="711" type="move" name="top"/>
    </contour>
  </outline>
</glyph>
<glyph name="bracketright" format="1">
  <advance width="600"/>
  <unicode hex="005D"/>
  <outline>
    <contour>
      <point x="395" y="-23" type="curve" smooth="yes"/>
      <point x="395" y="609" type="line" smooth="yes"/>
      <point x="395" y="619"/>
      <point x="360" y="620"/>
      <point x="235" y="620" type="curve"/>
      <point x="235" y="-119" type="line" smooth="yes"/>
      <point x="235" y="-125"/>
      <point x="243" y="-130"/>
      <point x="270" y="-130" type="curve" smooth="yes"/>
      <point x="320" y="-130"/>
      <point x="345" y="-130"/>
      <point x="395" y="-130" type="curve"/>
      <point x="395" y="-94"/>
      <point x="395" y="-59"/>
    </contour>
    <contour>
      <point x="80" y="12" type="line"/>
      <point x="80" y="-34"/>
      <point x="80" y="-73"/>
      <point x="80" y="-119" type="curve" smooth="yes"/>
      <point x="80" y="-122"/>
      <point x="81" y="-125"/>
      <point x="83" y="-127" type="curve" smooth="yes"/>
      <point x="85" y="-129"/>
      <point x="88" y="-130"/>
      <point x="91" y="-130" type="curve" smooth="yes"/>
      <point x="270" y="-130" type="line"/>
      <point x="270" y="8"/>
      <point x="264" y="12"/>
      <point x="259" y="12" type="curve"/>
    </contour>
    <contour>
      <point x="80" y="750" type="line"/>
      <point x="80" y="704"/>
      <point x="80" y="665"/>
      <point x="80" y="619" type="curve" smooth="yes"/>
      <point x="80" y="613"/>
      <point x="85" y="608"/>
      <point x="91" y="608" type="curve" smooth="yes"/>
      <point x="395" y="608" type="line"/>
      <point x="395" y="739" type="line" smooth="yes"/>
      <point x="395" y="745"/>
      <point x="390" y="750"/>
      <point x="384" y="750" type="curve" smooth="yes"/>
    </contour>
  </outline>
</glyph>
<glyph name="asciicircum" format="1">
  <advance width="600"/>
  <unicode hex="005E"/>
  <outline>
    <contour>
      <point x="177" y="355" type="line"/>
      <point x="225" y="468"/>
      <point x="254" y="536"/>
      <point x="302" y="649" type="curve"/>
      <point x="329" y="712"/>
      <point x="341" y="728"/>
      <point x="369" y="750" type="curve"/>
      <point x="195" y="750" type="line"/>
      <point x="134" y="609"/>
      <point x="56" y="432"/>
      <point x="36" y="387" type="curve" smooth="yes"/>
      <point x="30" y="372"/>
      <point x="29" y="368"/>
      <point x="29" y="364" type="curve" smooth="yes"/>
      <point x="29" y="358"/>
      <point x="33" y="355"/>
      <point x="39" y="355" type="curve"/>
    </contour>
    <contour>
      <point x="573" y="356" type="curve"/>
      <point x="513" y="498"/>
      <point x="474" y="593"/>
      <point x="414" y="735" type="curve" smooth="yes"/>
      <point x="411" y="745"/>
      <point x="403" y="750"/>
      <point x="393" y="750" type="curve" smooth="yes"/>
      <point x="360" y="750" type="line" smooth="yes"/>
      <point x="296" y="750"/>
      <point x="219" y="708"/>
      <point x="219" y="604" type="curve"/>
      <point x="257" y="604"/>
      <point x="283" y="604"/>
      <point x="304" y="604" type="curve" smooth="yes"/>
      <point x="314" y="604"/>
      <point x="319" y="601"/>
      <point x="323" y="591" type="curve" smooth="yes"/>
      <point x="360" y="503"/>
      <point x="379" y="456"/>
      <point x="416" y="368" type="curve" smooth="yes"/>
      <point x="421" y="357"/>
      <point x="424" y="356"/>
      <point x="434" y="356" type="curve" smooth="yes"/>
      <point x="482" y="356"/>
      <point x="525" y="356"/>
    </contour>
  </outline>
</glyph>
<glyph name="b" format="1">
  <advance width="600"/>
  <unicode hex="0062"/>
  <outline>
    <contour>
      <point x="70" y="0" type="line"/>
      <point x="95" y="0"/>
      <point x="120" y="0"/>
      <point x="145" y="0" type="curve" smooth="yes"/>
      <point x="160" y="0"/>
      <point x="225" y="90"/>
      <point x="225" y="111" type="curve" smooth="yes"/>
      <point x="225" y="739" type="line"/>
      <point x="225" y="745"/>
      <point x="220" y="750"/>
      <point x="214" y="750" type="curve" smooth="yes"/>
      <point x="166" y="750"/>
      <point x="118" y="750"/>
      <point x="70" y="750" type="curve"/>
      <point x="70" y="701"/>
      <point x="70" y="652"/>
      <point x="70" y="603" type="curve" smooth="yes"/>
    </contour>
    <contour>
      <point x="390" y="552" type="curve" smooth="yes"/>
      <point x="333" y="552"/>
      <point x="275" y="530"/>
      <point x="224" y="479" type="curve" smooth="yes"/>
      <point x="167" y="422"/>
      <point x="157" y="373"/>
      <point x="177" y="341" type="curve"/>
      <point x="242" y="387"/>
      <point x="286" y="402"/>
      <point x="337" y="402" type="curve" smooth="yes"/>
      <point x="371" y="402"/>
      <point x="390" y="385"/>
      <point x="390" y="341" type="curve"/>
      <point x="464" y="341"/>
      <point x="545" y="353"/>
      <point x="545" y="364" type="curve" smooth="yes"/>
      <point x="545" y="477"/>
      <point x="483" y="552"/>
    </contour>
    <contour>
      <point x="353" y="-10" type="curve" smooth="yes"/>
      <point x="476" y="-10"/>
      <point x="545" y="77"/>
      <point x="545" y="227" type="curve" smooth="yes"/>
      <point x="545" y="364" type="line" smooth="yes"/>
      <point x="545" y="431"/>
      <point x="485" y="481"/>
      <point x="405" y="481" type="curve"/>
      <point x="372" y="481"/>
      <point x="353" y="467"/>
      <point x="353" y="442" type="curve"/>
      <point x="378" y="412"/>
      <point x="390" y="395"/>
      <point x="390" y="341" type="curve" smooth="yes"/>
      <point x="390" y="209" type="line" smooth="yes"/>
      <point x="390" y="161"/>
      <point x="367" y="135"/>
      <point x="326" y="135" type="curve" smooth="yes"/>
      <point x="286" y="135"/>
      <point x="233" y="152"/>
      <point x="188" y="195" type="curve"/>
      <point x="185" y="185"/>
      <point x="173" y="149"/>
      <point x="173" y="134" type="curve" smooth="yes"/>
      <point x="173" y="57"/>
      <point x="261" y="-10"/>
    </contour>
  </outline>
</glyph>
<glyph name="d" format="1">
  <advance width="600"/>
  <unicode hex="0064"/>
  <outline>
    <contour>
      <point x="235" y="552" type="curve" smooth="yes"/>
      <point x="124" y="552"/>
      <point x="55" y="473"/>
      <point x="55" y="338" type="curve" smooth="yes"/>
      <point x="55" y="177" type="line" smooth="yes"/>
      <point x="55" y="111"/>
      <point x="115" y="61"/>
      <point x="195" y="61" type="curve" smooth="yes"/>
      <point x="228" y="61"/>
      <point x="247" y="75"/>
      <point x="247" y="100" type="curve"/>
      <point x="225" y="126"/>
      <point x="210" y="137"/>
      <point x="210" y="180" type="curve" smooth="yes"/>
      <point x="210" y="338" type="line" smooth="yes"/>
      <point x="210" y="383"/>
      <point x="233" y="407"/>
      <point x="274" y="407" type="curve" smooth="yes"/>
      <point x="310" y="407"/>
      <point x="356" y="391"/>
      <point x="397" y="352" type="curve"/>
      <point x="410" y="364"/>
      <point x="411" y="400"/>
      <point x="411" y="416" type="curve" smooth="yes"/>
      <point x="411" y="476"/>
      <point x="328" y="552"/>
    </contour>
    <contour>
      <point x="205" y="-10" type="curve" smooth="yes"/>
      <point x="267" y="-10"/>
      <point x="326" y="18"/>
      <point x="376" y="80" type="curve" smooth="yes"/>
      <point x="423" y="138"/>
      <point x="428" y="188"/>
      <point x="408" y="217" type="curve"/>
      <point x="339" y="156"/>
      <point x="298" y="133"/>
      <point x="254" y="133" type="curve" smooth="yes"/>
      <point x="224" y="133"/>
      <point x="210" y="145"/>
      <point x="210" y="180" type="curve"/>
      <point x="134" y="210"/>
      <point x="55" y="179"/>
      <point x="55" y="177" type="curve" smooth="yes"/>
      <point x="55" y="65"/>
      <point x="117" y="-10"/>
    </contour>
    <contour>
      <point x="375" y="750" type="curve"/>
      <point x="375" y="717"/>
      <point x="375" y="683"/>
      <point x="375" y="650" type="curve" smooth="yes"/>
      <point x="375" y="11" type="line"/>
      <point x="375" y="8"/>
      <point x="376" y="5"/>
      <point x="378" y="3" type="curve" smooth="yes"/>
      <point x="380" y="1"/>
      <point x="383" y="0"/>
      <point x="386" y="0" type="curve" smooth="yes"/>
      <point x="434" y="0"/>
      <point x="482" y="0"/>
      <point x="530" y="0" type="curve"/>
      <point x="530" y="50"/>
      <point x="530" y="99"/>
      <point x="530" y="149" type="curve" smooth="yes"/>
      <point x="530" y="739" type="line"/>
      <point x="530" y="742"/>
      <point x="529" y="745"/>
      <point x="527" y="747" type="curve" smooth="yes"/>
      <point x="525" y="749"/>
      <point x="522" y="750"/>
      <point x="519" y="750" type="curve" smooth="yes"/>
      <point x="471" y="750"/>
      <point x="423" y="750"/>
    </contour>
    <contour>
      <point x="442" y="711" type="move" name="caronslovak"/>
    </contour>
  </outline>
</glyph>
<glyph name="h" format="1">
  <advance width="600"/>
  <unicode hex="0068"/>
  <outline>
    <contour>
      <point x="230" y="0" type="curve"/>
      <point x="230" y="739" type="line" smooth="yes"/>
      <point x="230" y="742"/>
      <point x="229" y="745"/>
      <point x="227" y="747" type="curve" smooth="yes"/>
      <point x="225" y="749"/>
      <point x="222" y="750"/>
      <point x="219" y="750" type="curve" smooth="yes"/>
      <point x="174" y="750"/>
      <point x="125" y="750"/>
      <point x="70" y="750" type="curve"/>
      <point x="70" y="722"/>
      <point x="70" y="688"/>
      <point x="70" y="652" type="curve" smooth="yes"/>
      <point x="70" y="11" type="line" smooth="yes"/>
      <point x="70" y="5"/>
      <point x="75" y="0"/>
      <point x="81" y="0" type="curve" smooth="yes"/>
      <point x="131" y="0"/>
      <point x="180" y="0"/>
    </contour>
    <contour>
      <point x="395" y="552" type="curve" smooth="yes"/>
      <point x="345" y="552"/>
      <point x="288" y="529"/>
      <point x="227" y="451" type="curve" smooth="yes"/>
      <point x="200" y="418"/>
      <point x="163" y="363"/>
      <point x="187" y="293" type="curve"/>
      <point x="255" y="369"/>
      <point x="295" y="392"/>
      <point x="338" y="392" type="curve" smooth="yes"/>
      <point x="360" y="392"/>
      <point x="370" y="381"/>
      <point x="370" y="358" type="curve"/>
      <point x="507" y="358"/>
      <point x="530" y="380"/>
      <point x="530" y="401" type="curve" smooth="yes"/>
      <point x="530" y="484"/>
      <point x="478" y="552"/>
    </contour>
    <contour>
      <point x="530" y="0" type="curve"/>
      <point x="530" y="28"/>
      <point x="530" y="62"/>
      <point x="530" y="98" type="curve" smooth="yes"/>
      <point x="530" y="401" type="line"/>
      <point x="530" y="450"/>
      <point x="431" y="463"/>
      <point x="370" y="418" type="curve"/>
      <point x="370" y="402"/>
      <point x="370" y="384"/>
      <point x="370" y="358" type="curve" smooth="yes"/>
      <point x="370" y="11" type="line" smooth="yes"/>
      <point x="370" y="5"/>
      <point x="375" y="0"/>
      <point x="381" y="0" type="curve" smooth="yes"/>
      <point x="431" y="0"/>
      <point x="480" y="0"/>
    </contour>
    <contour>
      <point x="140" y="730" type="move" name="top"/>
    </contour>
  </outline>
</glyph>
<glyph name="l" format="1">
  <advance width="600"/>
  <unicode hex="006C"/>
  <outline>
    <contour>
      <point x="80" y="750" type="curve"/>
      <point x="80" y="704"/>
      <point x="80" y="665"/>
      <point x="80" y="619" type="curve" smooth="yes"/>
      <point x="80" y="613"/>
      <point x="85" y="608"/>
      <point x="91" y="608" type="curve" smooth="yes"/>
      <point x="149" y="608"/>
      <point x="197" y="608"/>
      <point x="255" y="608" type="curve"/>
      <point x="255" y="727"/>
      <point x="251" y="750"/>
      <point x="240" y="750" type="curve" smooth="yes"/>
      <point x="183" y="750"/>
      <point x="137" y="750"/>
    </contour>
    <contour>
      <point x="387" y="747" type="curve" smooth="yes"/>
      <point x="385" y="749"/>
      <point x="382" y="750"/>
      <point x="379" y="750" type="curve" smooth="yes"/>
      <point x="240" y="750" type="line"/>
      <point x="240" y="96" type="line" smooth="yes"/>
      <point x="240" y="72"/>
      <point x="309" y="67"/>
      <point x="390" y="67" type="curve"/>
      <point x="390" y="739" type="line" smooth="yes"/>
      <point x="390" y="742"/>
      <point x="389" y="745"/>
    </contour>
    <contour>
      <point x="60" y="142" type="line"/>
      <point x="60" y="96"/>
      <point x="60" y="57"/>
      <point x="60" y="11" type="curve" smooth="yes"/>
      <point x="60" y="8"/>
      <point x="61" y="5"/>
      <point x="63" y="3" type="curve" smooth="yes"/>
      <point x="65" y="1"/>
      <point x="68" y="0"/>
      <point x="71" y="0" type="curve"/>
      <point x="540" y="0" type="line"/>
      <point x="540" y="46"/>
      <point x="540" y="85"/>
      <point x="540" y="131" type="curve" smooth="yes"/>
      <point x="540" y="137"/>
      <point x="535" y="142"/>
      <point x="529" y="142" type="curve"/>
    </contour>
    <contour>
      <point x="525" y="671" type="move" name="caronslovak"/>
    </contour>
    <contour>
      <point x="300" y="730" type="move" name="top"/>
    </contour>
    <contour>
      <point x="500" y="400" type="move" name="dot"/>
    </contour>
    <contour>
      <point x="300" y="-1" type="move" name="bottom"/>
    </contour>
  </outline>
</glyph>
<glyph name="m" format="1">
  <advance width="600"/>
  <unicode hex="006D"/>
  <outline>
    <contour>
      <point x="160" y="0" type="curve"/>
      <point x="160" y="442" type="line" smooth="yes"/>
      <point x="160" y="490"/>
      <point x="140" y="533"/>
      <point x="137" y="536" type="curve" smooth="yes"/>
      <point x="133" y="540"/>
      <point x="129" y="540"/>
      <point x="125" y="540" type="curve" smooth="yes"/>
      <point x="94" y="540"/>
      <point x="61" y="540"/>
      <point x="30" y="540" type="curve"/>
      <point x="30" y="507"/>
      <point x="30" y="473"/>
      <point x="30" y="440" type="curve" smooth="yes"/>
      <point x="30" y="11" type="line" smooth="yes"/>
      <point x="30" y="5"/>
      <point x="35" y="0"/>
      <point x="41" y="0" type="curve" smooth="yes"/>
      <point x="80" y="0"/>
      <point x="121" y="0"/>
    </contour>
    <contour>
      <point x="271" y="552" type="curve" smooth="yes"/>
      <point x="234" y="552"/>
      <point x="208" y="540"/>
      <point x="179" y="512" type="curve" smooth="yes"/>
      <point x="149" y="483"/>
      <point x="111" y="418"/>
      <point x="111" y="352" type="curve"/>
      <point x="144" y="385"/>
      <point x="184" y="392"/>
      <point x="213" y="392" type="curve" smooth="yes"/>
      <point x="229" y="392"/>
      <point x="240" y="387"/>
      <point x="240" y="362" type="curve"/>
      <point x="358" y="437"/>
      <point x="360" y="450"/>
      <point x="360" y="455" type="curve" smooth="yes"/>
      <point x="360" y="514"/>
      <point x="321" y="552"/>
    </contour>
    <contour>
      <point x="360" y="0" type="curve"/>
      <point x="360" y="455" type="line" smooth="yes"/>
      <point x="360" y="498"/>
      <point x="303" y="448"/>
      <point x="229" y="399" type="curve"/>
      <point x="236" y="390"/>
      <point x="240" y="386"/>
      <point x="240" y="362" type="curve" smooth="yes"/>
      <point x="240" y="11" type="line" smooth="yes"/>
      <point x="240" y="5"/>
      <point x="245" y="0"/>
      <point x="251" y="0" type="curve" smooth="yes"/>
      <point x="287" y="0"/>
      <point x="324" y="0"/>
    </contour>
    <contour>
      <point x="489" y="552" type="curve" smooth="yes"/>
      <point x="442" y="552"/>
      <point x="416" y="539"/>
      <point x="384" y="508" type="curve" smooth="yes"/>
      <point x="351" y="477"/>
      <point x="315" y="407"/>
      <point x="315" y="348" type="curve"/>
      <point x="351" y="384"/>
      <point x="386" y="392"/>
      <point x="413" y="392" type="curve" smooth="yes"/>
      <point x="429" y="392"/>
      <point x="440" y="387"/>
      <point x="440" y="361" type="curve"/>
      <point x="568" y="428"/>
      <point x="570" y="443"/>
      <point x="570" y="453" type="curve" smooth="yes"/>
      <point x="570" y="512"/>
      <point x="536" y="552"/>
    </contour>
    <contour>
      <point x="570" y="0" type="curve"/>
      <point x="570" y="33"/>
      <point x="570" y="67"/>
      <point x="570" y="100" type="curve" smooth="yes"/>
      <point x="570" y="453" type="line" smooth="yes"/>
      <point x="570" y="507"/>
      <point x="527" y="458"/>
      <point x="429" y="409" type="curve"/>
      <point x="436" y="397"/>
      <point x="440" y="390"/>
      <point x="440" y="361" type="curve" smooth="yes"/>
      <point x="440" y="11" type="line" smooth="yes"/>
      <point x="440" y="5"/>
      <point x="445" y="0"/>
      <point x="451" y="0" type="curve" smooth="yes"/>
      <point x="491" y="0"/>
      <point x="530" y="0"/>
    </contour>
  </outline>
</glyph>
<glyph name="n" format="1">
  <advance width="600"/>
  <unicode hex="006E"/>
  <outline>
    <contour>
      <point x="230" y="0" type="curve"/>
      <point x="230" y="529" type="line" smooth="yes"/>
      <point x="230" y="532"/>
      <point x="229" y="535"/>
      <point x="227" y="537" type="curve" smooth="yes"/>
      <point x="225" y="539"/>
      <point x="222" y="540"/>
      <point x="219" y="540" type="curve" smooth="yes"/>
      <point x="174" y="540"/>
      <point x="125" y="540"/>
      <point x="70" y="540" type="curve"/>
      <point x="70" y="512"/>
      <point x="70" y="478"/>
      <point x="70" y="442" type="curve" smooth="yes"/>
      <point x="70" y="11" type="line" smooth="yes"/>
      <point x="70" y="5"/>
      <point x="75" y="0"/>
      <point x="81" y="0" type="curve" smooth="yes"/>
      <point x="131" y="0"/>
      <point x="180" y="0"/>
    </contour>
    <contour>
      <point x="395" y="552" type="curve" smooth="yes"/>
      <point x="345" y="552"/>
      <point x="288" y="529"/>
      <point x="227" y="451" type="curve" smooth="yes"/>
      <point x="200" y="418"/>
      <point x="163" y="363"/>
      <point x="187" y="293" type="curve"/>
      <point x="255" y="369"/>
      <point x="295" y="392"/>
      <point x="338" y="392" type="curve" smooth="yes"/>
      <point x="360" y="392"/>
      <point x="370" y="381"/>
      <point x="370" y="358" type="curve"/>
      <point x="507" y="358"/>
      <point x="530" y="380"/>
      <point x="530" y="401" type="curve" smooth="yes"/>
      <point x="530" y="484"/>
      <point x="478" y="552"/>
    </contour>
    <contour>
      <point x="530" y="0" type="curve"/>
      <point x="530" y="28"/>
      <point x="530" y="62"/>
      <point x="530" y="98" type="curve" smooth="yes"/>
      <point x="530" y="401" type="line"/>
      <point x="530" y="450"/>
      <point x="431" y="463"/>
      <point x="370" y="418" type="curve"/>
      <point x="370" y="402"/>
      <point x="370" y="384"/>
      <point x="370" y="358" type="curve" smooth="yes"/>
      <point x="370" y="11" type="line" smooth="yes"/>
      <point x="370" y="5"/>
      <point x="375" y="0"/>
      <point x="381" y="0" type="curve" smooth="yes"/>
      <point x="431" y="0"/>
      <point x="480" y="0"/>
    </contour>
    <contour>
      <point x="95" y="671" type="move" name="caronslovak"/>
    </contour>
    <contour>
      <point x="300" y="551" type="move" name="top"/>
    </contour>
    <contour>
      <point x="300" y="-1" type="move" name="bottom"/>
    </contour>
  </outline>
</glyph>
<glyph name="o" format="1">
  <advance width="600"/>
  <unicode hex="006F"/>
  <outline>
    <contour>
      <point x="302" y="552" type="curve" smooth="yes"/>
      <point x="155" y="552"/>
      <point x="55" y="450"/>
      <point x="55" y="302" type="curve" smooth="yes"/>
      <point x="55" y="248" type="line" smooth="yes"/>
      <point x="55" y="89"/>
      <point x="153" y="-12"/>
      <point x="298" y="-12" type="curve" smooth="yes"/>
      <point x="312" y="-12"/>
      <point x="320" y="1"/>
      <point x="295" y="128" type="curve"/>
      <point x="231" y="128"/>
      <point x="205" y="161"/>
      <point x="205" y="238" type="curve" smooth="yes"/>
      <point x="205" y="307" type="line" smooth="yes"/>
      <point x="205" y="374"/>
      <point x="241" y="412"/>
      <point x="305" y="412" type="curve" smooth="yes"/>
      <point x="353" y="412"/>
      <point x="382" y="402"/>
      <point x="412" y="374" type="curve"/>
      <point x="456" y="453"/>
      <point x="402" y="552"/>
    </contour>
    <contour>
      <point x="298" y="-12" type="curve" smooth="yes"/>
      <point x="444" y="-12"/>
      <point x="545" y="90"/>
      <point x="545" y="238" type="curve" smooth="yes"/>
      <point x="545" y="292" type="line" smooth="yes"/>
      <point x="545" y="451"/>
      <point x="446" y="552"/>
      <point x="302" y="552" type="curve" smooth="yes"/>
      <point x="295" y="552"/>
      <point x="291" y="545"/>
      <point x="305" y="412" type="curve"/>
      <point x="368" y="412"/>
      <point x="395" y="380"/>
      <point x="395" y="302" type="curve" smooth="yes"/>
      <point x="395" y="233" type="line" smooth="yes"/>
      <point x="395" y="166"/>
      <point x="358" y="128"/>
      <point x="295" y="128" type="curve" smooth="yes"/>
      <point x="247" y="128"/>
      <point x="216" y="138"/>
      <point x="186" y="166" type="curve"/>
      <point x="142" y="87"/>
      <point x="197" y="-12"/>
    </contour>
    <contour>
      <point x="300" y="551" type="move" name="top"/>
    </contour>
    <contour>
      <point x="388" y="10" type="move" name="ogonek"/>
    </contour>
    <contour>
      <point x="300" y="-1" type="move" name="bottom"/>
    </contour>
  </outline>
</glyph>
<glyph name="p" format="1">
  <advance width="600"/>
  <unicode hex="0070"/>
  <outline>
    <contour>
      <point x="225" y="-200" type="curve"/>
      <point x="225" y="529" type="line" smooth="yes"/>
      <point x="225" y="532"/>
      <point x="224" y="535"/>
      <point x="222" y="537" type="curve" smooth="yes"/>
      <point x="220" y="539"/>
      <point x="217" y="540"/>
      <point x="214" y="540" type="curve"/>
      <point x="166" y="540"/>
      <point x="118" y="540"/>
      <point x="70" y="540" type="curve"/>
      <point x="70" y="511"/>
      <point x="70" y="478"/>
      <point x="70" y="439" type="curve" smooth="yes"/>
      <point x="70" y="-189" type="line" smooth="yes"/>
      <point x="70" y="-195"/>
      <point x="75" y="-200"/>
      <point x="81" y="-200" type="curve"/>
      <point x="129" y="-200"/>
      <point x="177" y="-200"/>
    </contour>
    <contour>
      <point x="390" y="552" type="curve" smooth="yes"/>
      <point x="333" y="552"/>
      <point x="275" y="527"/>
      <point x="224" y="473" type="curve" smooth="yes"/>
      <point x="174" y="420"/>
      <point x="167" y="369"/>
      <point x="186" y="339" type="curve"/>
      <point x="254" y="385"/>
      <point x="295" y="405"/>
      <point x="332" y="405" type="curve" smooth="yes"/>
      <point x="372" y="405"/>
      <point x="390" y="380"/>
      <point x="390" y="344" type="curve"/>
      <point x="464" y="344"/>
      <point x="545" y="355"/>
      <point x="545" y="364" type="curve" smooth="yes"/>
      <point x="545" y="477"/>
      <point x="483" y="552"/>
    </contour>
    <contour>
      <point x="365" y="-10" type="curve" smooth="yes"/>
      <point x="476" y="-10"/>
      <point x="545" y="72"/>
      <point x="545" y="213" type="curve" smooth="yes"/>
      <point x="545" y="364" type="line" smooth="yes"/>
      <point x="545" y="431"/>
      <point x="485" y="481"/>
      <point x="405" y="481" type="curve" smooth="yes"/>
      <point x="372" y="481"/>
      <point x="353" y="467"/>
      <point x="353" y="442" type="curve"/>
      <point x="378" y="413"/>
      <point x="390" y="396"/>
      <point x="390" y="344" type="curve" smooth="yes"/>
      <point x="390" y="207" type="line" smooth="yes"/>
      <point x="390" y="159"/>
      <point x="367" y="133"/>
      <point x="326" y="133" type="curve" smooth="yes"/>
      <point x="288" y="133"/>
      <point x="237" y="147"/>
      <point x="195" y="187" type="curve"/>
      <point x="182" y="175"/>
      <point x="181" y="139"/>
      <point x="181" y="123" type="curve" smooth="yes"/>
      <point x="181" y="64"/>
      <point x="268" y="-10"/>
    </contour>
  </outline>
</glyph>
<glyph name="q" format="1">
  <advance width="600"/>
  <unicode hex="0071"/>
  <outline>
    <contour>
      <point x="226" y="552" type="curve" smooth="yes"/>
      <point x="121" y="552"/>
      <point x="55" y="473"/>
      <point x="55" y="338" type="curve" smooth="yes"/>
      <point x="55" y="177" type="line" smooth="yes"/>
      <point x="55" y="111"/>
      <point x="115" y="61"/>
      <point x="195" y="61" type="curve" smooth="yes"/>
      <point x="228" y="61"/>
      <point x="247" y="75"/>
      <point x="247" y="100" type="curve"/>
      <point x="222" y="130"/>
      <point x="210" y="147"/>
      <point x="210" y="201" type="curve" smooth="yes"/>
      <point x="210" y="323" type="line" smooth="yes"/>
      <point x="210" y="371"/>
      <point x="233" y="397"/>
      <point x="274" y="397" type="curve" smooth="yes"/>
      <point x="310" y="397"/>
      <point x="356" y="365"/>
      <point x="385" y="322" type="curve"/>
      <point x="400" y="331"/>
      <point x="412" y="352"/>
      <point x="412" y="376" type="curve" smooth="yes"/>
      <point x="412" y="445"/>
      <point x="333" y="552"/>
    </contour>
    <contour>
      <point x="205" y="-10" type="curve" smooth="yes"/>
      <point x="267" y="-10"/>
      <point x="327" y="11"/>
      <point x="381" y="70" type="curve" smooth="yes"/>
      <point x="432" y="125"/>
      <point x="440" y="175"/>
      <point x="422" y="205" type="curve"/>
      <point x="352" y="160"/>
      <point x="301" y="140"/>
      <point x="265" y="140" type="curve" smooth="yes"/>
      <point x="225" y="140"/>
      <point x="210" y="167"/>
      <point x="210" y="201" type="curve"/>
      <point x="117" y="222"/>
      <point x="55" y="190"/>
      <point x="55" y="177" type="curve" smooth="yes"/>
      <point x="55" y="65"/>
      <point x="117" y="-10"/>
    </contour>
    <contour>
      <point x="530" y="-200" type="curve"/>
      <point x="530" y="440" type="line" smooth="yes"/>
      <point x="530" y="473"/>
      <point x="530" y="507"/>
      <point x="530" y="540" type="curve"/>
      <point x="482" y="540"/>
      <point x="434" y="540"/>
      <point x="386" y="540" type="curve" smooth="yes"/>
      <point x="383" y="540"/>
      <point x="380" y="539"/>
      <point x="378" y="537" type="curve" smooth="yes"/>
      <point x="376" y="535"/>
      <point x="375" y="532"/>
      <point x="375" y="529" type="curve" smooth="yes"/>
      <point x="375" y="-189" type="line" smooth="yes"/>
      <point x="375" y="-195"/>
      <point x="380" y="-200"/>
      <point x="386" y="-200" type="curve" smooth="yes"/>
      <point x="434" y="-200"/>
      <point x="482" y="-200"/>
    </contour>
  </outline>
</glyph>
<glyph name="s" format="1">
  <advance width="600"/>
  <unicode hex="0073"/>
  <outline>
    <contour>
      <point x="340" y="549" type="curve" smooth="yes"/>
      <point x="321" y="549" type="line" smooth="yes"/>
      <point x="176" y="549"/>
      <point x="82" y="483"/>
      <point x="82" y="368" type="curve" smooth="yes"/>
      <point x="82" y="332"/>
      <point x="147" y="301"/>
      <point x="233" y="301" type="curve"/>
      <point x="233" y="314"/>
      <point x="233" y="354"/>
      <point x="233" y="371" type="curve" smooth="yes"/>
      <point x="233" y="393"/>
      <point x="256" y="404"/>
      <point x="325" y="404" type="curve" smooth="yes"/>
      <point x="383" y="404"/>
      <point x="421" y="398"/>
      <point x="479" y="381" type="curve"/>
      <point x="499" y="381" type="line"/>
      <point x="499" y="425"/>
      <point x="499" y="469"/>
      <point x="499" y="513" type="curve"/>
      <point x="499" y="518"/>
      <point x="498" y="521"/>
      <point x="496" y="523" type="curve" smooth="yes"/>
      <point x="485" y="534"/>
      <point x="425" y="549"/>
    </contour>
    <contour>
      <point x="370" y="322" type="curve" smooth="yes"/>
      <point x="283" y="333" type="line" smooth="yes"/>
      <point x="245" y="338"/>
      <point x="233" y="349"/>
      <point x="233" y="371" type="curve" smooth="yes"/>
      <point x="233" y="396"/>
      <point x="233" y="424"/>
      <point x="233" y="456" type="curve"/>
      <point x="146" y="456"/>
      <point x="82" y="419"/>
      <point x="82" y="368" type="curve"/>
      <point x="82" y="286"/>
      <point x="131" y="234"/>
      <point x="237" y="220" type="curve" smooth="yes"/>
      <point x="325" y="208" type="line" smooth="yes"/>
      <point x="377" y="201"/>
      <point x="388" y="186"/>
      <point x="388" y="169" type="curve" smooth="yes"/>
      <point x="388" y="146"/>
      <point x="388" y="115"/>
      <point x="388" y="87" type="curve"/>
      <point x="479" y="89"/>
      <point x="536" y="120"/>
      <point x="536" y="166" type="curve" smooth="yes"/>
      <point x="536" y="241"/>
      <point x="489" y="307"/>
    </contour>
    <contour>
      <point x="295" y="136" type="curve" smooth="yes"/>
      <point x="204" y="136"/>
      <point x="157" y="142"/>
      <point x="93" y="166" type="curve"/>
      <point x="73" y="166" type="line"/>
      <point x="73" y="127"/>
      <point x="73" y="82"/>
      <point x="73" y="31" type="curve" smooth="yes"/>
      <point x="73" y="28"/>
      <point x="73" y="26"/>
      <point x="75" y="24" type="curve" smooth="yes"/>
      <point x="86" y="13"/>
      <point x="187" y="-9"/>
      <point x="270" y="-9" type="curve" smooth="yes"/>
      <point x="291" y="-9" type="line" smooth="yes"/>
      <point x="449" y="-9"/>
      <point x="536" y="52"/>
      <point x="536" y="166" type="curve" smooth="yes"/>
      <point x="536" y="232"/>
      <point x="468" y="253"/>
      <point x="388" y="253" type="curve"/>
      <point x="388" y="220"/>
      <point x="388" y="191"/>
      <point x="388" y="169" type="curve" smooth="yes"/>
      <point x="388" y="151"/>
      <point x="371" y="136"/>
    </contour>
    <contour>
      <point x="300" y="551" type="move" name="top"/>
    </contour>
    <contour>
      <point x="304" y="-1" type="move" name="bottom"/>
    </contour>
  </outline>
</glyph>
<glyph name="t" format="1">
  <advance width="600"/>
  <unicode hex="0074"/>
  <outline>
    <contour>
      <point x="175" y="700" type="curve"/>
      <point x="175" y="220" type="line" smooth="yes"/>
      <point x="175" y="116"/>
      <point x="246" y="44"/>
      <point x="386" y="66" type="curve"/>
      <point x="341" y="112"/>
      <point x="325" y="162"/>
      <point x="325" y="232" type="curve" smooth="yes"/>
      <point x="325" y="689" type="line" smooth="yes"/>
      <point x="325" y="695"/>
      <point x="320" y="700"/>
      <point x="314" y="700" type="curve" smooth="yes"/>
      <point x="270" y="700"/>
      <point x="223" y="700"/>
    </contour>
    <contour>
      <point x="500" y="143" type="curve"/>
      <point x="480" y="143" type="line"/>
      <point x="442" y="143"/>
      <point x="456" y="143"/>
      <point x="409" y="143" type="curve" smooth="yes"/>
      <point x="349" y="143"/>
      <point x="325" y="162"/>
      <point x="325" y="232" type="curve"/>
      <point x="204" y="258"/>
      <point x="175" y="239"/>
      <point x="175" y="220" type="curve" smooth="yes"/>
      <point x="175" y="67"/>
      <point x="262" y="0"/>
      <point x="404" y="0" type="curve" smooth="yes"/>
      <point x="489" y="0" type="line" smooth="yes"/>
      <point x="492" y="0"/>
      <point x="495" y="1"/>
      <point x="497" y="3" type="curve" smooth="yes"/>
      <point x="499" y="5"/>
      <point x="500" y="8"/>
      <point x="500" y="11" type="curve" smooth="yes"/>
      <point x="500" y="57"/>
      <point x="500" y="97"/>
    </contour>
    <contour>
      <point x="60" y="540" type="line"/>
      <point x="60" y="494"/>
      <point x="60" y="457"/>
      <point x="60" y="411" type="curve" smooth="yes"/>
      <point x="60" y="408"/>
      <point x="61" y="405"/>
      <point x="63" y="403" type="curve" smooth="yes"/>
      <point x="65" y="401"/>
      <point x="68" y="400"/>
      <point x="71" y="400" type="curve" smooth="yes"/>
      <point x="500" y="400" type="line"/>
      <point x="500" y="446"/>
      <point x="500" y="483"/>
      <point x="500" y="529" type="curve" smooth="yes"/>
      <point x="500" y="535"/>
      <point x="495" y="540"/>
      <point x="489" y="540" type="curve" smooth="yes"/>
    </contour>
    <contour>
      <point x="455" y="700" type="move" name="caronslovak"/>
    </contour>
    <contour>
      <point x="371" y="-1" type="move" name="bottom"/>
    </contour>
  </outline>
</glyph>
<glyph name="w" format="1">
  <advance width="600"/>
  <unicode hex="0077"/>
  <outline>
    <contour>
      <point x="26" y="540" type="curve"/>
      <point x="50" y="365"/>
      <point x="75" y="190"/>
      <point x="99" y="15" type="curve" smooth="yes"/>
      <point x="100" y="5"/>
      <point x="110" y="0"/>
      <point x="120" y="0" type="curve" smooth="yes"/>
      <point x="150" y="0" type="line" smooth="yes"/>
      <point x="168" y="0"/>
      <point x="190" y="16"/>
      <point x="202" y="35" type="curve" smooth="yes"/>
      <point x="190" y="198"/>
      <point x="179" y="359"/>
      <point x="167" y="522" type="curve"/>
      <point x="166" y="532"/>
      <point x="165" y="535"/>
      <point x="163" y="537" type="curve" smooth="yes"/>
      <point x="161" y="539"/>
      <point x="158" y="540"/>
      <point x="154" y="540" type="curve"/>
      <point x="109" y="540"/>
      <point x="67" y="540"/>
    </contour>
    <contour>
      <point x="308" y="421" type="curve" smooth="yes"/>
      <point x="254" y="421" type="line"/>
      <point x="232" y="314"/>
      <point x="211" y="208"/>
      <point x="189" y="101" type="curve"/>
      <point x="175" y="34"/>
      <point x="164" y="14"/>
      <point x="140" y="0" type="curve"/>
      <point x="245" y="0" type="line"/>
      <point x="270" y="134"/>
      <point x="296" y="268"/>
      <point x="321" y="402" type="curve" smooth="yes"/>
      <point x="323" y="413"/>
      <point x="319" y="421"/>
    </contour>
    <contour>
      <point x="339" y="421" type="curve" smooth="yes"/>
      <point x="277" y="421" type="line"/>
      <point x="303" y="286"/>
      <point x="328" y="150"/>
      <point x="354" y="15" type="curve" smooth="yes"/>
      <point x="356" y="5"/>
      <point x="365" y="0"/>
      <point x="375" y="0" type="curve" smooth="yes"/>
      <point x="402" y="0" type="line" smooth="yes"/>
      <point x="415" y="0"/>
      <point x="427" y="10"/>
      <point x="430" y="24" type="curve" smooth="yes"/>
      <point x="399" y="174"/>
      <point x="375" y="292"/>
      <point x="351" y="410" type="curve" smooth="yes"/>
      <point x="349" y="419"/>
      <point x="345" y="421"/>
    </contour>
    <contour>
      <point x="436" y="540" type="curve"/>
      <point x="426" y="393"/>
      <point x="416" y="248"/>
      <point x="406" y="101" type="curve"/>
      <point x="400" y="39"/>
      <point x="396" y="19"/>
      <point x="389" y="0" type="curve"/>
      <point x="498" y="0" type="line"/>
      <point x="523" y="176"/>
      <point x="548" y="351"/>
      <point x="573" y="527" type="curve"/>
      <point x="574" y="533"/>
      <point x="573" y="535"/>
      <point x="571" y="537" type="curve" smooth="yes"/>
      <point x="569" y="539"/>
      <point x="568" y="540"/>
      <point x="564" y="540" type="curve"/>
      <point x="521" y="540"/>
      <point x="479" y="540"/>
    </contour>
    <contour>
      <point x="299" y="551" type="move" name="top"/>
    </contour>
  </outline>
</glyph>
<glyph name="braceleft" format="1">
  <advance width="600"/>
  <unicode hex="007B"/>
  <outline>
    <contour>
      <point x="401" y="618" type="curve" smooth="yes"/>
      <point x="473" y="618"/>
      <point x="442" y="618"/>
      <point x="500" y="618" type="curve"/>
      <point x="520" y="618" type="line"/>
      <point x="520" y="662"/>
      <point x="520" y="705"/>
      <point x="520" y="749" type="curve"/>
      <point x="520" y="756"/>
      <point x="516" y="760"/>
      <point x="509" y="760" type="curve" smooth="yes"/>
      <point x="332" y="760" type="line" smooth="yes"/>
      <point x="248" y="760"/>
      <point x="219" y="696"/>
      <point x="219" y="657" type="curve" smooth="yes"/>
      <point x="219" y="653" type="line" smooth="yes"/>
      <point x="219" y="645"/>
      <point x="226" y="638"/>
      <point x="369" y="590" type="curve"/>
      <point x="369" y="613"/>
      <point x="377" y="618"/>
    </contour>
    <contour>
      <point x="420" y="442" type="curve" smooth="yes"/>
      <point x="420" y="525"/>
      <point x="369" y="553"/>
      <point x="369" y="590" type="curve" smooth="yes"/>
      <point x="369" y="591"/>
      <point x="369" y="648"/>
      <point x="369" y="667" type="curve"/>
      <point x="223" y="667"/>
      <point x="219" y="663"/>
      <point x="219" y="657" type="curve" smooth="yes"/>
      <point x="219" y="616" type="line" smooth="yes"/>
      <point x="219" y="520"/>
      <point x="270" y="504"/>
      <point x="270" y="444" type="curve" smooth="yes"/>
      <point x="270" y="395"/>
      <point x="217" y="371"/>
      <point x="112" y="371" type="curve" smooth="yes"/>
      <point x="80" y="371" type="line"/>
      <point x="80" y="278" type="line" smooth="yes"/>
      <point x="80" y="270"/>
      <point x="84" y="267"/>
      <point x="91" y="267" type="curve" smooth="yes"/>
      <point x="112" y="267" type="line" smooth="yes"/>
      <point x="346" y="267"/>
      <point x="420" y="348"/>
    </contour>
    <contour>
      <point x="420" y="157" type="curve" smooth="yes"/>
      <point x="420" y="256"/>
      <point x="346" y="333"/>
      <point x="112" y="333" type="curve" smooth="yes"/>
      <point x="101" y="333"/>
      <point x="91" y="333"/>
      <point x="80" y="333" type="curve"/>
      <point x="80" y="240" type="line" smooth="yes"/>
      <point x="80" y="233"/>
      <point x="84" y="229"/>
      <point x="91" y="229" type="curve" smooth="yes"/>
      <point x="112" y="229" type="line" smooth="yes"/>
      <point x="217" y="229"/>
      <point x="270" y="201"/>
      <point x="270" y="155" type="curve" smooth="yes"/>
      <point x="270" y="95"/>
      <point x="219" y="79"/>
      <point x="219" y="-17" type="curve" smooth="yes"/>
      <point x="219" y="-58" type="line" smooth="yes"/>
      <point x="219" y="-64"/>
      <point x="223" y="-68"/>
      <point x="369" y="-68" type="curve"/>
      <point x="369" y="-42"/>
      <point x="369" y="-17"/>
      <point x="369" y="9" type="curve" smooth="yes"/>
      <point x="369" y="46"/>
      <point x="420" y="74"/>
    </contour>
    <contour>
      <point x="401" y="-19" type="curve" smooth="yes"/>
      <point x="377" y="-19"/>
      <point x="369" y="-14"/>
      <point x="369" y="9" type="curve"/>
      <point x="228" y="-39"/>
      <point x="219" y="-46"/>
      <point x="219" y="-54" type="curve" smooth="yes"/>
      <point x="219" y="-58" type="line" smooth="yes"/>
      <point x="219" y="-97"/>
      <point x="248" y="-161"/>
      <point x="332" y="-161" type="curve" smooth="yes"/>
      <point x="509" y="-161" type="line" smooth="yes"/>
      <point x="516" y="-161"/>
      <point x="520" y="-157"/>
      <point x="520" y="-150" type="curve"/>
      <point x="520" y="-19" type="line"/>
      <point x="500" y="-19" type="line"/>
      <point x="442" y="-19"/>
      <point x="473" y="-19"/>
    </contour>
  </outline>
</glyph>
<glyph name="exclamdown" format="1">
  <advance width="600"/>
  <unicode hex="00A1"/>
  <outline>
    <contour>
      <point x="246" y="250" type="line"/>
      <point x="234" y="179"/>
      <point x="222" y="109"/>
      <point x="210" y="38" type="curve"/>
      <point x="210" y="-149" type="line" smooth="yes"/>
      <point x="210" y="-156"/>
      <point x="215" y="-160"/>
      <point x="221" y="-160" type="curve" smooth="yes"/>
      <point x="293" y="-160"/>
      <point x="349" y="-160"/>
      <point x="390" y="-160" type="curve"/>
      <point x="390" y="-122"/>
      <point x="390" y="-87"/>
      <point x="390" y="-50" type="curve" smooth="yes"/>
      <point x="390" y="38" type="line"/>
      <point x="357" y="241"/>
      <point x="356" y="243"/>
      <point x="352" y="247" type="curve" smooth="yes"/>
      <point x="350" y="249"/>
      <point x="348" y="250"/>
      <point x="344" y="250" type="curve"/>
    </contour>
    <contour>
      <point x="200" y="550" type="curve"/>
      <point x="200" y="361" type="line" smooth="yes"/>
      <point x="200" y="355"/>
      <point x="205" y="350"/>
      <point x="211" y="350" type="curve" smooth="yes"/>
      <point x="274" y="350"/>
      <point x="337" y="350"/>
      <point x="400" y="350" type="curve"/>
      <point x="400" y="539" type="line" smooth="yes"/>
      <point x="400" y="545"/>
      <point x="395" y="550"/>
      <point x="389" y="550" type="curve" smooth="yes"/>
      <point x="326" y="550"/>
      <point x="263" y="550"/>
    </contour>
  </outline>
</glyph>
<glyph name="cent" format="1">
  <advance width="600"/>
  <unicode hex="00A2"/>
  <outline>
    <contour>
      <point x="397" y="383" type="line"/>
      <point x="458" y="764" type="line" smooth="yes"/>
      <point x="459" y="773"/>
      <point x="454" y="777"/>
      <point x="448" y="777" type="curve" smooth="yes"/>
      <point x="395" y="777"/>
      <point x="372" y="777"/>
      <point x="318" y="777" type="curve"/>
      <point x="318" y="744"/>
      <point x="318" y="711"/>
      <point x="318" y="678" type="curve"/>
      <point x="318" y="415" type="line" smooth="yes"/>
      <point x="318" y="407"/>
      <point x="321" y="402"/>
      <point x="329" y="400" type="curve" smooth="yes"/>
    </contour>
    <contour>
      <point x="319" y="314" type="line"/>
      <point x="258" y="-67" type="line" smooth="yes"/>
      <point x="257" y="-76"/>
      <point x="262" y="-80"/>
      <point x="268" y="-80" type="curve" smooth="yes"/>
      <point x="321" y="-80"/>
      <point x="344" y="-80"/>
      <point x="398" y="-80" type="curve"/>
      <point x="398" y="-47"/>
      <point x="398" y="-14"/>
      <point x="398" y="19" type="curve"/>
      <point x="398" y="282" type="line" smooth="yes"/>
      <point x="398" y="290"/>
      <point x="395" y="295"/>
      <point x="387" y="297" type="curve" smooth="yes"/>
    </contour>
    <contour>
      <point x="346" y="632" type="curve" smooth="yes"/>
      <point x="175" y="632"/>
      <point x="65" y="527"/>
      <point x="65" y="381" type="curve" smooth="yes"/>
      <point x="65" y="315" type="line" smooth="yes"/>
      <point x="65" y="159"/>
      <point x="162" y="68"/>
      <point x="346" y="68" type="curve" smooth="yes"/>
      <point x="369" y="68"/>
      <point x="368" y="89"/>
      <point x="343" y="218" type="curve"/>
      <point x="253" y="218"/>
      <point x="220" y="251"/>
      <point x="220" y="323" type="curve" smooth="yes"/>
      <point x="220" y="379" type="line" smooth="yes"/>
      <point x="220" y="459"/>
      <point x="273" y="482"/>
      <point x="343" y="482" type="curve" smooth="yes"/>
      <point x="399" y="482"/>
      <point x="447" y="470"/>
      <point x="500" y="449" type="curve"/>
      <point x="520" y="449" type="line"/>
      <point x="520" y="494"/>
      <point x="520" y="539"/>
      <point x="520" y="584" type="curve" smooth="yes"/>
      <point x="520" y="587"/>
      <point x="519" y="590"/>
      <point x="517" y="592" type="curve" smooth="yes"/>
      <point x="501" y="608"/>
      <point x="442" y="632"/>
    </contour>
    <contour>
      <point x="160" y="274" type="curve"/>
      <point x="135" y="127"/>
      <point x="200" y="68"/>
      <point x="346" y="68" type="curve" smooth="yes"/>
      <point x="439" y="68"/>
      <point x="502" y="90"/>
      <point x="517" y="105" type="curve" smooth="yes"/>
      <point x="519" y="107"/>
      <point x="520" y="110"/>
      <point x="520" y="113" type="curve"/>
      <point x="520" y="158"/>
      <point x="520" y="203"/>
      <point x="520" y="248" type="curve"/>
      <point x="500" y="248" type="line"/>
      <point x="447" y="229"/>
      <point x="399" y="218"/>
      <point x="343" y="218" type="curve" smooth="yes"/>
      <point x="266" y="218"/>
      <point x="208" y="238"/>
    </contour>
  </outline>
</glyph>
<glyph name="sterling" format="1">
  <advance width="600"/>
  <unicode hex="00A3"/>
  <outline>
    <contour>
      <point x="387" y="570" type="curve" smooth="yes"/>
      <point x="433" y="570"/>
      <point x="465" y="562"/>
      <point x="510" y="545" type="curve"/>
      <point x="530" y="545" type="line"/>
      <point x="530" y="580"/>
      <point x="530" y="627"/>
      <point x="530" y="680" type="curve" smooth="yes"/>
      <point x="530" y="683"/>
      <point x="530" y="685"/>
      <point x="528" y="687" type="curve" smooth="yes"/>
      <point x="519" y="696"/>
      <point x="467" y="720"/>
      <point x="385" y="720" type="curve" smooth="yes"/>
      <point x="228" y="720"/>
      <point x="135" y="648"/>
      <point x="135" y="533" type="curve" smooth="yes"/>
      <point x="135" y="506" type="line" smooth="yes"/>
      <point x="135" y="494"/>
      <point x="142" y="489"/>
      <point x="285" y="500" type="curve"/>
      <point x="285" y="554"/>
      <point x="313" y="570"/>
    </contour>
    <contour>
      <point x="135" y="506" type="curve" smooth="yes"/>
      <point x="135" y="408"/>
      <point x="135" y="329"/>
      <point x="135" y="225" type="curve" smooth="yes"/>
      <point x="135" y="171"/>
      <point x="107" y="142"/>
      <point x="65" y="142" type="curve" smooth="yes"/>
      <point x="58" y="142"/>
      <point x="51" y="142"/>
      <point x="44" y="142" type="curve"/>
      <point x="40" y="142" type="line"/>
      <point x="40" y="98"/>
      <point x="40" y="63"/>
      <point x="40" y="11" type="curve" smooth="yes"/>
      <point x="40" y="3"/>
      <point x="44" y="0"/>
      <point x="51" y="0" type="curve" smooth="yes"/>
      <point x="56" y="0" type="line" smooth="yes"/>
      <point x="189" y="0"/>
      <point x="285" y="64"/>
      <point x="285" y="248" type="curve" smooth="yes"/>
      <point x="285" y="333"/>
      <point x="285" y="415"/>
      <point x="285" y="500" type="curve" smooth="yes"/>
      <point x="285" y="541"/>
      <point x="285" y="579"/>
      <point x="285" y="618" type="curve"/>
      <point x="201" y="618"/>
      <point x="135" y="577"/>
    </contour>
    <contour>
      <point x="56" y="0" type="curve"/>
      <point x="234" y="0"/>
      <point x="338" y="0"/>
      <point x="474" y="0" type="curve" smooth="yes"/>
      <point x="539" y="0" type="line" smooth="yes"/>
      <point x="547" y="0"/>
      <point x="550" y="3"/>
      <point x="550" y="11" type="curve"/>
      <point x="550" y="55"/>
      <point x="550" y="98"/>
      <point x="550" y="142" type="curve"/>
      <point x="530" y="142" type="line"/>
      <point x="504" y="142"/>
      <point x="484" y="142"/>
      <point x="451" y="142" type="curve" smooth="yes"/>
      <point x="355" y="142"/>
      <point x="280" y="142"/>
      <point x="127" y="142" type="curve"/>
      <point x="43" y="9"/>
      <point x="49" y="0"/>
    </contour>
    <contour>
      <point x="60" y="410" type="line"/>
      <point x="60" y="364"/>
      <point x="60" y="357"/>
      <point x="60" y="311" type="curve" smooth="yes"/>
      <point x="60" y="308"/>
      <point x="61" y="305"/>
      <point x="63" y="303" type="curve" smooth="yes"/>
      <point x="65" y="301"/>
      <point x="68" y="300"/>
      <point x="71" y="300" type="curve" smooth="yes"/>
      <point x="450" y="300" type="line"/>
      <point x="450" y="346"/>
      <point x="450" y="353"/>
      <point x="450" y="399" type="curve" smooth="yes"/>
      <point x="450" y="405"/>
      <point x="445" y="410"/>
      <point x="439" y="410" type="curve" smooth="yes"/>
    </contour>
  </outline>
</glyph>
<glyph name="yen" format="1">
  <advance width="600"/>
  <unicode hex="00A5"/>
  <outline>
    <contour>
      <point x="10" y="468" type="line"/>
      <point x="10" y="422"/>
      <point x="10" y="415"/>
      <point x="10" y="369" type="curve" smooth="yes"/>
      <point x="10" y="366"/>
      <point x="11" y="363"/>
      <point x="13" y="361" type="curve" smooth="yes"/>
      <point x="15" y="359"/>
      <point x="18" y="358"/>
      <point x="21" y="358" type="curve"/>
      <point x="210" y="358" type="line"/>
      <point x="210" y="404"/>
      <point x="210" y="411"/>
      <point x="210" y="457" type="curve" smooth="yes"/>
      <point x="210" y="463"/>
      <point x="205" y="468"/>
      <point x="199" y="468" type="curve"/>
    </contour>
    <contour>
      <point x="390" y="468" type="line"/>
      <point x="390" y="422"/>
      <point x="390" y="415"/>
      <point x="390" y="369" type="curve" smooth="yes"/>
      <point x="390" y="363"/>
      <point x="395" y="358"/>
      <point x="401" y="358" type="curve"/>
      <point x="590" y="358" type="line"/>
      <point x="590" y="404"/>
      <point x="590" y="411"/>
      <point x="590" y="457" type="curve" smooth="yes"/>
      <point x="590" y="463"/>
      <point x="585" y="468"/>
      <point x="579" y="468" type="curve"/>
    </contour>
    <contour>
      <point x="590" y="130" type="line"/>
      <point x="590" y="176"/>
      <point x="590" y="183"/>
      <point x="590" y="229" type="curve" smooth="yes"/>
      <point x="590" y="232"/>
      <point x="589" y="235"/>
      <point x="587" y="237" type="curve" smooth="yes"/>
      <point x="585" y="239"/>
      <point x="582" y="240"/>
      <point x="579" y="240" type="curve"/>
      <point x="10" y="240" type="line"/>
      <point x="10" y="194"/>
      <point x="10" y="187"/>
      <point x="10" y="141" type="curve" smooth="yes"/>
      <point x="10" y="135"/>
      <point x="15" y="130"/>
      <point x="21" y="130" type="curve"/>
    </contour>
    <contour>
      <point x="15" y="700" type="line"/>
      <point x="85" y="547"/>
      <point x="159" y="393"/>
      <point x="228" y="239" type="curve"/>
      <point x="232" y="229"/>
      <point x="239" y="225"/>
      <point x="249" y="225" type="curve"/>
      <point x="314" y="225"/>
      <point x="345" y="302"/>
      <point x="327" y="335" type="curve"/>
      <point x="281" y="451"/>
      <point x="234" y="567"/>
      <point x="189" y="683" type="curve"/>
      <point x="186" y="694"/>
      <point x="181" y="700"/>
      <point x="172" y="700" type="curve" smooth="yes"/>
    </contour>
    <contour>
      <point x="417" y="700" type="line"/>
      <point x="372" y="578"/>
      <point x="327" y="457"/>
      <point x="282" y="335" type="curve"/>
      <point x="257" y="274"/>
      <point x="259" y="251"/>
      <point x="249" y="225" type="curve"/>
      <point x="365" y="225" type="line"/>
      <point x="436" y="377"/>
      <point x="507" y="529"/>
      <point x="578" y="681" type="curve"/>
      <point x="581" y="691"/>
      <point x="576" y="700"/>
      <point x="565" y="700" type="curve"/>
    </contour>
    <contour>
      <point x="380" y="0" type="curve"/>
      <point x="380" y="33"/>
      <point x="380" y="67"/>
      <point x="380" y="100" type="curve" smooth="yes"/>
      <point x="380" y="289" type="line" smooth="yes"/>
      <point x="380" y="295"/>
      <point x="375" y="300"/>
      <point x="220" y="300" type="curve"/>
      <point x="220" y="11" type="line" smooth="yes"/>
      <point x="220" y="8"/>
      <point x="221" y="5"/>
      <point x="223" y="3" type="curve" smooth="yes"/>
      <point x="225" y="1"/>
      <point x="228" y="0"/>
      <point x="231" y="0" type="curve" smooth="yes"/>
      <point x="281" y="0"/>
      <point x="330" y="0"/>
    </contour>
  </outline>
</glyph>
<glyph name="logicalnot" format="1">
  <advance width="600"/>
  <unicode hex="00AC"/>
  <outline>
    <contour>
      <point x="60" y="460" type="line"/>
      <point x="60" y="414"/>
      <point x="60" y="381"/>
      <point x="60" y="335" type="curve" smooth="yes"/>
      <point x="60" y="332"/>
      <point x="61" y="329"/>
      <point x="63" y="327" type="curve" smooth="yes"/>
      <point x="65" y="325"/>
      <point x="68" y="324"/>
      <point x="71" y="324" type="curve"/>
      <point x="540" y="324" type="line"/>
      <point x="540" y="449" type="line"/>
      <point x="540" y="455"/>
      <point x="535" y="460"/>
      <point x="529" y="460" type="curve"/>
    </contour>
    <contour>
      <point x="540" y="141" type="curve"/>
      <point x="540" y="394" type="line" smooth="yes"/>
      <point x="540" y="400"/>
      <point x="535" y="405"/>
      <point x="529" y="405" type="curve"/>
      <point x="390" y="405" type="line"/>
      <point x="390" y="152" type="line" smooth="yes"/>
      <point x="390" y="146"/>
      <point x="395" y="141"/>
      <point x="401" y="141" type="curve" smooth="yes"/>
      <point x="451" y="141"/>
      <point x="490" y="141"/>
    </contour>
  </outline>
</glyph>
<glyph name="registered" format="1">
  <advance width="600"/>
  <unicode hex="00AE"/>
  <outline>
    <contour>
      <point x="270" y="327" type="curve"/>
      <point x="270" y="352"/>
      <point x="270" y="376"/>
      <point x="270" y="401" type="curve"/>
      <point x="270" y="602" type="line"/>
      <point x="270" y="603"/>
      <point x="270" y="608"/>
      <point x="188" y="608" type="curve"/>
      <point x="188" y="338" type="line" smooth="yes"/>
      <point x="188" y="331"/>
      <point x="192" y="327"/>
      <point x="199" y="327" type="curve" smooth="yes"/>
      <point x="223" y="327"/>
      <point x="246" y="327"/>
    </contour>
    <contour>
      <point x="168" y="635" type="curve"/>
      <point x="168" y="614"/>
      <point x="168" y="597"/>
      <point x="168" y="576" type="curve"/>
      <point x="168" y="569"/>
      <point x="172" y="565"/>
      <point x="179" y="565" type="curve"/>
      <point x="185" y="565"/>
      <point x="195" y="565"/>
      <point x="201" y="565" type="curve" smooth="yes"/>
      <point x="237" y="565"/>
      <point x="285" y="565"/>
      <point x="321" y="565" type="curve" smooth="yes"/>
      <point x="356" y="565"/>
      <point x="374" y="565"/>
      <point x="393" y="565" type="curve"/>
      <point x="393" y="608"/>
      <point x="367" y="635"/>
      <point x="324" y="635" type="curve" smooth="yes"/>
      <point x="278" y="635"/>
      <point x="213" y="635"/>
    </contour>
    <contour>
      <point x="428" y="510" type="curve" smooth="yes"/>
      <point x="428" y="545" type="line" smooth="yes"/>
      <point x="428" y="600"/>
      <point x="393" y="635"/>
      <point x="324" y="635" type="curve"/>
      <point x="319" y="635"/>
      <point x="312" y="631"/>
      <point x="321" y="565" type="curve"/>
      <point x="339" y="565"/>
      <point x="348" y="558"/>
      <point x="348" y="541" type="curve" smooth="yes"/>
      <point x="348" y="517" type="line" smooth="yes"/>
      <point x="348" y="503"/>
      <point x="337" y="493"/>
      <point x="321" y="493" type="curve" smooth="yes"/>
      <point x="301" y="493"/>
      <point x="254" y="493"/>
      <point x="239" y="493" type="curve"/>
      <point x="239" y="473"/>
      <point x="239" y="455"/>
      <point x="239" y="431" type="curve" smooth="yes"/>
      <point x="239" y="428"/>
      <point x="242" y="425"/>
      <point x="245" y="425" type="curve" smooth="yes"/>
      <point x="344" y="425" type="line" smooth="yes"/>
      <point x="397" y="425"/>
      <point x="428" y="461"/>
    </contour>
    <contour>
      <point x="366" y="477" type="line"/>
      <point x="321" y="477"/>
      <point x="299" y="448"/>
      <point x="304" y="434" type="curve" smooth="yes"/>
      <point x="327" y="372" type="line" smooth="yes"/>
      <point x="340" y="336"/>
      <point x="363" y="324"/>
      <point x="407" y="324" type="curve" smooth="yes"/>
      <point x="418" y="324" type="line" smooth="yes"/>
      <point x="426" y="324"/>
      <point x="429" y="328"/>
      <point x="429" y="335" type="curve"/>
      <point x="429" y="351"/>
      <point x="429" y="379"/>
      <point x="429" y="401" type="curve"/>
      <point x="426" y="401" type="line"/>
      <point x="421" y="401"/>
      <point x="416" y="401"/>
      <point x="410" y="401" type="curve"/>
      <point x="398" y="401"/>
      <point x="395" y="403"/>
      <point x="391" y="413" type="curve" smooth="yes"/>
    </contour>
    <contour>
      <point x="300" y="760" type="curve" smooth="yes"/>
      <point x="141" y="760"/>
      <point x="43" y="685"/>
      <point x="43" y="543" type="curve" smooth="yes"/>
      <point x="43" y="417" type="line" smooth="yes"/>
      <point x="43" y="275"/>
      <point x="141" y="200"/>
      <point x="300" y="200" type="curve" smooth="yes"/>
      <point x="300" y="200"/>
      <point x="315" y="211"/>
      <point x="300" y="262" type="curve"/>
      <point x="172" y="262"/>
      <point x="109" y="321"/>
      <point x="109" y="411" type="curve" smooth="yes"/>
      <point x="109" y="551" type="line" smooth="yes"/>
      <point x="109" y="640"/>
      <point x="172" y="698"/>
      <point x="300" y="698" type="curve" smooth="yes"/>
      <point x="347" y="698"/>
      <point x="376" y="698"/>
      <point x="417" y="698" type="curve"/>
      <point x="417" y="731"/>
      <point x="387" y="760"/>
    </contour>
    <contour>
      <point x="300" y="200" type="curve" smooth="yes"/>
      <point x="465" y="200"/>
      <point x="557" y="275"/>
      <point x="557" y="417" type="curve" smooth="yes"/>
      <point x="557" y="543" type="line" smooth="yes"/>
      <point x="557" y="685"/>
      <point x="465" y="760"/>
      <point x="300" y="760" type="curve" smooth="yes"/>
      <point x="300" y="760"/>
      <point x="285" y="749"/>
      <point x="300" y="698" type="curve"/>
      <point x="434" y="698"/>
      <point x="491" y="639"/>
      <point x="491" y="549" type="curve" smooth="yes"/>
      <point x="491" y="409" type="line" smooth="yes"/>
      <point x="491" y="320"/>
      <point x="434" y="262"/>
      <point x="300" y="262" type="curve" smooth="yes"/>
      <point x="253" y="262"/>
      <point x="224" y="262"/>
      <point x="183" y="262" type="curve"/>
      <point x="183" y="229"/>
      <point x="213" y="200"/>
    </contour>
  </outline>
</glyph>
<glyph name="cedilla" format="1">
  <advance width="600"/>
  <unicode hex="00B8"/>
  <outline>
    <contour>
      <point x="419" y="-111" type="curve" smooth="yes"/>
      <point x="419" y="-51"/>
      <point x="383" y="-14"/>
      <point x="324" y="0" type="curve"/>
      <point x="329" y="24"/>
      <point x="332" y="39"/>
      <point x="336" y="56" type="curve"/>
      <point x="284" y="56"/>
      <point x="276" y="51"/>
      <point x="271" y="41" type="curve" smooth="yes"/>
      <point x="259" y="17"/>
      <point x="254" y="3"/>
      <point x="240" y="-25" type="curve" smooth="yes"/>
      <point x="236" y="-34"/>
      <point x="241" y="-40"/>
      <point x="248" y="-40" type="curve" smooth="yes"/>
      <point x="285" y="-40"/>
      <point x="298" y="-52"/>
      <point x="298" y="-79" type="curve" smooth="yes"/>
      <point x="298" y="-104"/>
      <point x="277" y="-120"/>
      <point x="242" y="-120" type="curve" smooth="yes"/>
      <point x="216" y="-120"/>
      <point x="199" y="-115"/>
      <point x="180" y="-105" type="curve"/>
      <point x="168" y="-105" type="line"/>
      <point x="168" y="-130"/>
      <point x="168" y="-186"/>
      <point x="168" y="-220" type="curve" smooth="yes"/>
      <point x="168" y="-229"/>
      <point x="190" y="-250"/>
      <point x="260" y="-250" type="curve" smooth="yes"/>
      <point x="369" y="-250"/>
      <point x="419" y="-188"/>
    </contour>
  </outline>
</glyph>
<glyph name="onesuperior" format="1">
  <advance width="600"/>
  <unicode hex="00B9"/>
  <outline>
    <contour>
      <point x="370" y="391" type="curve"/>
      <point x="370" y="494"/>
      <point x="370" y="597"/>
      <point x="370" y="699" type="curve" smooth="yes"/>
      <point x="370" y="706"/>
      <point x="366" y="710"/>
      <point x="359" y="710" type="curve" smooth="yes"/>
      <point x="274" y="710" type="line"/>
      <point x="274" y="609"/>
      <point x="274" y="506"/>
      <point x="274" y="404" type="curve" smooth="yes"/>
      <point x="274" y="395"/>
      <point x="326" y="391"/>
    </contour>
    <contour>
      <point x="166" y="459" type="line"/>
      <point x="166" y="438"/>
      <point x="166" y="413"/>
      <point x="166" y="377" type="curve" smooth="yes"/>
      <point x="166" y="369"/>
      <point x="170" y="366"/>
      <point x="177" y="366" type="curve" smooth="yes"/>
      <point x="434" y="366" type="line"/>
      <point x="434" y="387"/>
      <point x="434" y="428"/>
      <point x="434" y="448" type="curve" smooth="yes"/>
      <point x="434" y="455"/>
      <point x="430" y="459"/>
      <point x="423" y="459" type="curve" smooth="yes"/>
    </contour>
    <contour>
      <point x="180" y="528" type="curve" smooth="yes"/>
      <point x="187" y="528"/>
      <point x="192" y="531"/>
      <point x="317" y="640" type="curve" smooth="yes"/>
      <point x="354" y="675"/>
      <point x="331" y="710"/>
      <point x="303" y="710" type="curve"/>
      <point x="266" y="710" type="line"/>
      <point x="235" y="682"/>
      <point x="205" y="655"/>
      <point x="174" y="627" type="curve"/>
      <point x="174" y="534" type="line" smooth="yes"/>
      <point x="174" y="530"/>
      <point x="176" y="528"/>
    </contour>
  </outline>
</glyph>
<glyph name="ordmasculine" format="1">
  <advance width="600"/>
  <unicode hex="00BA"/>
  <outline>
    <contour>
      <point x="302" y="762" type="curve" smooth="yes"/>
      <point x="176" y="762"/>
      <point x="90" y="676"/>
      <point x="90" y="552" type="curve" smooth="yes"/>
      <point x="90" y="507" type="line" smooth="yes"/>
      <point x="90" y="373"/>
      <point x="175" y="288"/>
      <point x="298" y="288" type="curve" smooth="yes"/>
      <point x="310" y="288"/>
      <point x="317" y="299"/>
      <point x="296" y="406" type="curve"/>
      <point x="239" y="406"/>
      <point x="216" y="434"/>
      <point x="216" y="498" type="curve" smooth="yes"/>
      <point x="216" y="556" type="line" smooth="yes"/>
      <point x="216" y="612"/>
      <point x="247" y="644"/>
      <point x="304" y="644" type="curve" smooth="yes"/>
      <point x="345" y="644"/>
      <point x="369" y="644"/>
      <point x="394" y="644" type="curve"/>
      <point x="394" y="720"/>
      <point x="360" y="762"/>
    </contour>
    <contour>
      <point x="298" y="288" type="curve" smooth="yes"/>
      <point x="423" y="288"/>
      <point x="510" y="374"/>
      <point x="510" y="498" type="curve" smooth="yes"/>
      <point x="510" y="544" type="line" smooth="yes"/>
      <point x="510" y="677"/>
      <point x="425" y="762"/>
      <point x="302" y="762" type="curve" smooth="yes"/>
      <point x="296" y="762"/>
      <point x="292" y="756"/>
      <point x="304" y="644" type="curve"/>
      <point x="360" y="644"/>
      <point x="384" y="618"/>
      <point x="384" y="552" type="curve" smooth="yes"/>
      <point x="384" y="494" type="line" smooth="yes"/>
      <point x="384" y="438"/>
      <point x="352" y="406"/>
      <point x="296" y="406" type="curve" smooth="yes"/>
      <point x="255" y="406"/>
      <point x="229" y="406"/>
      <point x="204" y="406" type="curve"/>
      <point x="204" y="322"/>
      <point x="241" y="288"/>
    </contour>
  </outline>
</glyph>
<glyph name="onequarter" format="1">
  <advance width="600"/>
  <unicode hex="00BC"/>
  <outline>
    <contour>
      <point x="240" y="391" type="curve"/>
      <point x="240" y="494"/>
      <point x="240" y="597"/>
      <point x="240" y="699" type="curve" smooth="yes"/>
      <point x="240" y="706"/>
      <point x="236" y="710"/>
      <point x="229" y="710" type="curve" smooth="yes"/>
      <point x="144" y="710" type="line"/>
      <point x="144" y="609"/>
      <point x="144" y="506"/>
      <point x="144" y="404" type="curve" smooth="yes"/>
      <point x="144" y="395"/>
      <point x="196" y="391"/>
    </contour>
    <contour>
      <point x="36" y="459" type="line"/>
      <point x="36" y="438"/>
      <point x="36" y="413"/>
      <point x="36" y="377" type="curve" smooth="yes"/>
      <point x="36" y="369"/>
      <point x="40" y="366"/>
      <point x="47" y="366" type="curve" smooth="yes"/>
      <point x="304" y="366" type="line"/>
      <point x="304" y="387"/>
      <point x="304" y="428"/>
      <point x="304" y="448" type="curve" smooth="yes"/>
      <point x="304" y="455"/>
      <point x="300" y="459"/>
      <point x="293" y="459" type="curve" smooth="yes"/>
    </contour>
    <contour>
      <point x="50" y="528" type="curve" smooth="yes"/>
      <point x="57" y="528"/>
      <point x="62" y="531"/>
      <point x="187" y="640" type="curve" smooth="yes"/>
      <point x="224" y="675"/>
      <point x="201" y="710"/>
      <point x="173" y="710" type="curve"/>
      <point x="136" y="710" type="line"/>
      <point x="105" y="682"/>
      <point x="75" y="655"/>
      <point x="44" y="627" type="curve"/>
      <point x="44" y="534" type="line" smooth="yes"/>
      <point x="44" y="530"/>
      <point x="46" y="528"/>
    </contour>
    <contour>
      <point x="337" y="106" type="curve"/>
      <point x="388" y="183"/>
      <point x="436" y="257"/>
      <point x="489" y="335" type="curve"/>
      <point x="489" y="342" type="line"/>
      <point x="462" y="342"/>
      <point x="420" y="342"/>
      <point x="388" y="342" type="curve" smooth="yes"/>
      <point x="383" y="342"/>
      <point x="379" y="341"/>
      <point x="374" y="334" type="curve" smooth="yes"/>
      <point x="356" y="306"/>
      <point x="252" y="148"/>
      <point x="252" y="146" type="curve" smooth="yes"/>
      <point x="252" y="124"/>
      <point x="303" y="106"/>
    </contour>
    <contour>
      <point x="580" y="68" type="line"/>
      <point x="580" y="93"/>
      <point x="580" y="125"/>
      <point x="580" y="150" type="curve" smooth="yes"/>
      <point x="580" y="157"/>
      <point x="576" y="161"/>
      <point x="569" y="161" type="curve" smooth="yes"/>
      <point x="355" y="161" type="line" smooth="yes"/>
      <point x="335" y="161"/>
      <point x="314" y="158"/>
      <point x="252" y="146" type="curve"/>
      <point x="252" y="79" type="line" smooth="yes"/>
      <point x="252" y="73"/>
      <point x="256" y="68"/>
      <point x="263" y="68" type="curve" smooth="yes"/>
    </contour>
    <contour>
      <point x="539" y="0" type="curve"/>
      <point x="539" y="21"/>
      <point x="539" y="32"/>
      <point x="539" y="52" type="curve" smooth="yes"/>
      <point x="539" y="216" type="line" smooth="yes"/>
      <point x="539" y="223"/>
      <point x="536" y="227"/>
      <point x="528" y="227" type="curve" smooth="yes"/>
      <point x="473" y="227" type="line"/>
      <point x="458" y="193"/>
      <point x="443" y="159"/>
      <point x="443" y="153" type="curve" smooth="yes"/>
      <point x="443" y="11" type="line" smooth="yes"/>
      <point x="443" y="3"/>
      <point x="447" y="0"/>
      <point x="454" y="0" type="curve" smooth="yes"/>
      <point x="482" y="0"/>
      <point x="511" y="0"/>
    </contour>
    <contour>
      <point x="357" y="405" type="curve"/>
      <point x="379" y="405"/>
      <point x="404" y="405"/>
      <point x="441" y="405" type="curve" smooth="yes"/>
      <point x="446" y="405"/>
      <point x="448" y="406"/>
      <point x="451" y="412" type="curve" smooth="yes"/>
      <point x="495" y="507"/>
      <point x="539" y="602"/>
      <point x="583" y="697" type="curve" smooth="yes"/>
      <point x="587" y="705"/>
      <point x="583" y="710"/>
      <point x="575" y="710" type="curve" smooth="yes"/>
      <point x="526" y="710"/>
      <point x="497" y="710"/>
      <point x="439" y="710" type="curve"/>
      <point x="412" y="608"/>
      <point x="384" y="507"/>
    </contour>
    <contour>
      <point x="243" y="296" type="curve"/>
      <point x="221" y="296"/>
      <point x="196" y="296"/>
      <point x="159" y="296" type="curve" smooth="yes"/>
      <point x="154" y="296"/>
      <point x="152" y="295"/>
      <point x="149" y="289" type="curve" smooth="yes"/>
      <point x="105" y="194"/>
      <point x="61" y="99"/>
      <point x="17" y="4" type="curve" smooth="yes"/>
      <point x="13" y="-4"/>
      <point x="17" y="-9"/>
      <point x="25" y="-9" type="curve" smooth="yes"/>
      <point x="74" y="-9"/>
      <point x="103" y="-9"/>
      <point x="161" y="-9" type="curve"/>
      <point x="188" y="93"/>
      <point x="216" y="194"/>
    </contour>
  </outline>
</glyph>
<glyph name="onehalf" format="1">
  <advance width="600"/>
  <unicode hex="00BD"/>
  <outline>
    <contour>
      <point x="230" y="391" type="curve"/>
      <point x="230" y="494"/>
      <point x="230" y="597"/>
      <point x="230" y="699" type="curve" smooth="yes"/>
      <point x="230" y="706"/>
      <point x="226" y="710"/>
      <point x="219" y="710" type="curve" smooth="yes"/>
      <point x="134" y="710" type="line"/>
      <point x="134" y="609"/>
      <point x="134" y="506"/>
      <point x="134" y="404" type="curve" smooth="yes"/>
      <point x="134" y="395"/>
      <point x="186" y="391"/>
    </contour>
    <contour>
      <point x="26" y="459" type="line"/>
      <point x="26" y="432"/>
      <point x="26" y="404"/>
      <point x="26" y="377" type="curve" smooth="yes"/>
      <point x="26" y="369"/>
      <point x="30" y="366"/>
      <point x="37" y="366" type="curve" smooth="yes"/>
      <point x="294" y="366" type="line"/>
      <point x="294" y="393"/>
      <point x="294" y="421"/>
      <point x="294" y="448" type="curve" smooth="yes"/>
      <point x="294" y="455"/>
      <point x="290" y="459"/>
      <point x="283" y="459" type="curve" smooth="yes"/>
    </contour>
    <contour>
      <point x="40" y="524" type="curve" smooth="yes"/>
      <point x="47" y="524"/>
      <point x="52" y="527"/>
      <point x="173" y="640" type="curve" smooth="yes"/>
      <point x="209" y="676"/>
      <point x="191" y="710"/>
      <point x="163" y="710" type="curve"/>
      <point x="126" y="710" type="line"/>
      <point x="95" y="682"/>
      <point x="65" y="655"/>
      <point x="34" y="627" type="curve"/>
      <point x="34" y="530" type="line" smooth="yes"/>
      <point x="34" y="526"/>
      <point x="36" y="524"/>
    </contour>
    <contour>
      <point x="413" y="249" type="curve" smooth="yes"/>
      <point x="449" y="249"/>
      <point x="456" y="242"/>
      <point x="456" y="233" type="curve"/>
      <point x="503" y="233"/>
      <point x="552" y="243"/>
      <point x="552" y="248" type="curve" smooth="yes"/>
      <point x="552" y="310"/>
      <point x="492" y="341"/>
      <point x="415" y="341" type="curve" smooth="yes"/>
      <point x="365" y="341"/>
      <point x="319" y="331"/>
      <point x="306" y="318" type="curve" smooth="yes"/>
      <point x="301" y="313"/>
      <point x="301" y="310"/>
      <point x="301" y="304" type="curve" smooth="yes"/>
      <point x="301" y="278"/>
      <point x="301" y="254"/>
      <point x="301" y="231" type="curve"/>
      <point x="313" y="231" type="line"/>
      <point x="352" y="245"/>
      <point x="375" y="249"/>
    </contour>
    <contour>
      <point x="456" y="295" type="curve"/>
      <point x="456" y="273"/>
      <point x="456" y="247"/>
      <point x="456" y="233" type="curve" smooth="yes"/>
      <point x="456" y="221"/>
      <point x="453" y="217"/>
      <point x="394" y="198" type="curve" smooth="yes"/>
      <point x="311" y="173"/>
      <point x="291" y="133"/>
      <point x="291" y="82" type="curve" smooth="yes"/>
      <point x="291" y="76"/>
      <point x="346" y="77"/>
      <point x="387" y="77" type="curve"/>
      <point x="387" y="107"/>
      <point x="395" y="114"/>
      <point x="463" y="136" type="curve" smooth="yes"/>
      <point x="532" y="158"/>
      <point x="552" y="185"/>
      <point x="552" y="239" type="curve" smooth="yes"/>
      <point x="552" y="248" type="line" smooth="yes"/>
      <point x="552" y="272"/>
      <point x="492" y="295"/>
    </contour>
    <contour>
      <point x="556" y="0" type="line"/>
      <point x="556" y="28"/>
      <point x="556" y="48"/>
      <point x="556" y="76" type="curve" smooth="yes"/>
      <point x="556" y="83"/>
      <point x="552" y="87"/>
      <point x="545" y="87" type="curve" smooth="yes"/>
      <point x="338" y="87" type="line" smooth="yes"/>
      <point x="324" y="87"/>
      <point x="309" y="85"/>
      <point x="291" y="82" type="curve"/>
      <point x="291" y="59"/>
      <point x="291" y="34"/>
      <point x="291" y="11" type="curve" smooth="yes"/>
      <point x="291" y="4"/>
      <point x="295" y="0"/>
      <point x="302" y="0" type="curve" smooth="yes"/>
    </contour>
    <contour>
      <point x="357" y="405" type="curve"/>
      <point x="379" y="405"/>
      <point x="404" y="405"/>
      <point x="441" y="405" type="curve" smooth="yes"/>
      <point x="446" y="405"/>
      <point x="448" y="406"/>
      <point x="451" y="412" type="curve" smooth="yes"/>
      <point x="495" y="507"/>
      <point x="539" y="602"/>
      <point x="583" y="697" type="curve" smooth="yes"/>
      <point x="587" y="705"/>
      <point x="583" y="710"/>
      <point x="575" y="710" type="curve" smooth="yes"/>
      <point x="526" y="710"/>
      <point x="497" y="710"/>
      <point x="439" y="710" type="curve"/>
      <point x="412" y="608"/>
      <point x="384" y="507"/>
    </contour>
    <contour>
      <point x="243" y="296" type="curve"/>
      <point x="221" y="296"/>
      <point x="196" y="296"/>
      <point x="159" y="296" type="curve" smooth="yes"/>
      <point x="154" y="296"/>
      <point x="152" y="295"/>
      <point x="149" y="289" type="curve" smooth="yes"/>
      <point x="105" y="194"/>
      <point x="61" y="99"/>
      <point x="17" y="4" type="curve" smooth="yes"/>
      <point x="13" y="-4"/>
      <point x="17" y="-9"/>
      <point x="25" y="-9" type="curve" smooth="yes"/>
      <point x="74" y="-9"/>
      <point x="103" y="-9"/>
      <point x="161" y="-9" type="curve"/>
      <point x="188" y="93"/>
      <point x="216" y="194"/>
    </contour>
  </outline>
</glyph>
<glyph name="Aacute" format="1">
  <advance width="600"/>
  <unicode hex="00C1"/>
  <outline>
    <contour>
      <point x="186" y="0" type="curve"/>
      <point x="266" y="433"/>
      <point x="280" y="511"/>
      <point x="302" y="628" type="curve"/>
      <point x="308" y="660"/>
      <point x="329" y="681"/>
      <point x="421" y="700" type="curve"/>
      <point x="169" y="700" type="line"/>
      <point x="149" y="596"/>
      <point x="103" y="355"/>
      <point x="37" y="13" type="curve"/>
      <point x="35" y="3"/>
      <point x="41" y="0"/>
      <point x="45" y="0" type="curve" smooth="yes"/>
      <point x="92" y="0"/>
      <point x="139" y="0"/>
    </contour>
    <contour>
      <point x="566" y="0" type="curve"/>
      <point x="512" y="277"/>
      <point x="467" y="515"/>
      <point x="433" y="689" type="curve"/>
      <point x="432" y="694"/>
      <point x="431" y="695"/>
      <point x="429" y="697" type="curve" smooth="yes"/>
      <point x="426" y="700"/>
      <point x="425" y="700"/>
      <point x="421" y="700" type="curve"/>
      <point x="277" y="700"/>
      <point x="257" y="689"/>
      <point x="257" y="556" type="curve"/>
      <point x="273" y="556"/>
      <point x="294" y="556"/>
      <point x="306" y="556" type="curve" smooth="yes"/>
      <point x="310" y="556"/>
      <point x="313" y="555"/>
      <point x="314" y="550" type="curve"/>
      <point x="335" y="432"/>
      <point x="359" y="304"/>
      <point x="412" y="11" type="curve"/>
      <point x="413" y="6"/>
      <point x="414" y="4"/>
      <point x="415" y="3" type="curve" smooth="yes"/>
      <point x="417" y="1"/>
      <point x="419" y="0"/>
      <point x="423" y="0" type="curve" smooth="yes"/>
      <point x="471" y="0"/>
      <point x="518" y="0"/>
    </contour>
    <contour>
      <point x="147" y="292" type="line"/>
      <point x="147" y="161" type="line" smooth="yes"/>
      <point x="147" y="158"/>
      <point x="148" y="155"/>
      <point x="150" y="153" type="curve" smooth="yes"/>
      <point x="152" y="151"/>
      <point x="155" y="150"/>
      <point x="158" y="150" type="curve"/>
      <point x="467" y="150" type="line"/>
      <point x="467" y="288"/>
      <point x="462" y="292"/>
      <point x="456" y="292" type="curve" smooth="yes"/>
    </contour>
    <contour>
      <point x="355" y="775" type="curve" smooth="yes"/>
      <point x="363" y="775"/>
      <point x="368" y="778"/>
      <point x="371" y="781" type="curve" smooth="yes"/>
      <point x="443" y="858"/>
      <point x="468" y="887"/>
      <point x="519" y="943" type="curve" smooth="yes"/>
      <point x="524" y="949"/>
      <point x="521" y="957"/>
      <point x="513" y="957" type="curve" smooth="yes"/>
      <point x="442" y="957"/>
      <point x="424" y="957"/>
      <point x="341" y="957" type="curve"/>
      <point x="306" y="896"/>
      <point x="270" y="836"/>
      <point x="235" y="775" type="curve"/>
      <point x="273" y="775"/>
      <point x="292" y="775"/>
    </contour>
  </outline>
</glyph>
<glyph name="Eacute" format="1">
  <advance width="600"/>
  <unicode hex="00C9"/>
  <outline>
    <contour>
      <point x="30" y="700" type="line"/>
      <point x="30" y="654"/>
      <point x="30" y="615"/>
      <point x="30" y="569" type="curve" smooth="yes"/>
      <point x="30" y="566"/>
      <point x="31" y="563"/>
      <point x="33" y="561" type="curve" smooth="yes"/>
      <point x="35" y="559"/>
      <point x="38" y="558"/>
      <point x="41" y="558" type="curve" smooth="yes"/>
      <point x="540" y="558" type="line"/>
      <point x="540" y="604"/>
      <point x="540" y="643"/>
      <point x="540" y="689" type="curve" smooth="yes"/>
      <point x="540" y="692"/>
      <point x="539" y="695"/>
      <point x="537" y="697" type="curve" smooth="yes"/>
      <point x="535" y="699"/>
      <point x="532" y="700"/>
      <point x="529" y="700" type="curve" smooth="yes"/>
    </contour>
    <contour>
      <point x="235" y="100" type="curve"/>
      <point x="235" y="639" type="line" smooth="yes"/>
      <point x="235" y="645"/>
      <point x="230" y="650"/>
      <point x="75" y="650" type="curve"/>
      <point x="75" y="142" type="line"/>
      <point x="75" y="121"/>
      <point x="105" y="100"/>
    </contour>
    <contour>
      <point x="75" y="142" type="line"/>
      <point x="75" y="11" type="line" smooth="yes"/>
      <point x="75" y="5"/>
      <point x="80" y="0"/>
      <point x="86" y="0" type="curve" smooth="yes"/>
      <point x="540" y="0" type="line"/>
      <point x="540" y="46"/>
      <point x="540" y="85"/>
      <point x="540" y="131" type="curve" smooth="yes"/>
      <point x="540" y="137"/>
      <point x="535" y="142"/>
      <point x="529" y="142" type="curve" smooth="yes"/>
    </contour>
    <contour>
      <point x="145" y="420" type="line"/>
      <point x="145" y="289"/>
      <point x="150" y="283"/>
      <point x="156" y="283" type="curve" smooth="yes"/>
      <point x="480" y="283" type="line"/>
      <point x="480" y="322"/>
      <point x="480" y="362"/>
      <point x="480" y="409" type="curve" smooth="yes"/>
      <point x="480" y="412"/>
      <point x="479" y="415"/>
      <point x="477" y="417" type="curve" smooth="yes"/>
      <point x="475" y="419"/>
      <point x="472" y="420"/>
      <point x="469" y="420" type="curve" smooth="yes"/>
    </contour>
    <contour>
      <point x="355" y="775" type="curve" smooth="yes"/>
      <point x="363" y="775"/>
      <point x="368" y="778"/>
      <point x="371" y="781" type="curve" smooth="yes"/>
      <point x="443" y="858"/>
      <point x="468" y="887"/>
      <point x="519" y="943" type="curve" smooth="yes"/>
      <point x="524" y="949"/>
      <point x="521" y="957"/>
      <point x="513" y="957" type="curve" smooth="yes"/>
      <point x="442" y="957"/>
      <point x="424" y="957"/>
      <point x="341" y="957" type="curve"/>
      <point x="306" y="896"/>
      <point x="270" y="836"/>
      <point x="235" y="775" type="curve"/>
      <point x="273" y="775"/>
      <point x="292" y="775"/>
    </contour>
  </outline>
</glyph>
<glyph name="Eth" format="1">
  <advance width="600"/>
  <unicode hex="00D0"/>
  <outline>
    <contour>
      <point x="10" y="410" type="line"/>
      <point x="10" y="376"/>
      <point x="10" y="345"/>
      <point x="10" y="311" type="curve" smooth="yes"/>
      <point x="10" y="304"/>
      <point x="14" y="300"/>
      <point x="21" y="300" type="curve" smooth="yes"/>
      <point x="320" y="300" type="line"/>
      <point x="320" y="334"/>
      <point x="320" y="365"/>
      <point x="320" y="399" type="curve" smooth="yes"/>
      <point x="320" y="405"/>
      <point x="315" y="410"/>
      <point x="309" y="410" type="curve"/>
    </contour>
    <contour>
      <point x="230" y="4" type="curve"/>
      <point x="230" y="639" type="line" smooth="yes"/>
      <point x="230" y="645"/>
      <point x="225" y="650"/>
      <point x="75" y="650" type="curve"/>
      <point x="75" y="11" type="line" smooth="yes"/>
      <point x="75" y="5"/>
      <point x="80" y="4"/>
    </contour>
    <contour>
      <point x="40" y="700" type="curve"/>
      <point x="40" y="654"/>
      <point x="40" y="615"/>
      <point x="40" y="569" type="curve"/>
      <point x="40" y="566"/>
      <point x="41" y="563"/>
      <point x="43" y="561" type="curve" smooth="yes"/>
      <point x="45" y="559"/>
      <point x="48" y="558"/>
      <point x="51" y="558" type="curve" smooth="yes"/>
      <point x="71" y="558"/>
      <point x="93" y="558"/>
      <point x="115" y="558" type="curve" smooth="yes"/>
      <point x="176" y="558"/>
      <point x="244" y="558"/>
      <point x="296" y="558" type="curve" smooth="yes"/>
      <point x="346" y="558"/>
      <point x="371" y="558"/>
      <point x="398" y="558" type="curve"/>
      <point x="398" y="642"/>
      <point x="357" y="700"/>
      <point x="290" y="700" type="curve" smooth="yes"/>
      <point x="222" y="700"/>
      <point x="109" y="700"/>
    </contour>
    <contour>
      <point x="540" y="241" type="curve" smooth="yes"/>
      <point x="540" y="451" type="line" smooth="yes"/>
      <point x="540" y="603"/>
      <point x="472" y="700"/>
      <point x="290" y="700" type="curve"/>
      <point x="284" y="700"/>
      <point x="270" y="684"/>
      <point x="296" y="558" type="curve"/>
      <point x="363" y="558"/>
      <point x="385" y="531"/>
      <point x="385" y="443" type="curve" smooth="yes"/>
      <point x="385" y="241" type="line" smooth="yes"/>
      <point x="385" y="183"/>
      <point x="349" y="142"/>
      <point x="295" y="142" type="curve" smooth="yes"/>
      <point x="269" y="142"/>
      <point x="156" y="142"/>
      <point x="105" y="142" type="curve"/>
      <point x="85" y="94"/>
      <point x="75" y="67"/>
      <point x="75" y="11" type="curve" smooth="yes"/>
      <point x="75" y="5"/>
      <point x="80" y="0"/>
      <point x="86" y="0" type="curve" smooth="yes"/>
      <point x="304" y="0" type="line" smooth="yes"/>
      <point x="451" y="0"/>
      <point x="540" y="90"/>
    </contour>
  </outline>
</glyph>
<glyph name="Ntilde" format="1">
  <advance width="600"/>
  <unicode hex="00D1"/>
  <outline>
    <contour>
      <point x="210" y="0" type="curve"/>
      <point x="210" y="163" type="line"/>
      <point x="210" y="202"/>
      <point x="172" y="692"/>
      <point x="167" y="697" type="curve" smooth="yes"/>
      <point x="165" y="699"/>
      <point x="162" y="700"/>
      <point x="159" y="700" type="curve"/>
      <point x="126" y="700"/>
      <point x="65" y="700"/>
      <point x="60" y="700" type="curve"/>
      <point x="60" y="653"/>
      <point x="60" y="607"/>
      <point x="60" y="560" type="curve" smooth="yes"/>
      <point x="60" y="11" type="line"/>
      <point x="60" y="5"/>
      <point x="65" y="0"/>
      <point x="71" y="0" type="curve"/>
      <point x="117" y="0"/>
      <point x="164" y="0"/>
    </contour>
    <contour>
      <point x="540" y="0" type="line"/>
      <point x="540" y="689" type="line"/>
      <point x="540" y="695"/>
      <point x="535" y="700"/>
      <point x="529" y="700" type="curve"/>
      <point x="390" y="700" type="line"/>
      <point x="390" y="494" type="line"/>
      <point x="390" y="466"/>
      <point x="431" y="5"/>
      <point x="433" y="3" type="curve" smooth="yes"/>
      <point x="435" y="1"/>
      <point x="438" y="0"/>
      <point x="441" y="0" type="curve"/>
    </contour>
    <contour>
      <point x="159" y="700" type="line"/>
      <point x="69" y="700"/>
      <point x="78" y="689"/>
      <point x="84" y="676" type="curve" smooth="yes"/>
      <point x="189" y="454"/>
      <point x="294" y="230"/>
      <point x="399" y="8" type="curve"/>
      <point x="402" y="1"/>
      <point x="407" y="0"/>
      <point x="411" y="0" type="curve" smooth="yes"/>
      <point x="415" y="0"/>
      <point x="447" y="0"/>
      <point x="450" y="0" type="curve"/>
      <point x="465" y="0"/>
      <point x="461" y="102"/>
      <point x="461" y="157" type="curve"/>
      <point x="379" y="336"/>
      <point x="296" y="517"/>
      <point x="217" y="690" type="curve"/>
      <point x="213" y="699"/>
      <point x="211" y="700"/>
      <point x="199" y="700" type="curve"/>
    </contour>
    <contour>
      <point x="410" y="906" type="curve" smooth="yes"/>
      <point x="337" y="906"/>
      <point x="286" y="961"/>
      <point x="196" y="961" type="curve" smooth="yes"/>
      <point x="151" y="961"/>
      <point x="121" y="947"/>
      <point x="100" y="924" type="curve" smooth="yes"/>
      <point x="93" y="916"/>
      <point x="93" y="912"/>
      <point x="93" y="901" type="curve" smooth="yes"/>
      <point x="93" y="872"/>
      <point x="93" y="816"/>
      <point x="93" y="779" type="curve"/>
      <point x="113" y="779" type="line"/>
      <point x="133" y="807"/>
      <point x="159" y="819"/>
      <point x="190" y="819" type="curve" smooth="yes"/>
      <point x="263" y="819"/>
      <point x="314" y="764"/>
      <point x="404" y="764" type="curve" smooth="yes"/>
      <point x="449" y="764"/>
      <point x="479" y="778"/>
      <point x="500" y="801" type="curve" smooth="yes"/>
      <point x="507" y="808"/>
      <point x="507" y="812"/>
      <point x="507" y="824" type="curve" smooth="yes"/>
      <point x="507" y="852"/>
      <point x="507" y="909"/>
      <point x="507" y="946" type="curve"/>
      <point x="487" y="946" type="line"/>
      <point x="467" y="917"/>
      <point x="441" y="906"/>
    </contour>
  </outline>
</glyph>
<glyph name="Oacute" format="1">
  <advance width="600"/>
  <unicode hex="00D3"/>
  <outline>
    <contour>
      <point x="295" y="720" type="curve" smooth="yes"/>
      <point x="156" y="720"/>
      <point x="55" y="625"/>
      <point x="55" y="458" type="curve" smooth="yes"/>
      <point x="55" y="236" type="line" smooth="yes"/>
      <point x="55" y="71"/>
      <point x="144" y="-20"/>
      <point x="304" y="-20" type="curve" smooth="yes"/>
      <point x="322" y="-20"/>
      <point x="339" y="0"/>
      <point x="300" y="122" type="curve"/>
      <point x="230" y="122"/>
      <point x="205" y="156"/>
      <point x="205" y="235" type="curve" smooth="yes"/>
      <point x="205" y="455" type="line" smooth="yes"/>
      <point x="205" y="544"/>
      <point x="244" y="578"/>
      <point x="299" y="578" type="curve" smooth="yes"/>
      <point x="359" y="578"/>
      <point x="388" y="578"/>
      <point x="408" y="578" type="curve"/>
      <point x="408" y="646"/>
      <point x="399" y="720"/>
    </contour>
    <contour>
      <point x="304" y="-20" type="curve" smooth="yes"/>
      <point x="443" y="-20"/>
      <point x="544" y="75"/>
      <point x="544" y="242" type="curve" smooth="yes"/>
      <point x="544" y="465" type="line" smooth="yes"/>
      <point x="544" y="630"/>
      <point x="455" y="720"/>
      <point x="295" y="720" type="curve" smooth="yes"/>
      <point x="277" y="720"/>
      <point x="260" y="700"/>
      <point x="299" y="578" type="curve"/>
      <point x="369" y="578"/>
      <point x="394" y="544"/>
      <point x="394" y="465" type="curve" smooth="yes"/>
      <point x="394" y="245" type="line" smooth="yes"/>
      <point x="394" y="156"/>
      <point x="355" y="122"/>
      <point x="300" y="122" type="curve" smooth="yes"/>
      <point x="240" y="122"/>
      <point x="211" y="122"/>
      <point x="191" y="122" type="curve"/>
      <point x="191" y="54"/>
      <point x="200" y="-20"/>
    </contour>
    <contour>
      <point x="355" y="775" type="curve" smooth="yes"/>
      <point x="363" y="775"/>
      <point x="368" y="778"/>
      <point x="371" y="781" type="curve" smooth="yes"/>
      <point x="443" y="858"/>
      <point x="468" y="887"/>
      <point x="519" y="943" type="curve" smooth="yes"/>
      <point x="524" y="949"/>
      <point x="521" y="957"/>
      <point x="513" y="957" type="curve" smooth="yes"/>
      <point x="442" y="957"/>
      <point x="424" y="957"/>
      <point x="341" y="957" type="curve"/>
      <point x="306" y="896"/>
      <point x="270" y="836"/>
      <point x="235" y="775" type="curve"/>
      <point x="273" y="775"/>
      <point x="292" y="775"/>
    </contour>
  </outline>
</glyph>
<glyph name="Ocircumflex" format="1">
  <advance width="600"/>
  <unicode hex="00D4"/>
  <outline>
    <contour>
      <point x="295" y="720" type="curve" smooth="yes"/>
      <point x="156" y="720"/>
      <point x="55" y="625"/>
      <point x="55" y="458" type="curve" smooth="yes"/>
      <point x="55" y="236" type="line" smooth="yes"/>
      <point x="55" y="71"/>
      <point x="144" y="-20"/>
      <point x="304" y="-20" type="curve" smooth="yes"/>
      <point x="322" y="-20"/>
      <point x="339" y="0"/>
      <point x="300" y="122" type="curve"/>
      <point x="230" y="122"/>
      <point x="205" y="156"/>
      <point x="205" y="235" type="curve" smooth="yes"/>
      <point x="205" y="455" type="line" smooth="yes"/>
      <point x="205" y="544"/>
      <point x="244" y="578"/>
      <point x="299" y="578" type="curve" smooth="yes"/>
      <point x="359" y="578"/>
      <point x="388" y="578"/>
      <point x="408" y="578" type="curve"/>
      <point x="408" y="646"/>
      <point x="399" y="720"/>
    </contour>
    <contour>
      <point x="304" y="-20" type="curve" smooth="yes"/>
      <point x="443" y="-20"/>
      <point x="544" y="75"/>
      <point x="544" y="242" type="curve" smooth="yes"/>
      <point x="544" y="465" type="line" smooth="yes"/>
      <point x="544" y="630"/>
      <point x="455" y="720"/>
      <point x="295" y="720" type="curve" smooth="yes"/>
      <point x="277" y="720"/>
      <point x="260" y="700"/>
      <point x="299" y="578" type="curve"/>
      <point x="369" y="578"/>
      <point x="394" y="544"/>
      <point x="394" y="465" type="curve" smooth="yes"/>
      <point x="394" y="245" type="line" smooth="yes"/>
      <point x="394" y="156"/>
      <point x="355" y="122"/>
      <point x="300" y="122" type="curve" smooth="yes"/>
      <point x="240" y="122"/>
      <point x="211" y="122"/>
      <point x="191" y="122" type="curve"/>
      <point x="191" y="54"/>
      <point x="200" y="-20"/>
    </contour>
    <contour>
      <point x="203" y="775" type="line"/>
      <point x="248" y="813"/>
      <point x="295" y="852"/>
      <point x="358" y="905" type="curve"/>
      <point x="307" y="946"/>
      <point x="295" y="947"/>
      <point x="287" y="947" type="curve"/>
      <point x="218" y="947" type="line"/>
      <point x="192" y="920"/>
      <point x="112" y="837"/>
      <point x="83" y="807" type="curve" smooth="yes"/>
      <point x="67" y="790"/>
      <point x="65" y="788"/>
      <point x="65" y="783" type="curve" smooth="yes"/>
      <point x="65" y="779"/>
      <point x="68" y="775"/>
      <point x="76" y="775" type="curve"/>
    </contour>
    <contour>
      <point x="549" y="775" type="curve"/>
      <point x="502" y="825"/>
      <point x="421" y="909"/>
      <point x="402" y="928" type="curve" smooth="yes"/>
      <point x="386" y="944"/>
      <point x="382" y="947"/>
      <point x="372" y="947" type="curve" smooth="yes"/>
      <point x="284" y="947" type="line"/>
      <point x="279" y="947"/>
      <point x="272" y="944"/>
      <point x="245" y="905" type="curve"/>
      <point x="309" y="851"/>
      <point x="367" y="802"/>
      <point x="388" y="785" type="curve" smooth="yes"/>
      <point x="397" y="777"/>
      <point x="402" y="775"/>
      <point x="417" y="775" type="curve" smooth="yes"/>
      <point x="469" y="775"/>
      <point x="521" y="775"/>
    </contour>
  </outline>
</glyph>
<glyph name="Otilde" format="1">
  <advance width="600"/>
  <unicode hex="00D5"/>
  <outline>
    <contour>
      <point x="295" y="720" type="curve" smooth="yes"/>
      <point x="156" y="720"/>
      <point x="55" y="625"/>
      <point x="55" y="458" type="curve" smooth="yes"/>
      <point x="55" y="236" type="line" smooth="yes"/>
      <point x="55" y="71"/>
      <point x="144" y="-20"/>
      <point x="304" y="-20" type="curve" smooth="yes"/>
      <point x="322" y="-20"/>
      <point x="339" y="0"/>
      <point x="300" y="122" type="curve"/>
      <point x="230" y="122"/>
      <point x="205" y="156"/>
      <point x="205" y="235" type="curve" smooth="yes"/>
      <point x="205" y="455" type="line" smooth="yes"/>
      <point x="205" y="544"/>
      <point x="244" y="578"/>
      <point x="299" y="578" type="curve" smooth="yes"/>
      <point x="359" y="578"/>
      <point x="388" y="578"/>
      <point x="408" y="578" type="curve"/>
      <point x="408" y="646"/>
      <point x="399" y="720"/>
    </contour>
    <contour>
      <point x="304" y="-20" type="curve" smooth="yes"/>
      <point x="443" y="-20"/>
      <point x="544" y="75"/>
      <point x="544" y="242" type="curve" smooth="yes"/>
      <point x="544" y="465" type="line" smooth="yes"/>
      <point x="544" y="630"/>
      <point x="455" y="720"/>
      <point x="295" y="720" type="curve" smooth="yes"/>
      <point x="277" y="720"/>
      <point x="260" y="700"/>
      <point x="299" y="578" type="curve"/>
      <point x="369" y="578"/>
      <point x="394" y="544"/>
      <point x="394" y="465" type="curve" smooth="yes"/>
      <point x="394" y="245" type="line" smooth="yes"/>
      <point x="394" y="156"/>
      <point x="355" y="122"/>
      <point x="300" y="122" type="curve" smooth="yes"/>
      <point x="240" y="122"/>
      <point x="211" y="122"/>
      <point x="191" y="122" type="curve"/>
      <point x="191" y="54"/>
      <point x="200" y="-20"/>
    </contour>
    <contour>
      <point x="410" y="907" type="curve" smooth="yes"/>
      <point x="337" y="907"/>
      <point x="286" y="962"/>
      <point x="196" y="962" type="curve" smooth="yes"/>
      <point x="151" y="962"/>
      <point x="121" y="948"/>
      <point x="100" y="925" type="curve" smooth="yes"/>
      <point x="93" y="917"/>
      <point x="93" y="913"/>
      <point x="93" y="902" type="curve" smooth="yes"/>
      <point x="93" y="873"/>
      <point x="93" y="817"/>
      <point x="93" y="780" type="curve"/>
      <point x="113" y="780" type="line"/>
      <point x="133" y="808"/>
      <point x="159" y="820"/>
      <point x="190" y="820" type="curve" smooth="yes"/>
      <point x="263" y="820"/>
      <point x="314" y="765"/>
      <point x="404" y="765" type="curve" smooth="yes"/>
      <point x="449" y="765"/>
      <point x="479" y="779"/>
      <point x="500" y="802" type="curve" smooth="yes"/>
      <point x="507" y="809"/>
      <point x="507" y="813"/>
      <point x="507" y="825" type="curve" smooth="yes"/>
      <point x="507" y="853"/>
      <point x="507" y="910"/>
      <point x="507" y="947" type="curve"/>
      <point x="487" y="947" type="line"/>
      <point x="467" y="918"/>
      <point x="441" y="907"/>
    </contour>
  </outline>
</glyph>
<glyph name="Oslash" format="1">
  <advance width="600"/>
  <unicode hex="00D8"/>
  <outline>
    <contour>
      <point x="568" y="776" type="curve"/>
      <point x="528" y="776"/>
      <point x="491" y="776"/>
      <point x="450" y="776" type="curve" smooth="yes"/>
      <point x="437" y="776"/>
      <point x="434" y="774"/>
      <point x="426" y="757" type="curve" smooth="yes"/>
      <point x="371" y="636"/>
      <point x="230" y="323"/>
      <point x="133" y="107" type="curve"/>
      <point x="137" y="100"/>
      <point x="148" y="94"/>
      <point x="158" y="94" type="curve" smooth="yes"/>
      <point x="176" y="94"/>
      <point x="230" y="98"/>
      <point x="234" y="106" type="curve" smooth="yes"/>
      <point x="252" y="143"/>
      <point x="402" y="444"/>
    </contour>
    <contour>
      <point x="110" y="90" type="curve"/>
      <point x="94" y="57"/>
      <point x="52" y="-31"/>
      <point x="31" y="-76" type="curve"/>
      <point x="42" y="-76"/>
      <point x="137" y="-76"/>
      <point x="151" y="-76" type="curve" smooth="yes"/>
      <point x="160" y="-76"/>
      <point x="162" y="-76"/>
      <point x="168" y="-64" type="curve"/>
      <point x="187" y="-24"/>
      <point x="220" y="46"/>
      <point x="238" y="84" type="curve"/>
      <point x="208" y="114"/>
      <point x="122" y="115"/>
    </contour>
    <contour>
      <point x="295" y="720" type="curve" smooth="yes"/>
      <point x="156" y="720"/>
      <point x="55" y="625"/>
      <point x="55" y="458" type="curve" smooth="yes"/>
      <point x="55" y="236" type="line" smooth="yes"/>
      <point x="55" y="71"/>
      <point x="144" y="-20"/>
      <point x="304" y="-20" type="curve" smooth="yes"/>
      <point x="322" y="-20"/>
      <point x="341" y="-8"/>
      <point x="300" y="111" type="curve"/>
      <point x="226" y="111"/>
      <point x="200" y="146"/>
      <point x="200" y="229" type="curve" smooth="yes"/>
      <point x="200" y="460" type="line" smooth="yes"/>
      <point x="200" y="554"/>
      <point x="241" y="589"/>
      <point x="299" y="589" type="curve" smooth="yes"/>
      <point x="362" y="589"/>
      <point x="392" y="589"/>
      <point x="413" y="589" type="curve"/>
      <point x="413" y="661"/>
      <point x="399" y="720"/>
    </contour>
    <contour>
      <point x="304" y="-20" type="curve" smooth="yes"/>
      <point x="443" y="-20"/>
      <point x="544" y="75"/>
      <point x="544" y="242" type="curve" smooth="yes"/>
      <point x="544" y="465" type="line" smooth="yes"/>
      <point x="544" y="630"/>
      <point x="455" y="720"/>
      <point x="295" y="720" type="curve" smooth="yes"/>
      <point x="277" y="720"/>
      <point x="258" y="708"/>
      <point x="299" y="589" type="curve"/>
      <point x="372" y="589"/>
      <point x="399" y="554"/>
      <point x="399" y="471" type="curve" smooth="yes"/>
      <point x="399" y="240" type="line" smooth="yes"/>
      <point x="399" y="146"/>
      <point x="358" y="111"/>
      <point x="300" y="111" type="curve" smooth="yes"/>
      <point x="237" y="111"/>
      <point x="207" y="111"/>
      <point x="186" y="111" type="curve"/>
      <point x="186" y="39"/>
      <point x="200" y="-20"/>
    </contour>
    <contour>
      <point x="299" y="711" type="move" name="top"/>
    </contour>
  </outline>
</glyph>
<glyph name="Ugrave" format="1">
  <advance width="600"/>
  <unicode hex="00D9"/>
  <outline>
    <contour>
      <point x="60" y="700" type="curve"/>
      <point x="60" y="667"/>
      <point x="60" y="633"/>
      <point x="60" y="600" type="curve" smooth="yes"/>
      <point x="60" y="158" type="line"/>
      <point x="60" y="107"/>
      <point x="125" y="108"/>
      <point x="220" y="108" type="curve"/>
      <point x="220" y="138"/>
      <point x="220" y="155"/>
      <point x="220" y="195" type="curve" smooth="yes"/>
      <point x="220" y="689" type="line"/>
      <point x="220" y="695"/>
      <point x="215" y="700"/>
      <point x="209" y="700" type="curve"/>
      <point x="159" y="700"/>
      <point x="110" y="700"/>
    </contour>
    <contour>
      <point x="205" y="-10" type="curve" smooth="yes"/>
      <point x="258" y="-10"/>
      <point x="321" y="16"/>
      <point x="363" y="59" type="curve" smooth="yes"/>
      <point x="422" y="118"/>
      <point x="447" y="179"/>
      <point x="423" y="249" type="curve"/>
      <point x="358" y="176"/>
      <point x="315" y="150"/>
      <point x="258" y="150" type="curve" smooth="yes"/>
      <point x="233" y="150"/>
      <point x="220" y="165"/>
      <point x="220" y="195" type="curve"/>
      <point x="104" y="195"/>
      <point x="60" y="174"/>
      <point x="60" y="158" type="curve" smooth="yes"/>
      <point x="60" y="65"/>
      <point x="112" y="-10"/>
    </contour>
    <contour>
      <point x="540" y="0" type="curve"/>
      <point x="540" y="32"/>
      <point x="540" y="70"/>
      <point x="540" y="110" type="curve" smooth="yes"/>
      <point x="540" y="689" type="line" smooth="yes"/>
      <point x="540" y="695"/>
      <point x="535" y="700"/>
      <point x="529" y="700" type="curve" smooth="yes"/>
      <point x="479" y="700"/>
      <point x="430" y="700"/>
      <point x="380" y="700" type="curve"/>
      <point x="380" y="11" type="line" smooth="yes"/>
      <point x="380" y="8"/>
      <point x="381" y="5"/>
      <point x="383" y="3" type="curve" smooth="yes"/>
      <point x="385" y="1"/>
      <point x="388" y="0"/>
      <point x="391" y="0" type="curve" smooth="yes"/>
      <point x="441" y="0"/>
      <point x="490" y="0"/>
    </contour>
    <contour>
      <point x="365" y="775" type="curve"/>
      <point x="330" y="836"/>
      <point x="294" y="896"/>
      <point x="259" y="957" type="curve"/>
      <point x="176" y="957"/>
      <point x="158" y="957"/>
      <point x="87" y="957" type="curve" smooth="yes"/>
      <point x="79" y="957"/>
      <point x="76" y="949"/>
      <point x="81" y="943" type="curve" smooth="yes"/>
      <point x="132" y="887"/>
      <point x="157" y="858"/>
      <point x="229" y="781" type="curve" smooth="yes"/>
      <point x="232" y="778"/>
      <point x="237" y="775"/>
      <point x="245" y="775" type="curve" smooth="yes"/>
      <point x="308" y="775"/>
      <point x="327" y="775"/>
    </contour>
  </outline>
</glyph>
<glyph name="Ucircumflex" format="1">
  <advance width="600"/>
  <unicode hex="00DB"/>
  <outline>
    <contour>
      <point x="60" y="700" type="curve"/>
      <point x="60" y="667"/>
      <point x="60" y="633"/>
      <point x="60" y="600" type="curve" smooth="yes"/>
      <point x="60" y="158" type="line"/>
      <point x="60" y="107"/>
      <point x="125" y="108"/>
      <point x="220" y="108" type="curve"/>
      <point x="220" y="138"/>
      <point x="220" y="155"/>
      <point x="220" y="195" type="curve" smooth="yes"/>
      <point x="220" y="689" type="line"/>
      <point x="220" y="695"/>
      <point x="215" y="700"/>
      <point x="209" y="700" type="curve"/>
      <point x="159" y="700"/>
      <point x="110" y="700"/>
    </contour>
    <contour>
      <point x="205" y="-10" type="curve" smooth="yes"/>
      <point x="258" y="-10"/>
      <point x="321" y="16"/>
      <point x="363" y="59" type="curve" smooth="yes"/>
      <point x="422" y="118"/>
      <point x="447" y="179"/>
      <point x="423" y="249" type="curve"/>
      <point x="358" y="176"/>
      <point x="315" y="150"/>
      <point x="258" y="150" type="curve" smooth="yes"/>
      <point x="233" y="150"/>
      <point x="220" y="165"/>
      <point x="220" y="195" type="curve"/>
      <point x="104" y="195"/>
      <point x="60" y="174"/>
      <point x="60" y="158" type="curve" smooth="yes"/>
      <point x="60" y="65"/>
      <point x="112" y="-10"/>
    </contour>
    <contour>
      <point x="540" y="0" type="curve"/>
      <point x="540" y="32"/>
      <point x="540" y="70"/>
      <point x="540" y="110" type="curve" smooth="yes"/>
      <point x="540" y="689" type="line" smooth="yes"/>
      <point x="540" y="695"/>
      <point x="535" y="700"/>
      <point x="529" y="700" type="curve" smooth="yes"/>
      <point x="479" y="700"/>
      <point x="430" y="700"/>
      <point x="380" y="700" type="curve"/>
      <point x="380" y="11" type="line" smooth="yes"/>
      <point x="380" y="8"/>
      <point x="381" y="5"/>
      <point x="383" y="3" type="curve" smooth="yes"/>
      <point x="385" y="1"/>
      <point x="388" y="0"/>
      <point x="391" y="0" type="curve" smooth="yes"/>
      <point x="441" y="0"/>
      <point x="490" y="0"/>
    </contour>
    <contour>
      <point x="203" y="775" type="line"/>
      <point x="248" y="813"/>
      <point x="295" y="852"/>
      <point x="358" y="905" type="curve"/>
      <point x="307" y="946"/>
      <point x="295" y="947"/>
      <point x="287" y="947" type="curve"/>
      <point x="218" y="947" type="line"/>
      <point x="192" y="920"/>
      <point x="112" y="837"/>
      <point x="83" y="807" type="curve" smooth="yes"/>
      <point x="67" y="790"/>
      <point x="65" y="788"/>
      <point x="65" y="783" type="curve" smooth="yes"/>
      <point x="65" y="779"/>
      <point x="68" y="775"/>
      <point x="76" y="775" type="curve"/>
    </contour>
    <contour>
      <point x="549" y="775" type="curve"/>
      <point x="502" y="825"/>
      <point x="421" y="909"/>
      <point x="402" y="928" type="curve" smooth="yes"/>
      <point x="386" y="944"/>
      <point x="382" y="947"/>
      <point x="372" y="947" type="curve" smooth="yes"/>
      <point x="284" y="947" type="line"/>
      <point x="279" y="947"/>
      <point x="272" y="944"/>
      <point x="245" y="905" type="curve"/>
      <point x="309" y="851"/>
      <point x="367" y="802"/>
      <point x="388" y="785" type="curve" smooth="yes"/>
      <point x="397" y="777"/>
      <point x="402" y="775"/>
      <point x="417" y="775" type="curve" smooth="yes"/>
      <point x="469" y="775"/>
      <point x="521" y="775"/>
    </contour>
  </outline>
</glyph>
<glyph name="ntilde" format="1">
  <advance width="600"/>
  <unicode hex="00F1"/>
  <outline>
    <contour>
      <point x="230" y="0" type="curve"/>
      <point x="230" y="529" type="line" smooth="yes"/>
      <point x="230" y="532"/>
      <point x="229" y="535"/>
      <point x="227" y="537" type="curve" smooth="yes"/>
      <point x="225" y="539"/>
      <point x="222" y="540"/>
      <point x="219" y="540" type="curve" smooth="yes"/>
      <point x="174" y="540"/>
      <point x="125" y="540"/>
      <point x="70" y="540" type="curve"/>
      <point x="70" y="512"/>
      <point x="70" y="478"/>
      <point x="70" y="442" type="curve" smooth="yes"/>
      <point x="70" y="11" type="line" smooth="yes"/>
      <point x="70" y="5"/>
      <point x="75" y="0"/>
      <point x="81" y="0" type="curve" smooth="yes"/>
      <point x="131" y="0"/>
      <point x="180" y="0"/>
    </contour>
    <contour>
      <point x="395" y="552" type="curve" smooth="yes"/>
      <point x="345" y="552"/>
      <point x="288" y="529"/>
      <point x="227" y="451" type="curve" smooth="yes"/>
      <point x="200" y="418"/>
      <point x="163" y="363"/>
      <point x="187" y="293" type="curve"/>
      <point x="255" y="369"/>
      <point x="295" y="392"/>
      <point x="338" y="392" type="curve" smooth="yes"/>
      <point x="360" y="392"/>
      <point x="370" y="381"/>
      <point x="370" y="358" type="curve"/>
      <point x="507" y="358"/>
      <point x="530" y="380"/>
      <point x="530" y="401" type="curve" smooth="yes"/>
      <point x="530" y="484"/>
      <point x="478" y="552"/>
    </contour>
    <contour>
      <point x="530" y="0" type="curve"/>
      <point x="530" y="28"/>
      <point x="530" y="62"/>
      <point x="530" y="98" type="curve" smooth="yes"/>
      <point x="530" y="401" type="line"/>
      <point x="530" y="450"/>
      <point x="431" y="463"/>
      <point x="370" y="418" type="curve"/>
      <point x="370" y="402"/>
      <point x="370" y="384"/>
      <point x="370" y="358" type="curve" smooth="yes"/>
      <point x="370" y="11" type="line" smooth="yes"/>
      <point x="370" y="5"/>
      <point x="375" y="0"/>
      <point x="381" y="0" type="curve" smooth="yes"/>
      <point x="431" y="0"/>
      <point x="480" y="0"/>
    </contour>
    <contour>
      <point x="395" y="767" type="curve" smooth="yes"/>
      <point x="322" y="767"/>
      <point x="301" y="817"/>
      <point x="211" y="817" type="curve" smooth="yes"/>
      <point x="163" y="817"/>
      <point x="120" y="799"/>
      <point x="100" y="772" type="curve" smooth="yes"/>
      <point x="93" y="763"/>
      <point x="93" y="759"/>
      <point x="93" y="748" type="curve"/>
      <point x="93" y="719"/>
      <point x="93" y="663"/>
      <point x="93" y="626" type="curve"/>
      <point x="113" y="626" type="line"/>
      <point x="136" y="658"/>
      <point x="168" y="675"/>
      <point x="205" y="675" type="curve" smooth="yes"/>
      <point x="278" y="675"/>
      <point x="299" y="625"/>
      <point x="389" y="625" type="curve" smooth="yes"/>
      <point x="437" y="625"/>
      <point x="480" y="643"/>
      <point x="500" y="670" type="curve" smooth="yes"/>
      <point x="507" y="679"/>
      <point x="507" y="683"/>
      <point x="507" y="694" type="curve"/>
      <point x="507" y="723"/>
      <point x="507" y="779"/>
      <point x="507" y="816" type="curve"/>
      <point x="487" y="816" type="line"/>
      <point x="464" y="784"/>
      <point x="432" y="767"/>
    </contour>
  </outline>
</glyph>
<glyph name="otilde" format="1">
  <advance width="600"/>
  <unicode hex="00F5"/>
  <outline>
    <contour>
      <point x="302" y="552" type="curve" smooth="yes"/>
      <point x="155" y="552"/>
      <point x="55" y="450"/>
      <point x="55" y="302" type="curve" smooth="yes"/>
      <point x="55" y="248" type="line" smooth="yes"/>
      <point x="55" y="89"/>
      <point x="153" y="-12"/>
      <point x="298" y="-12" type="curve" smooth="yes"/>
      <point x="312" y="-12"/>
      <point x="320" y="1"/>
      <point x="295" y="128" type="curve"/>
      <point x="231" y="128"/>
      <point x="205" y="161"/>
      <point x="205" y="238" type="curve" smooth="yes"/>
      <point x="205" y="307" type="line" smooth="yes"/>
      <point x="205" y="374"/>
      <point x="241" y="412"/>
      <point x="305" y="412" type="curve" smooth="yes"/>
      <point x="353" y="412"/>
      <point x="382" y="402"/>
      <point x="412" y="374" type="curve"/>
      <point x="456" y="453"/>
      <point x="402" y="552"/>
    </contour>
    <contour>
      <point x="298" y="-12" type="curve" smooth="yes"/>
      <point x="444" y="-12"/>
      <point x="545" y="90"/>
      <point x="545" y="238" type="curve" smooth="yes"/>
      <point x="545" y="292" type="line" smooth="yes"/>
      <point x="545" y="451"/>
      <point x="446" y="552"/>
      <point x="302" y="552" type="curve" smooth="yes"/>
      <point x="295" y="552"/>
      <point x="291" y="545"/>
      <point x="305" y="412" type="curve"/>
      <point x="368" y="412"/>
      <point x="395" y="380"/>
      <point x="395" y="302" type="curve" smooth="yes"/>
      <point x="395" y="233" type="line" smooth="yes"/>
      <point x="395" y="166"/>
      <point x="358" y="128"/>
      <point x="295" y="128" type="curve" smooth="yes"/>
      <point x="247" y="128"/>
      <point x="216" y="138"/>
      <point x="186" y="166" type="curve"/>
      <point x="142" y="87"/>
      <point x="197" y="-12"/>
    </contour>
    <contour>
      <point x="395" y="767" type="curve" smooth="yes"/>
      <point x="322" y="767"/>
      <point x="301" y="817"/>
      <point x="211" y="817" type="curve" smooth="yes"/>
      <point x="163" y="817"/>
      <point x="120" y="799"/>
      <point x="100" y="772" type="curve" smooth="yes"/>
      <point x="93" y="763"/>
      <point x="93" y="759"/>
      <point x="93" y="748" type="curve"/>
      <point x="93" y="719"/>
      <point x="93" y="663"/>
      <point x="93" y="626" type="curve"/>
      <point x="113" y="626" type="line"/>
      <point x="136" y="658"/>
      <point x="168" y="675"/>
      <point x="205" y="675" type="curve" smooth="yes"/>
      <point x="278" y="675"/>
      <point x="299" y="625"/>
      <point x="389" y="625" type="curve" smooth="yes"/>
      <point x="437" y="625"/>
      <point x="480" y="643"/>
      <point x="500" y="670" type="curve" smooth="yes"/>
      <point x="507" y="679"/>
      <point x="507" y="683"/>
      <point x="507" y="694" type="curve"/>
      <point x="507" y="723"/>
      <point x="507" y="779"/>
      <point x="507" y="816" type="curve"/>
      <point x="487" y="816" type="line"/>
      <point x="464" y="784"/>
      <point x="432" y="767"/>
    </contour>
  </outline>
</glyph>
<glyph name="odieresis" format="1">
  <advance width="600"/>
  <unicode hex="00F6"/>
  <outline>
    <contour>
      <point x="302" y="552" type="curve" smooth="yes"/>
      <point x="155" y="552"/>
      <point x="55" y="450"/>
      <point x="55" y="302" type="curve" smooth="yes"/>
      <point x="55" y="248" type="line" smooth="yes"/>
      <point x="55" y="89"/>
      <point x="153" y="-12"/>
      <point x="298" y="-12" type="curve" smooth="yes"/>
      <point x="312" y="-12"/>
      <point x="320" y="1"/>
      <point x="295" y="128" type="curve"/>
      <point x="231" y="128"/>
      <point x="205" y="161"/>
      <point x="205" y="238" type="curve" smooth="yes"/>
      <point x="205" y="307" type="line" smooth="yes"/>
      <point x="205" y="374"/>
      <point x="241" y="412"/>
      <point x="305" y="412" type="curve" smooth="yes"/>
      <point x="353" y="412"/>
      <point x="382" y="402"/>
      <point x="412" y="374" type="curve"/>
      <point x="456" y="453"/>
      <point x="402" y="552"/>
    </contour>
    <contour>
      <point x="298" y="-12" type="curve" smooth="yes"/>
      <point x="444" y="-12"/>
      <point x="545" y="90"/>
      <point x="545" y="238" type="curve" smooth="yes"/>
      <point x="545" y="292" type="line" smooth="yes"/>
      <point x="545" y="451"/>
      <point x="446" y="552"/>
      <point x="302" y="552" type="curve" smooth="yes"/>
      <point x="295" y="552"/>
      <point x="291" y="545"/>
      <point x="305" y="412" type="curve"/>
      <point x="368" y="412"/>
      <point x="395" y="380"/>
      <point x="395" y="302" type="curve" smooth="yes"/>
      <point x="395" y="233" type="line" smooth="yes"/>
      <point x="395" y="166"/>
      <point x="358" y="128"/>
      <point x="295" y="128" type="curve" smooth="yes"/>
      <point x="247" y="128"/>
      <point x="216" y="138"/>
      <point x="186" y="166" type="curve"/>
      <point x="142" y="87"/>
      <point x="197" y="-12"/>
    </contour>
    <contour>
      <point x="268" y="611" type="curve"/>
      <point x="268" y="757" type="line" smooth="yes"/>
      <point x="268" y="763"/>
      <point x="263" y="768"/>
      <point x="257" y="768" type="curve" smooth="yes"/>
      <point x="209" y="768"/>
      <point x="160" y="768"/>
      <point x="112" y="768" type="curve"/>
      <point x="112" y="622" type="line" smooth="yes"/>
      <point x="112" y="616"/>
      <point x="117" y="611"/>
      <point x="123" y="611" type="curve" smooth="yes"/>
      <point x="171" y="611"/>
      <point x="220" y="611"/>
    </contour>
    <contour>
      <point x="488" y="611" type="curve"/>
      <point x="488" y="757" type="line" smooth="yes"/>
      <point x="488" y="763"/>
      <point x="483" y="768"/>
      <point x="477" y="768" type="curve" smooth="yes"/>
      <point x="429" y="768"/>
      <point x="380" y="768"/>
      <point x="332" y="768" type="curve"/>
      <point x="332" y="622" type="line" smooth="yes"/>
      <point x="332" y="616"/>
      <point x="337" y="611"/>
      <point x="343" y="611" type="curve" smooth="yes"/>
      <point x="391" y="611"/>
      <point x="440" y="611"/>
    </contour>
  </outline>
</glyph>
<glyph name="oslash" format="1">
  <advance width="600"/>
  <unicode hex="00F8"/>
  <outline>
    <contour>
      <point x="527" y="607" type="curve"/>
      <point x="513" y="607"/>
      <point x="436" y="607"/>
      <point x="415" y="607" type="curve" smooth="yes"/>
      <point x="404" y="607"/>
      <point x="401" y="605"/>
      <point x="393" y="588" type="curve" smooth="yes"/>
      <point x="329" y="458"/>
      <point x="246" y="281"/>
      <point x="153" y="89" type="curve"/>
      <point x="193" y="97"/>
      <point x="223" y="103"/>
      <point x="231" y="105" type="curve" smooth="yes"/>
      <point x="253" y="109"/>
      <point x="256" y="111"/>
      <point x="263" y="125" type="curve" smooth="yes"/>
      <point x="294" y="181"/>
      <point x="377" y="333"/>
    </contour>
    <contour>
      <point x="140" y="64" type="curve"/>
      <point x="126" y="37"/>
      <point x="89" y="-32"/>
      <point x="71" y="-66" type="curve"/>
      <point x="81" y="-66"/>
      <point x="168" y="-66"/>
      <point x="180" y="-66" type="curve" smooth="yes"/>
      <point x="188" y="-66"/>
      <point x="190" y="-65"/>
      <point x="194" y="-58" type="curve"/>
      <point x="211" y="-25"/>
      <point x="247" y="40"/>
      <point x="270" y="86" type="curve"/>
      <point x="177" y="86"/>
      <point x="150" y="83"/>
    </contour>
    <contour>
      <point x="302" y="552" type="curve" smooth="yes"/>
      <point x="155" y="552"/>
      <point x="55" y="450"/>
      <point x="55" y="302" type="curve" smooth="yes"/>
      <point x="55" y="248" type="line" smooth="yes"/>
      <point x="55" y="89"/>
      <point x="153" y="-12"/>
      <point x="298" y="-12" type="curve" smooth="yes"/>
      <point x="312" y="-12"/>
      <point x="320" y="1"/>
      <point x="295" y="128" type="curve"/>
      <point x="231" y="128"/>
      <point x="205" y="161"/>
      <point x="205" y="238" type="curve" smooth="yes"/>
      <point x="205" y="307" type="line" smooth="yes"/>
      <point x="205" y="374"/>
      <point x="241" y="412"/>
      <point x="305" y="412" type="curve" smooth="yes"/>
      <point x="353" y="412"/>
      <point x="382" y="402"/>
      <point x="412" y="374" type="curve"/>
      <point x="456" y="453"/>
      <point x="402" y="552"/>
    </contour>
    <contour>
      <point x="298" y="-12" type="curve" smooth="yes"/>
      <point x="444" y="-12"/>
      <point x="545" y="90"/>
      <point x="545" y="238" type="curve" smooth="yes"/>
      <point x="545" y="292" type="line" smooth="yes"/>
      <point x="545" y="451"/>
      <point x="446" y="552"/>
      <point x="302" y="552" type="curve" smooth="yes"/>
      <point x="295" y="552"/>
      <point x="291" y="545"/>
      <point x="305" y="412" type="curve"/>
      <point x="368" y="412"/>
      <point x="395" y="380"/>
      <point x="395" y="302" type="curve" smooth="yes"/>
      <point x="395" y="233" type="line" smooth="yes"/>
      <point x="395" y="166"/>
      <point x="358" y="128"/>
      <point x="295" y="128" type="curve" smooth="yes"/>
      <point x="247" y="128"/>
      <point x="216" y="138"/>
      <point x="186" y="166" type="curve"/>
      <point x="142" y="87"/>
      <point x="197" y="-12"/>
    </contour>
    <contour>
      <point x="300" y="571" type="move" name="top"/>
    </contour>
  </outline>
</glyph>
<glyph name="ugrave" format="1">
  <advance width="600"/>
  <unicode hex="00F9"/>
  <outline>
    <contour>
      <point x="370" y="540" type="curve"/>
      <point x="370" y="11" type="line" smooth="yes"/>
      <point x="370" y="8"/>
      <point x="371" y="5"/>
      <point x="373" y="3" type="curve" smooth="yes"/>
      <point x="375" y="1"/>
      <point x="378" y="0"/>
      <point x="381" y="0" type="curve" smooth="yes"/>
      <point x="426" y="0"/>
      <point x="475" y="0"/>
      <point x="530" y="0" type="curve"/>
      <point x="530" y="28"/>
      <point x="530" y="62"/>
      <point x="530" y="98" type="curve" smooth="yes"/>
      <point x="530" y="529" type="line" smooth="yes"/>
      <point x="530" y="535"/>
      <point x="525" y="540"/>
      <point x="519" y="540" type="curve" smooth="yes"/>
      <point x="469" y="540"/>
      <point x="420" y="540"/>
    </contour>
    <contour>
      <point x="205" y="-12" type="curve" smooth="yes"/>
      <point x="255" y="-12"/>
      <point x="312" y="11"/>
      <point x="373" y="89" type="curve" smooth="yes"/>
      <point x="400" y="122"/>
      <point x="437" y="177"/>
      <point x="413" y="247" type="curve"/>
      <point x="345" y="171"/>
      <point x="305" y="148"/>
      <point x="262" y="148" type="curve" smooth="yes"/>
      <point x="240" y="148"/>
      <point x="230" y="159"/>
      <point x="230" y="182" type="curve"/>
      <point x="93" y="182"/>
      <point x="70" y="160"/>
      <point x="70" y="139" type="curve" smooth="yes"/>
      <point x="70" y="56"/>
      <point x="122" y="-12"/>
    </contour>
    <contour>
      <point x="70" y="540" type="curve"/>
      <point x="70" y="512"/>
      <point x="70" y="478"/>
      <point x="70" y="442" type="curve" smooth="yes"/>
      <point x="70" y="139" type="line"/>
      <point x="70" y="90"/>
      <point x="169" y="77"/>
      <point x="230" y="122" type="curve"/>
      <point x="230" y="138"/>
      <point x="230" y="156"/>
      <point x="230" y="182" type="curve" smooth="yes"/>
      <point x="230" y="529" type="line" smooth="yes"/>
      <point x="230" y="535"/>
      <point x="225" y="540"/>
      <point x="219" y="540" type="curve" smooth="yes"/>
      <point x="169" y="540"/>
      <point x="120" y="540"/>
    </contour>
    <contour>
      <point x="368" y="619" type="curve"/>
      <point x="333" y="681"/>
      <point x="298" y="743"/>
      <point x="262" y="807" type="curve"/>
      <point x="199" y="807"/>
      <point x="152" y="807"/>
      <point x="91" y="807" type="curve" smooth="yes"/>
      <point x="83" y="807"/>
      <point x="78" y="799"/>
      <point x="84" y="792" type="curve"/>
      <point x="135" y="735"/>
      <point x="174" y="692"/>
      <point x="233" y="627" type="curve" smooth="yes"/>
      <point x="236" y="623"/>
      <point x="242" y="619"/>
      <point x="250" y="619" type="curve" smooth="yes"/>
      <point x="293" y="619"/>
      <point x="330" y="619"/>
    </contour>
  </outline>
</glyph>
<glyph name="Ccircumflex" format="1">
  <advance width="600"/>
  <unicode hex="0108"/>
  <outline>
    <contour>
      <point x="328" y="577" type="curve" smooth="yes"/>
      <point x="391" y="577"/>
      <point x="429" y="556"/>
      <point x="465" y="527" type="curve"/>
      <point x="533" y="598"/>
      <point x="543" y="616"/>
      <point x="543" y="633" type="curve" smooth="yes"/>
      <point x="543" y="644"/>
      <point x="542" y="647"/>
      <point x="537" y="652" type="curve" smooth="yes"/>
      <point x="505" y="684"/>
      <point x="436" y="720"/>
      <point x="331" y="720" type="curve" smooth="yes"/>
      <point x="152" y="720"/>
      <point x="50" y="612"/>
      <point x="50" y="455" type="curve" smooth="yes"/>
      <point x="50" y="256" type="line" smooth="yes"/>
      <point x="50" y="168"/>
      <point x="111" y="110"/>
      <point x="210" y="111" type="curve"/>
      <point x="210" y="149"/>
      <point x="210" y="184"/>
      <point x="210" y="254" type="curve" smooth="yes"/>
      <point x="210" y="452" type="line" smooth="yes"/>
      <point x="210" y="540"/>
      <point x="256" y="577"/>
    </contour>
    <contour>
      <point x="340" y="-20" type="curve" smooth="yes"/>
      <point x="435" y="-20"/>
      <point x="521" y="4"/>
      <point x="547" y="30" type="curve" smooth="yes"/>
      <point x="549" y="32"/>
      <point x="550" y="35"/>
      <point x="550" y="38" type="curve" smooth="yes"/>
      <point x="550" y="84"/>
      <point x="550" y="131"/>
      <point x="550" y="177" type="curve"/>
      <point x="530" y="177" type="line"/>
      <point x="476" y="145"/>
      <point x="419" y="130"/>
      <point x="340" y="130" type="curve" smooth="yes"/>
      <point x="250" y="130"/>
      <point x="210" y="167"/>
      <point x="210" y="278" type="curve"/>
      <point x="105" y="279"/>
      <point x="50" y="269"/>
      <point x="50" y="256" type="curve" smooth="yes"/>
      <point x="50" y="80"/>
      <point x="142" y="-20"/>
    </contour>
    <contour>
      <point x="543" y="458" type="curve"/>
      <point x="543" y="633" type="line" smooth="yes"/>
      <point x="543" y="646"/>
      <point x="504" y="653"/>
      <point x="403" y="653" type="curve"/>
      <point x="403" y="638"/>
      <point x="403" y="616"/>
      <point x="403" y="603" type="curve" smooth="yes"/>
      <point x="403" y="469" type="line"/>
      <point x="403" y="466"/>
      <point x="404" y="463"/>
      <point x="406" y="461" type="curve" smooth="yes"/>
      <point x="408" y="459"/>
      <point x="411" y="458"/>
      <point x="414" y="458" type="curve"/>
      <point x="457" y="458"/>
      <point x="500" y="458"/>
    </contour>
    <contour>
      <point x="203" y="775" type="line"/>
      <point x="248" y="813"/>
      <point x="295" y="852"/>
      <point x="358" y="905" type="curve"/>
      <point x="307" y="946"/>
      <point x="295" y="947"/>
      <point x="287" y="947" type="curve"/>
      <point x="218" y="947" type="line"/>
      <point x="192" y="920"/>
      <point x="112" y="837"/>
      <point x="83" y="807" type="curve" smooth="yes"/>
      <point x="67" y="790"/>
      <point x="65" y="788"/>
      <point x="65" y="783" type="curve" smooth="yes"/>
      <point x="65" y="779"/>
      <point x="68" y="775"/>
      <point x="76" y="775" type="curve"/>
    </contour>
    <contour>
      <point x="549" y="775" type="curve"/>
      <point x="502" y="825"/>
      <point x="421" y="909"/>
      <point x="402" y="928" type="curve" smooth="yes"/>
      <point x="386" y="944"/>
      <point x="382" y="947"/>
      <point x="372" y="947" type="curve" smooth="yes"/>
      <point x="284" y="947" type="line"/>
      <point x="279" y="947"/>
      <point x="272" y="944"/>
      <point x="245" y="905" type="curve"/>
      <point x="309" y="851"/>
      <point x="367" y="802"/>
      <point x="388" y="785" type="curve" smooth="yes"/>
      <point x="397" y="777"/>
      <point x="402" y="775"/>
      <point x="417" y="775" type="curve" smooth="yes"/>
      <point x="469" y="775"/>
      <point x="521" y="775"/>
    </contour>
  </outline>
</glyph>
<glyph name="ccircumflex" format="1">
  <advance width="600"/>
  <unicode hex="0109"/>
  <outline>
    <contour>
      <point x="346" y="552" type="curve" smooth="yes"/>
      <point x="175" y="552"/>
      <point x="65" y="447"/>
      <point x="65" y="301" type="curve" smooth="yes"/>
      <point x="65" y="235" type="line" smooth="yes"/>
      <point x="65" y="79"/>
      <point x="162" y="-12"/>
      <point x="346" y="-12" type="curve" smooth="yes"/>
      <point x="369" y="-12"/>
      <point x="368" y="9"/>
      <point x="343" y="138" type="curve"/>
      <point x="253" y="138"/>
      <point x="220" y="171"/>
      <point x="220" y="243" type="curve" smooth="yes"/>
      <point x="220" y="299" type="line" smooth="yes"/>
      <point x="220" y="379"/>
      <point x="273" y="402"/>
      <point x="343" y="402" type="curve" smooth="yes"/>
      <point x="399" y="402"/>
      <point x="447" y="390"/>
      <point x="500" y="369" type="curve"/>
      <point x="520" y="369" type="line"/>
      <point x="520" y="414"/>
      <point x="520" y="459"/>
      <point x="520" y="504" type="curve" smooth="yes"/>
      <point x="520" y="507"/>
      <point x="519" y="510"/>
      <point x="517" y="512" type="curve" smooth="yes"/>
      <point x="501" y="528"/>
      <point x="442" y="552"/>
    </contour>
    <contour>
      <point x="160" y="194" type="curve"/>
      <point x="135" y="47"/>
      <point x="200" y="-12"/>
      <point x="346" y="-12" type="curve" smooth="yes"/>
      <point x="439" y="-12"/>
      <point x="502" y="10"/>
      <point x="517" y="25" type="curve" smooth="yes"/>
      <point x="519" y="27"/>
      <point x="520" y="30"/>
      <point x="520" y="33" type="curve"/>
      <point x="520" y="78"/>
      <point x="520" y="123"/>
      <point x="520" y="168" type="curve"/>
      <point x="500" y="168" type="line"/>
      <point x="447" y="149"/>
      <point x="399" y="138"/>
      <point x="343" y="138" type="curve" smooth="yes"/>
      <point x="266" y="138"/>
      <point x="208" y="158"/>
    </contour>
    <contour>
      <point x="246" y="610" type="line"/>
      <point x="291" y="654"/>
      <point x="338" y="700"/>
      <point x="401" y="763" type="curve"/>
      <point x="350" y="811"/>
      <point x="328" y="812"/>
      <point x="320" y="812" type="curve"/>
      <point x="281" y="812" type="line"/>
      <point x="255" y="780"/>
      <point x="175" y="683"/>
      <point x="146" y="647" type="curve" smooth="yes"/>
      <point x="130" y="627"/>
      <point x="128" y="625"/>
      <point x="128" y="619" type="curve" smooth="yes"/>
      <point x="128" y="614"/>
      <point x="131" y="610"/>
      <point x="139" y="610" type="curve"/>
    </contour>
    <contour>
      <point x="552" y="610" type="curve"/>
      <point x="505" y="668"/>
      <point x="424" y="767"/>
      <point x="405" y="790" type="curve" smooth="yes"/>
      <point x="389" y="809"/>
      <point x="385" y="812"/>
      <point x="375" y="812" type="curve" smooth="yes"/>
      <point x="317" y="812" type="line"/>
      <point x="312" y="812"/>
      <point x="295" y="809"/>
      <point x="268" y="763" type="curve"/>
      <point x="332" y="699"/>
      <point x="390" y="642"/>
      <point x="411" y="621" type="curve" smooth="yes"/>
      <point x="420" y="612"/>
      <point x="425" y="610"/>
      <point x="440" y="610" type="curve" smooth="yes"/>
      <point x="492" y="610"/>
      <point x="524" y="610"/>
    </contour>
  </outline>
</glyph>
